  0
SECTION
  2
HEADER
  9
$ACADVER
  1
AC1014
  9
$HANDSEED
  5
FFFF
  9
$MEASUREMENT
 70
     1
  0
ENDSEC
  0
SECTION
  2
TABLES
  0
TABLE
  2
VPORT
  5
8
330
0
100
AcDbSymbolTable
 70
     4
  0
VPORT
  5
2E
330
8
100
AcDbSymbolTableRecord
100
AcDbViewportTableRecord
  2
*ACTIVE
 70
     0
 10
0.0
 20
0.0
 11
1.0
 21
1.0
 12
210.0
 22
148.5
 13
0.0
 23
0.0
 14
10.0
 24
10.0
 15
10.0
 25
10.0
 16
0.0
 26
0.0
 36
1.0
 17
0.0
 27
0.0
 37
0.0
 40
341.0
 41
1.24
 42
50.0
 43
0.0
 44
0.0
 50
0.0
 51
0.0
 71
     0
 72
   100
 73
     1
 74
     3
 75
     0
 76
     0
 77
     0
 78
     0
  0
ENDTAB
  0
TABLE
  2
LTYPE
  5
5
330
0
100
AcDbSymbolTable
 70
     1
  0
LTYPE
  5
14
330
5
100
AcDbSymbolTableRecord
100
AcDbLinetypeTableRecord
  2
BYBLOCK
 70
     0
  3

 72
    65
 73
     0
 40
0.0
  0
LTYPE
  5
15
330
5
100
AcDbSymbolTableRecord
100
AcDbLinetypeTableRecord
  2
BYLAYER
 70
     0
  3

 72
    65
 73
     0
 40
0.0
  0
LTYPE
  5
16
330
5
100
AcDbSymbolTableRecord
100
AcDbLinetypeTableRecord
  2
CONTINUOUS
 70
     0
  3
Solid line
 72
    65
 73
     0
 40
0.0
  0
ENDTAB
  0
TABLE
  2
LAYER
  5
2
100
AcDbSymbolTable
 70
2
  0
LAYER
  5
50
100
AcDbSymbolTableRecord
100
AcDbLayerTableRecord
  2
0
 70
0
  6
CONTINUOUS
  0
LAYER
  5
51
100
AcDbSymbolTableRecord
100
AcDbLayerTableRecord
  2
Layer_1
 70
0
  6
CONTINUOUS
  0
ENDTAB
  0
TABLE
  2
STYLE
  5
3
330
0
100
AcDbSymbolTable
 70
     1
  0
STYLE
  5
11
330
3
100
AcDbSymbolTableRecord
100
AcDbTextStyleTableRecord
  2
STANDARD
 70
     0
 40
0.0
 41
1.0
 50
0.0
 71
     0
 42
2.5
  3
txt
  4

  0
ENDTAB
  0
TABLE
  2
VIEW
  5
6
330
0
100
AcDbSymbolTable
 70
     0
  0
ENDTAB
  0
TABLE
  2
UCS
  5
7
330
0
100
AcDbSymbolTable
 70
     0
  0
ENDTAB
  0
TABLE
  2
APPID
  5
9
330
0
100
AcDbSymbolTable
 70
     2
  0
APPID
  5
12
330
9
100
AcDbSymbolTableRecord
100
AcDbRegAppTableRecord
  2
ACAD
 70
     0
  0
ENDTAB
  0
TABLE
  2
DIMSTYLE
  5
A
330
0
100
AcDbSymbolTable
 70
     1
  0
DIMSTYLE
105
27
330
A
100
AcDbSymbolTableRecord
100
AcDbDimStyleTableRecord
  2
ISO-25
 70
     0
  3

  4

  5

  6

  7

 40
1.0
 41
2.5
 42
0.625
 43
3.75
 44
1.25
 45
0.0
 46
0.0
 47
0.0
 48
0.0
140
2.5
141
2.5
142
0.0
143
0.03937007874016
144
1.0
145
0.0
146
1.0
147
0.625
 71
     0
 72
     0
 73
     0
 74
     0
 75
     0
 76
     0
 77
     1
 78
     8
170
     0
171
     3
172
     1
173
     0
174
     0
175
     0
176
     0
177
     0
178
     0
270
     2
271
     2
272
     2
273
     2
274
     3
340
11
275
     0
280
     0
281
     0
282
     0
283
     0
284
     8
285
     0
286
     0
287
     3
288
     0
  0
ENDTAB
  0
TABLE
  2
BLOCK_RECORD
  5
1
330
0
100
AcDbSymbolTable
 70
     1
  0
BLOCK_RECORD
  5
1F
330
1
100
AcDbSymbolTableRecord
100
AcDbBlockTableRecord
  2
*MODEL_SPACE
  0
BLOCK_RECORD
  5
1B
330
1
100
AcDbSymbolTableRecord
100
AcDbBlockTableRecord
  2
*PAPER_SPACE
  0
ENDTAB
  0
ENDSEC
  0
SECTION
  2
BLOCKS
  0
BLOCK
  5
20
330
1F
100
AcDbEntity
  8
0
100
AcDbBlockBegin
  2
*MODEL_SPACE
 70
     0
 10
0.0
 20
0.0
 30
0.0
  3
*MODEL_SPACE
  1

  0
ENDBLK
  5
21
330
1F
100
AcDbEntity
  8
0
100
AcDbBlockEnd
  0
BLOCK
  5
1C
330
1B
100
AcDbEntity
 67
     1
  8
0
100
AcDbBlockBegin
  2
*PAPER_SPACE
  1

  0
ENDBLK
  5
1D
330
1B
100
AcDbEntity
 67
     1
  8
0
100
AcDbBlockEnd
  0
ENDSEC
  0
SECTION
  2
ENTITIES
  0
LWPOLYLINE
  5
100
100
AcDbEntity
  8
Layer_1
 62
7
100
AcDbPolyline
 90
209
 70
1
 10
13.343819
 20
52.915346
 30
0.0
 10
13.343819
 20
51.301388
 30
0.0
 10
13.343819
 20
49.687429
 30
0.0
 10
14.022917
 20
49.687429
 30
0.0
 10
14.702014
 20
49.687429
 30
0.0
 10
14.702014
 20
50.128401
 30
0.0
 10
14.702014
 20
50.569374
 30
0.0
 10
14.975417
 20
50.569374
 30
0.0
 10
15.248819
 20
50.569374
 30
0.0
 10
15.657851
 20
49.625210
 30
0.0
 10
16.324792
 20
49.017151
 30
0.0
 10
17.422805
 20
48.675920
 30
0.0
 10
18.512014
 20
48.629096
 30
0.0
 10
19.529063
 20
48.323996
 30
0.0
 10
20.893264
 20
47.306179
 30
0.0
 10
22.039656
 20
45.439182
 30
0.0
 10
22.524861
 20
42.570138
 30
0.0
 10
22.533681
 20
42.570138
 30
0.0
 10
22.542500
 20
42.570138
 30
0.0
 10
22.542500
 20
40.034547
 30
0.0
 10
22.542500
 20
37.498957
 30
0.0
 10
20.274646
 20
34.184948
 30
0.0
 10
17.974028
 20
29.543818
 30
0.0
 10
16.013100
 20
23.846759
 30
0.0
 10
15.081250
 20
17.937429
 30
0.0
 10
14.891632
 20
17.937429
 30
0.0
 10
14.702014
 20
17.937429
 30
0.0
 10
14.702014
 20
18.382810
 30
0.0
 10
14.702014
 20
18.828193
 30
0.0
 10
14.022917
 20
18.828193
 30
0.0
 10
13.343819
 20
18.828193
 30
0.0
 10
13.343819
 20
17.209824
 30
0.0
 10
13.343819
 20
15.591457
 30
0.0
 10
14.022917
 20
15.591457
 30
0.0
 10
14.702014
 20
15.591457
 30
0.0
 10
14.702014
 20
16.036838
 30
0.0
 10
14.702014
 20
16.482221
 30
0.0
 10
14.878403
 20
16.482221
 30
0.0
 10
15.054792
 20
16.482221
 30
0.0
 10
16.169112
 20
14.249753
 30
0.0
 10
20.231806
 20
13.016179
 30
0.0
 10
20.231806
 20
13.615901
 30
0.0
 10
20.231806
 20
14.215624
 30
0.0
 10
16.925679
 20
15.155573
 30
0.0
 10
16.263056
 20
16.482221
 30
0.0
 10
16.629062
 20
16.482221
 30
0.0
 10
16.995069
 20
16.482221
 30
0.0
 10
16.995069
 20
17.209824
 30
0.0
 10
16.995069
 20
17.937429
 30
0.0
 10
16.637882
 20
17.937429
 30
0.0
 10
16.280694
 20
17.937429
 30
0.0
 10
17.186927
 20
23.566574
 30
0.0
 10
19.085278
 20
29.076388
 30
0.0
 10
21.352018
 20
33.619835
 30
0.0
 10
23.486181
 20
36.749304
 30
0.0
 10
32.751006
 20
36.749304
 30
0.0
 10
42.015833
 20
36.749304
 30
0.0
 10
42.889836
 20
32.813484
 30
0.0
 10
44.388264
 20
28.705971
 30
0.0
 10
45.258908
 20
26.498928
 30
0.0
 10
46.011042
 20
24.490276
 30
0.0
 10
46.527779
 20
22.780786
 30
0.0
 10
46.716597
 20
21.535763
 30
0.0
 10
46.842291
 20
19.867031
 30
0.0
 10
47.263403
 20
18.519513
 30
0.0
 10
46.587712
 20
17.623488
 30
0.0
 10
46.178611
 20
16.852638
 30
0.0
 10
45.862491
 20
16.041728
 30
0.0
 10
45.517153
 20
15.291596
 30
0.0
 10
44.580246
 20
14.543995
 30
0.0
 10
43.197639
 20
14.215624
 30
0.0
 10
43.197639
 20
13.615901
 30
0.0
 10
43.197639
 20
13.016179
 30
0.0
 10
45.121212
 20
13.429327
 30
0.0
 10
46.557847
 20
14.691874
 30
0.0
 10
46.983602
 20
15.599777
 30
0.0
 10
47.281042
 20
16.376388
 30
0.0
 10
47.557238
 20
16.915088
 30
0.0
 10
48.004236
 20
17.540554
 30
0.0
 10
49.090464
 20
16.901098
 30
0.0
 10
50.464861
 20
16.614513
 30
0.0
 10
50.464861
 20
16.548365
 30
0.0
 10
50.464861
 20
16.482221
 30
0.0
 10
51.611389
 20
16.482221
 30
0.0
 10
52.757917
 20
16.482221
 30
0.0
 10
52.757917
 20
16.036838
 30
0.0
 10
52.757917
 20
15.591457
 30
0.0
 10
53.437014
 20
15.591457
 30
0.0
 10
54.116111
 20
15.591457
 30
0.0
 10
54.116111
 20
17.209824
 30
0.0
 10
54.116111
 20
18.828193
 30
0.0
 10
53.437014
 20
18.828193
 30
0.0
 10
52.757917
 20
18.828193
 30
0.0
 10
52.757917
 20
18.382810
 30
0.0
 10
52.757917
 20
17.937429
 30
0.0
 10
51.611389
 20
17.937429
 30
0.0
 10
50.464861
 20
17.937429
 30
0.0
 10
50.464861
 20
17.871282
 30
0.0
 10
50.464861
 20
17.805138
 30
0.0
 10
49.375272
 20
18.066168
 30
0.0
 10
48.656875
 20
18.581249
 30
0.0
 10
48.110132
 20
19.696134
 30
0.0
 10
47.916042
 20
21.535763
 30
0.0
 10
47.697819
 20
23.076064
 30
0.0
 10
47.139931
 20
24.887151
 30
0.0
 10
46.371733
 20
26.938145
 30
0.0
 10
45.499514
 20
29.146943
 30
0.0
 10
43.891663
 20
33.679308
 30
0.0
 10
43.171181
 20
37.648888
 30
0.0
 10
43.162347
 20
37.648888
 30
0.0
 10
43.153513
 20
37.648888
 30
0.0
 10
43.153513
 20
38.755726
 30
0.0
 10
43.153513
 20
39.862568
 30
0.0
 10
43.422034
 20
39.862544
 30
0.0
 10
44.185388
 20
39.862568
 30
0.0
 10
44.245304
 20
39.720011
 30
0.0
 10
44.308861
 20
39.448054
 30
0.0
 10
44.373981
 20
38.643210
 30
0.0
 10
44.414694
 20
37.648888
 30
0.0
 10
44.508821
 20
36.611659
 30
0.0
 10
44.785111
 20
35.629235
 30
0.0
 10
45.445316
 20
34.837446
 30
0.0
 10
46.513722
 20
34.517985
 30
0.0
 10
47.561342
 20
34.879130
 30
0.0
 10
48.171777
 20
35.699790
 30
0.0
 10
48.386955
 20
36.692467
 30
0.0
 10
48.418722
 20
37.728263
 30
0.0
 10
48.402804
 20
38.708107
 30
0.0
 10
48.427527
 20
39.492151
 30
0.0
 10
48.481070
 20
39.756568
 30
0.0
 10
48.533360
 20
39.889026
 30
0.0
 10
50.597110
 20
39.889026
 30
0.0
 10
52.660860
 20
39.889026
 30
0.0
 10
52.660860
 20
40.387325
 30
0.0
 10
52.660860
 20
40.885624
 30
0.0
 10
50.597110
 20
40.885624
 30
0.0
 10
48.533360
 20
40.885624
 30
0.0
 10
48.045680
 20
40.752050
 30
0.0
 10
47.686694
 20
40.427013
 30
0.0
 10
47.514146
 20
40.033435
 30
0.0
 10
47.439749
 20
39.615624
 30
0.0
 10
47.404068
 20
38.695850
 30
0.0
 10
47.422102
 20
37.719443
 30
0.0
 10
47.386121
 20
36.789970
 30
0.0
 10
47.236894
 20
36.061388
 30
0.0
 10
46.991707
 20
35.651931
 30
0.0
 10
46.496060
 20
35.523401
 30
0.0
 10
45.983804
 20
35.637349
 30
0.0
 10
45.702310
 20
36.043749
 30
0.0
 10
45.504681
 20
36.771309
 30
0.0
 10
45.411269
 20
37.701804
 30
0.0
 10
45.374834
 20
38.679809
 30
0.0
 10
45.296616
 20
39.597985
 30
0.0
 10
45.207473
 20
40.013267
 30
0.0
 10
45.032083
 20
40.400554
 30
0.0
 10
44.683553
 20
40.723196
 30
0.0
 10
44.203056
 20
40.859165
 30
0.0
 10
43.678300
 20
40.859165
 30
0.0
 10
43.153542
 20
40.859165
 30
0.0
 10
43.153542
 20
41.851353
 30
0.0
 10
43.153542
 20
42.843540
 30
0.0
 10
43.153542
 20
42.931735
 30
0.0
 10
43.153542
 20
43.019929
 30
0.0
 10
43.761756
 20
44.577104
 30
0.0
 10
44.829236
 20
46.582985
 30
0.0
 10
47.120762
 20
49.220769
 30
0.0
 10
50.464861
 20
50.657568
 30
0.0
 10
50.464861
 20
50.613471
 30
0.0
 10
50.464861
 20
50.569374
 30
0.0
 10
51.611389
 20
50.569374
 30
0.0
 10
52.757917
 20
50.569374
 30
0.0
 10
52.757917
 20
50.128401
 30
0.0
 10
52.757917
 20
49.687429
 30
0.0
 10
53.437014
 20
49.687429
 30
0.0
 10
54.116111
 20
49.687429
 30
0.0
 10
54.116111
 20
51.301388
 30
0.0
 10
54.116111
 20
52.915346
 30
0.0
 10
53.437014
 20
52.915346
 30
0.0
 10
52.757917
 20
52.915346
 30
0.0
 10
52.757917
 20
52.474374
 30
0.0
 10
52.757917
 20
52.033401
 30
0.0
 10
51.611389
 20
52.033401
 30
0.0
 10
50.464861
 20
52.033401
 30
0.0
 10
50.464861
 20
51.954026
 30
0.0
 10
50.464861
 20
51.874651
 30
0.0
 10
46.461240
 20
50.222747
 30
0.0
 10
43.815000
 20
47.226804
 30
0.0
 10
42.682863
 20
45.111176
 30
0.0
 10
42.024653
 20
43.443263
 30
0.0
 10
32.856839
 20
43.443263
 30
0.0
 10
23.689028
 20
43.443263
 30
0.0
 10
23.021155
 20
46.187503
 30
0.0
 10
21.766389
 20
48.126388
 30
0.0
 10
20.088928
 20
49.415554
 30
0.0
 10
18.512014
 20
49.828540
 30
0.0
 10
17.582326
 20
49.878190
 30
0.0
 10
16.906875
 20
50.066665
 30
0.0
 10
16.652728
 20
50.257688
 30
0.0
 10
16.465903
 20
50.569374
 30
0.0
 10
16.730486
 20
50.569374
 30
0.0
 10
16.995069
 20
50.569374
 30
0.0
 10
16.995069
 20
51.301388
 30
0.0
 10
16.995069
 20
52.033401
 30
0.0
 10
15.848542
 20
52.033401
 30
0.0
 10
14.702014
 20
52.033401
 30
0.0
 10
14.702014
 20
52.474374
 30
0.0
 10
14.702014
 20
52.915346
 30
0.0
 10
14.022917
 20
52.915346
 30
0.0
 10
13.343819
 20
52.915346
 30
0.0
  0
LWPOLYLINE
  5
101
100
AcDbEntity
  8
Layer_1
 62
7
100
AcDbPolyline
 90
17
 70
1
 10
23.741944
 20
42.243818
 30
0.0
 10
24.800278
 20
42.243818
 30
0.0
 10
25.858611
 20
42.243818
 30
0.0
 10
25.858611
 20
42.018922
 30
0.0
 10
25.858611
 20
41.794026
 30
0.0
 10
25.444097
 20
41.794026
 30
0.0
 10
25.029583
 20
41.794026
 30
0.0
 10
25.029583
 20
40.105103
 30
0.0
 10
25.029583
 20
38.416179
 30
0.0
 10
25.038403
 20
38.416179
 30
0.0
 10
25.047222
 20
38.416179
 30
0.0
 10
25.047222
 20
38.182463
 30
0.0
 10
25.047222
 20
37.948749
 30
0.0
 10
24.394583
 20
37.948749
 30
0.0
 10
23.741944
 20
37.948749
 30
0.0
 10
23.741944
 20
40.096283
 30
0.0
 10
23.741944
 20
42.243818
 30
0.0
  0
LWPOLYLINE
  5
102
100
AcDbEntity
  8
Layer_1
 62
7
100
AcDbPolyline
 90
41
 70
1
 10
26.687639
 20
42.243818
 30
0.0
 10
28.151667
 20
42.243818
 30
0.0
 10
29.615694
 20
42.243818
 30
0.0
 10
29.615694
 20
42.018922
 30
0.0
 10
29.615694
 20
41.794026
 30
0.0
 10
29.117397
 20
41.794026
 30
0.0
 10
28.619097
 20
41.794026
 30
0.0
 10
28.619097
 20
40.105103
 30
0.0
 10
28.619097
 20
38.416179
 30
0.0
 10
29.099758
 20
38.416179
 30
0.0
 10
29.580417
 20
38.416179
 30
0.0
 10
29.580417
 20
38.182463
 30
0.0
 10
29.580417
 20
37.948749
 30
0.0
 10
28.852814
 20
37.948749
 30
0.0
 10
28.125208
 20
37.948749
 30
0.0
 10
28.125208
 20
38.182463
 30
0.0
 10
28.125208
 20
38.416179
 30
0.0
 10
28.173715
 20
38.416179
 30
0.0
 10
28.222222
 20
38.416179
 30
0.0
 10
28.222222
 20
38.438221
 30
0.0
 10
28.222222
 20
38.460262
 30
0.0
 10
28.126230
 20
38.554951
 30
0.0
 10
28.063472
 20
38.698387
 30
0.0
 10
28.030123
 20
38.857603
 30
0.0
 10
28.019376
 20
38.998248
 30
0.0
 10
28.019376
 20
39.108491
 30
0.0
 10
28.019376
 20
39.218735
 30
0.0
 10
27.979209
 20
39.495609
 30
0.0
 10
27.860625
 20
39.721457
 30
0.0
 10
27.655368
 20
39.900983
 30
0.0
 10
27.349097
 20
40.021318
 30
0.0
 10
27.620692
 20
40.158256
 30
0.0
 10
27.816528
 20
40.329999
 30
0.0
 10
27.935776
 20
40.536336
 30
0.0
 10
27.975278
 20
40.779790
 30
0.0
 10
27.875198
 20
41.200102
 30
0.0
 10
27.578403
 20
41.520624
 30
0.0
 10
27.184769
 20
41.703242
 30
0.0
 10
26.687639
 20
41.785207
 30
0.0
 10
26.687639
 20
42.014513
 30
0.0
 10
26.687639
 20
42.243818
 30
0.0
  0
LWPOLYLINE
  5
103
100
AcDbEntity
  8
Layer_1
 62
7
100
AcDbPolyline
 90
45
 70
1
 10
30.444722
 20
42.243818
 30
0.0
 10
31.578022
 20
42.243818
 30
0.0
 10
32.711319
 20
42.243818
 30
0.0
 10
32.711319
 20
42.010103
 30
0.0
 10
32.711319
 20
41.776388
 30
0.0
 10
32.374902
 20
41.649402
 30
0.0
 10
32.085139
 20
41.450068
 30
0.0
 10
31.755661
 20
41.007469
 30
0.0
 10
31.644167
 20
40.453471
 30
0.0
 10
31.644167
 20
40.100693
 30
0.0
 10
31.644167
 20
39.747915
 30
0.0
 10
31.757411
 20
39.192186
 30
0.0
 10
32.093958
 20
38.751318
 30
0.0
 10
32.458841
 20
38.518296
 30
0.0
 10
32.896528
 20
38.389721
 30
0.0
 10
32.896528
 20
38.169235
 30
0.0
 10
32.896528
 20
37.948749
 30
0.0
 10
31.652986
 20
37.948749
 30
0.0
 10
30.409444
 20
37.948749
 30
0.0
 10
30.409444
 20
38.182463
 30
0.0
 10
30.409444
 20
38.416179
 30
0.0
 10
30.859236
 20
38.416179
 30
0.0
 10
31.309028
 20
38.416179
 30
0.0
 10
31.309028
 20
38.716040
 30
0.0
 10
31.309028
 20
39.015901
 30
0.0
 10
30.413856
 20
39.015901
 30
0.0
 10
29.518681
 20
39.015901
 30
0.0
 10
29.518681
 20
39.434825
 30
0.0
 10
29.518681
 20
39.853749
 30
0.0
 10
30.277153
 20
39.853749
 30
0.0
 10
31.035625
 20
39.853749
 30
0.0
 10
31.035625
 20
40.158019
 30
0.0
 10
31.035625
 20
40.462290
 30
0.0
 10
30.277153
 20
40.462290
 30
0.0
 10
29.518681
 20
40.462290
 30
0.0
 10
29.518681
 20
40.823888
 30
0.0
 10
29.518681
 20
41.185485
 30
0.0
 10
30.418264
 20
41.185485
 30
0.0
 10
31.317847
 20
41.185485
 30
0.0
 10
31.317847
 20
41.489756
 30
0.0
 10
31.317847
 20
41.794026
 30
0.0
 10
30.881283
 20
41.794026
 30
0.0
 10
30.444722
 20
41.794026
 30
0.0
 10
30.444722
 20
42.018922
 30
0.0
 10
30.444722
 20
42.243818
 30
0.0
  0
LWPOLYLINE
  5
104
100
AcDbEntity
  8
Layer_1
 62
7
100
AcDbPolyline
 90
59
 70
1
 10
33.549167
 20
42.243818
 30
0.0
 10
34.955869
 20
42.243818
 30
0.0
 10
36.362569
 20
42.243818
 30
0.0
 10
36.362569
 20
42.018922
 30
0.0
 10
36.362569
 20
41.794026
 30
0.0
 10
35.842222
 20
41.794026
 30
0.0
 10
35.321875
 20
41.794026
 30
0.0
 10
35.321875
 20
40.105103
 30
0.0
 10
35.321875
 20
38.416179
 30
0.0
 10
35.842222
 20
38.416179
 30
0.0
 10
36.362569
 20
38.416179
 30
0.0
 10
36.362569
 20
38.182463
 30
0.0
 10
36.362569
 20
37.948749
 30
0.0
 10
35.048472
 20
37.948749
 30
0.0
 10
33.734375
 20
37.948749
 30
0.0
 10
33.734375
 20
38.169235
 30
0.0
 10
33.734375
 20
38.389721
 30
0.0
 10
33.982307
 20
38.444320
 30
0.0
 10
34.201806
 20
38.522013
 30
0.0
 10
34.532962
 20
38.686218
 30
0.0
 10
34.775069
 20
38.874790
 30
0.0
 10
34.775069
 20
39.509790
 30
0.0
 10
34.775069
 20
40.144790
 30
0.0
 10
34.016597
 20
40.144790
 30
0.0
 10
33.258125
 20
40.144790
 30
0.0
 10
33.258125
 20
39.884617
 30
0.0
 10
33.258125
 20
39.624443
 30
0.0
 10
33.562397
 20
39.624443
 30
0.0
 10
33.866667
 20
39.624443
 30
0.0
 10
33.866667
 20
39.359860
 30
0.0
 10
33.866667
 20
39.095276
 30
0.0
 10
33.771044
 20
39.040973
 30
0.0
 10
33.646181
 20
38.998263
 30
0.0
 10
33.478735
 20
38.971920
 30
0.0
 10
33.258125
 20
38.962985
 30
0.0
 10
32.955659
 20
39.019852
 30
0.0
 10
32.728958
 20
39.183471
 30
0.0
 10
32.589168
 20
39.431460
 30
0.0
 10
32.543750
 20
39.747915
 30
0.0
 10
32.543750
 20
40.105103
 30
0.0
 10
32.543750
 20
40.462290
 30
0.0
 10
32.588502
 20
40.772012
 30
0.0
 10
32.728958
 20
41.017915
 30
0.0
 10
32.954152
 20
41.182692
 30
0.0
 10
33.240486
 20
41.238401
 30
0.0
 10
33.510333
 20
41.201496
 30
0.0
 10
33.699097
 20
41.097290
 30
0.0
 10
33.827762
 20
40.931919
 30
0.0
 10
33.901944
 20
40.700415
 30
0.0
 10
34.325278
 20
40.700415
 30
0.0
 10
34.748611
 20
40.700415
 30
0.0
 10
34.748611
 20
40.709235
 30
0.0
 10
34.748611
 20
40.718054
 30
0.0
 10
34.617355
 20
41.183265
 30
0.0
 10
34.325278
 20
41.538263
 30
0.0
 10
33.990813
 20
41.722503
 30
0.0
 10
33.549167
 20
41.820485
 30
0.0
 10
33.549167
 20
42.032151
 30
0.0
 10
33.549167
 20
42.243818
 30
0.0
  0
LWPOLYLINE
  5
105
100
AcDbEntity
  8
Layer_1
 62
7
100
AcDbPolyline
 90
41
 70
1
 10
37.191597
 20
42.243818
 30
0.0
 10
37.817778
 20
42.243818
 30
0.0
 10
38.443958
 20
42.243818
 30
0.0
 10
38.443958
 20
42.018922
 30
0.0
 10
38.443958
 20
41.794026
 30
0.0
 10
38.430722
 20
41.794026
 30
0.0
 10
38.417486
 20
41.794026
 30
0.0
 10
38.417486
 20
40.105103
 30
0.0
 10
38.417486
 20
38.416179
 30
0.0
 10
38.920194
 20
38.416179
 30
0.0
 10
39.422903
 20
38.416179
 30
0.0
 10
39.422903
 20
38.182463
 30
0.0
 10
39.422903
 20
37.948749
 30
0.0
 10
38.307244
 20
37.948749
 30
0.0
 10
37.191583
 20
37.948749
 30
0.0
 10
37.191583
 20
38.182463
 30
0.0
 10
37.191583
 20
38.416179
 30
0.0
 10
37.601689
 20
38.416179
 30
0.0
 10
38.011791
 20
38.416179
 30
0.0
 10
38.011791
 20
38.716040
 30
0.0
 10
38.011791
 20
39.015901
 30
0.0
 10
37.116619
 20
39.015901
 30
0.0
 10
36.221444
 20
39.015901
 30
0.0
 10
36.221444
 20
39.434825
 30
0.0
 10
36.221444
 20
39.853749
 30
0.0
 10
36.979916
 20
39.853749
 30
0.0
 10
37.738389
 20
39.853749
 30
0.0
 10
37.738389
 20
40.158019
 30
0.0
 10
37.738389
 20
40.462290
 30
0.0
 10
36.979916
 20
40.462290
 30
0.0
 10
36.221444
 20
40.462290
 30
0.0
 10
36.221444
 20
40.823888
 30
0.0
 10
36.221444
 20
41.185485
 30
0.0
 10
37.116619
 20
41.185485
 30
0.0
 10
38.011791
 20
41.185485
 30
0.0
 10
38.011791
 20
41.489756
 30
0.0
 10
38.011791
 20
41.794026
 30
0.0
 10
37.601689
 20
41.794026
 30
0.0
 10
37.191583
 20
41.794026
 30
0.0
 10
37.191583
 20
42.018922
 30
0.0
 10
37.191597
 20
42.243818
 30
0.0
  0
LWPOLYLINE
  5
106
100
AcDbEntity
  8
Layer_1
 62
7
100
AcDbPolyline
 90
21
 70
1
 10
39.272986
 20
42.243818
 30
0.0
 10
40.613542
 20
42.243818
 30
0.0
 10
41.954097
 20
42.243818
 30
0.0
 10
41.954097
 20
40.096283
 30
0.0
 10
41.954097
 20
37.948749
 30
0.0
 10
41.103022
 20
37.948749
 30
0.0
 10
40.251944
 20
37.948749
 30
0.0
 10
40.251944
 20
38.182463
 30
0.0
 10
40.251944
 20
38.416179
 30
0.0
 10
40.617953
 20
38.416179
 30
0.0
 10
40.983958
 20
38.416179
 30
0.0
 10
40.983958
 20
38.716040
 30
0.0
 10
40.983958
 20
39.015901
 30
0.0
 10
40.150522
 20
39.015901
 30
0.0
 10
39.317083
 20
39.015901
 30
0.0
 10
39.317083
 20
40.404964
 30
0.0
 10
39.317083
 20
41.794026
 30
0.0
 10
39.295042
 20
41.794026
 30
0.0
 10
39.273000
 20
41.794026
 30
0.0
 10
39.273000
 20
42.018922
 30
0.0
 10
39.272986
 20
42.243818
 30
0.0
  0
LWPOLYLINE
  5
107
100
AcDbEntity
  8
Layer_1
 62
7
100
AcDbPolyline
 90
15
 70
1
 10
25.929167
 20
41.185485
 30
0.0
 10
26.220208
 20
41.185485
 30
0.0
 10
26.511250
 20
41.185485
 30
0.0
 10
26.749077
 20
41.155658
 30
0.0
 10
26.925764
 20
41.062013
 30
0.0
 10
27.037945
 20
40.914753
 30
0.0
 10
27.075694
 20
40.726874
 30
0.0
 10
27.041025
 20
40.549336
 30
0.0
 10
26.934583
 20
40.418193
 30
0.0
 10
26.759225
 20
40.338588
 30
0.0
 10
26.520069
 20
40.312359
 30
0.0
 10
26.224618
 20
40.312359
 30
0.0
 10
25.929167
 20
40.312359
 30
0.0
 10
25.929167
 20
40.748921
 30
0.0
 10
25.929167
 20
41.185485
 30
0.0
  0
LWPOLYLINE
  5
108
100
AcDbEntity
  8
Layer_1
 62
7
100
AcDbPolyline
 90
23
 70
1
 10
25.929167
 20
39.703818
 30
0.0
 10
26.237847
 20
39.703818
 30
0.0
 10
26.546528
 20
39.703818
 30
0.0
 10
26.792087
 20
39.673991
 30
0.0
 10
26.969861
 20
39.580346
 30
0.0
 10
27.081377
 20
39.423565
 30
0.0
 10
27.119792
 20
39.209929
 30
0.0
 10
27.119792
 20
39.108506
 30
0.0
 10
27.119792
 20
39.007082
 30
0.0
 10
27.129455
 20
38.842064
 30
0.0
 10
27.155069
 20
38.663124
 30
0.0
 10
27.207679
 20
38.511807
 30
0.0
 10
27.296181
 20
38.416179
 30
0.0
 10
27.296181
 20
38.182463
 30
0.0
 10
27.296181
 20
37.948749
 30
0.0
 10
26.586215
 20
37.948749
 30
0.0
 10
25.876250
 20
37.948749
 30
0.0
 10
25.876250
 20
38.182463
 30
0.0
 10
25.876250
 20
38.416179
 30
0.0
 10
25.902708
 20
38.416179
 30
0.0
 10
25.929167
 20
38.416179
 30
0.0
 10
25.929167
 20
39.059999
 30
0.0
 10
25.929167
 20
39.703818
 30
0.0
  0
ENDSEC
  0
SECTION
  2
OBJECTS
  0
DICTIONARY
  5
C
330
0
100
AcDbDictionary
  3
ACAD_GROUP
350
D
  3
ACAD_MLINESTYLE
350
17
  0
DICTIONARY
  5
D
330
C
100
AcDbDictionary
  0
DICTIONARY
  5
1A
330
C
100
AcDbDictionary
  0
DICTIONARY
  5
17
330
C
100
AcDbDictionary
  3
STANDARD
350
18
  0
DICTIONARY
  5
19
330
C
100
AcDbDictionary
  0
ENDSEC
  0
EOF
