<?xml version="1.0" encoding="UTF-8" standalone="no"?>
<!-- Created with Inkscape (http://www.inkscape.org/) -->

<svg
   xmlns:dc="http://purl.org/dc/elements/1.1/"
   xmlns:cc="http://creativecommons.org/ns#"
   xmlns:rdf="http://www.w3.org/1999/02/22-rdf-syntax-ns#"
   xmlns:svg="http://www.w3.org/2000/svg"
   xmlns="http://www.w3.org/2000/svg"
   xmlns:sodipodi="http://sodipodi.sourceforge.net/DTD/sodipodi-0.dtd"
   xmlns:inkscape="http://www.inkscape.org/namespaces/inkscape"
   sodipodi:docname="sewing-table.svg"
   inkscape:version="0.48.4 r9939"
   version="1.1"
   id="svg2"
   height="237.40157"
   width="237.40157">
  <sodipodi:namedview
     id="base"
     pagecolor="#ffffff"
     bordercolor="#666666"
     borderopacity="1.0"
     inkscape:pageopacity="0.0"
     inkscape:pageshadow="2"
     inkscape:zoom="1.5132085"
     inkscape:cx="-27.111033"
     inkscape:cy="100.438"
     inkscape:document-units="mm"
     inkscape:current-layer="layer1"
     showgrid="false"
     inkscape:window-width="1920"
     inkscape:window-height="1025"
     inkscape:window-x="-7"
     inkscape:window-y="-12"
     inkscape:window-maximized="1"
     showguides="true"
     inkscape:guide-bbox="true"
     inkscape:snap-grids="false"
     inkscape:snap-object-midpoints="true"
     inkscape:snap-nodes="true"
     inkscape:object-paths="true"
     inkscape:snap-center="false"
     inkscape:snap-global="false"
     units="mm" />
  <defs
     id="defs4">
    <inkscape:perspective
       sodipodi:type="inkscape:persp3d"
       inkscape:vp_x="1620.9545 : 935.85852 : 0"
       inkscape:vp_y="-3.0024826e-13 : -1634.4754 : 0"
       inkscape:vp_z="-1371.1167 : 791.6146 : 0"
       inkscape:persp3d-origin="129.91573 : -167.59512 : 1"
       id="perspective7379" />
    <inkscape:path-effect
       is_visible="true"
       id="path-effect3105"
       effect="spiro" />
  </defs>
  <metadata
     id="metadata7">
    <rdf:RDF>
      <cc:Work
         rdf:about="">
        <dc:format>image/svg+xml</dc:format>
        <dc:type
           rdf:resource="http://purl.org/dc/dcmitype/StillImage" />
        <dc:title />
      </cc:Work>
    </rdf:RDF>
  </metadata>
  <g
     id="layer1"
     inkscape:groupmode="layer"
     inkscape:label="Layer 1"
     transform="translate(0,-814.9606)">
    <g
       id="g7213">
      <path
         sodipodi:type="arc"
         style="fill:none;stroke:#000000;stroke-width:22.82074984;stroke-linecap:butt;stroke-linejoin:miter;stroke-miterlimit:4;stroke-opacity:0.94117647000000004;stroke-dasharray:none"
         id="path3928"
         sodipodi:cx="465.98337"
         sodipodi:cy="266.28964"
         sodipodi:rx="161.92746"
         sodipodi:ry="161.92746"
         d="m 627.91083,266.28964 a 161.92746,161.92746 0 1 1 -323.85492,0 161.92746,161.92746 0 1 1 323.85492,0 z"
         transform="matrix(0.18632028,0,0,0.18632028,-218.07218,1146.4134)" />
      <path
         inkscape:connector-curvature="0"
         style="fill:none;stroke:#000000;stroke-width:4.2519685;stroke-linecap:butt;stroke-linejoin:miter;stroke-miterlimit:4;stroke-opacity:1;stroke-dasharray:none"
         d="m -160.83212,1201.78 c 0.83217,3.1394 15.86699,-3.3442 18.26017,0.801 2.39319,4.1451 -10.73925,13.9237 -8.43651,16.2142"
         id="path3981" />
      <path
         inkscape:connector-curvature="0"
         style="fill:none;stroke:#000000;stroke-width:4.2519685;stroke-linecap:butt;stroke-linejoin:miter;stroke-miterlimit:4;stroke-opacity:1;stroke-dasharray:none"
         d="m -111.43748,1218.7952 c 2.30274,-2.2905 -10.82969,-12.0691 -8.4365,-16.2142 2.39317,-4.1452 17.42799,2.3384 18.26015,-0.801"
         id="path3977" />
      <path
         inkscape:connector-curvature="0"
         style="fill:none;stroke:#000000;stroke-width:4.2519685;stroke-linecap:butt;stroke-linejoin:miter;stroke-miterlimit:4;stroke-opacity:1;stroke-dasharray:none"
         d="m -121.39931,1167.5106 c -3.13492,-0.8492 -5.03731,15.4133 -9.82367,15.4133 -4.78636,0 -6.68873,-16.2625 -9.82365,-15.4133"
         id="path3973" />
      <path
         style="fill:none;stroke:#000000;stroke-width:4.2519685;stroke-linecap:butt;stroke-linejoin:miter;stroke-miterlimit:4;stroke-opacity:1;stroke-dasharray:none"
         d="m -131.25003,1192.954 0,-9.9647"
         id="path3998"
         inkscape:connector-curvature="0"
         sodipodi:nodetypes="cc"
         inkscape:transform-center-y="-8.056947" />
      <path
         transform="matrix(0.0189871,0,0,0.0189871,-140.09768,1190.9726)"
         d="m 627.91083,266.28964 a 161.92746,161.92746 0 1 1 -323.85492,0 161.92746,161.92746 0 1 1 323.85492,0 z"
         sodipodi:ry="161.92746"
         sodipodi:rx="161.92746"
         sodipodi:cy="266.28964"
         sodipodi:cx="465.98337"
         id="path3932"
         style="fill:none;stroke:#000000;stroke-width:223.93985917;stroke-linecap:butt;stroke-linejoin:miter;stroke-miterlimit:4;stroke-opacity:0.94117647000000004;stroke-dasharray:none"
         sodipodi:type="arc" />
      <path
         inkscape:transform-center-y="4.028503"
         sodipodi:nodetypes="cc"
         inkscape:connector-curvature="0"
         id="path4003"
         d="m -128.58741,1197.5659 8.6298,4.9824"
         style="fill:none;stroke:#000000;stroke-width:4.2519685;stroke-linecap:butt;stroke-linejoin:miter;stroke-miterlimit:4;stroke-opacity:1;stroke-dasharray:none"
         inkscape:transform-center-x="-6.977521" />
      <path
         inkscape:transform-center-x="6.9775149"
         style="fill:none;stroke:#000000;stroke-width:4.2519685;stroke-linecap:butt;stroke-linejoin:miter;stroke-miterlimit:4;stroke-opacity:1;stroke-dasharray:none"
         d="m -133.91265,1197.5659 -8.62978,4.9824"
         id="path4005"
         inkscape:connector-curvature="0"
         sodipodi:nodetypes="cc"
         inkscape:transform-center-y="4.028503" />
    </g>
    <g
       id="g7120"
       transform="translate(1137.1908,325.3909)">
      <path
         inkscape:transform-center-y="-28.228034"
         style="fill:none;stroke:#00ffff;stroke-width:4;stroke-linecap:butt;stroke-linejoin:miter;stroke-opacity:1"
         d="m -1513.0726,174.49771 c 0,0 10.2032,-52.69232 31.0937,-52.69232 20.8906,0 10.2033,52.69232 31.0938,52.69232 20.8906,0 10.2032,-52.69232 31.0937,-52.69232 20.8906,0 10.2033,52.69232 31.0938,52.69232 20.8906,0 10.2033,-52.69232 31.0938,-52.69232 20.8906,0 10.2005,52.69232 31.0905,52.69232 20.8899,0 10.1999,-52.69232 31.0905,-52.69232 20.8905,0 10.2032,52.69232 31.0937,52.69232 20.8906,0 10.2033,-52.69232 31.0938,-52.69232 20.8906,0 10.2032,52.69232 31.0938,52.69232 20.8905,0 10.2032,-52.69232 31.0937,-52.69232 20.8906,0 10.1275,52.69232 31.003,52.69232 20.8755,0 10.1123,-52.69232 31.0029,-52.69232 20.8905,0 10.2032,52.69232 31.0938,52.69232 20.8905,0 10.2032,-52.69232 31.0936,-52.69232 20.8906,0 10.2033,52.69232 31.0938,52.69232 20.89058,0 10.2033,-52.69232 31.09381,-52.69232 20.89055,0 10.20051,52.69232 31.09047,52.69232 20.88997,0 10.19993,-52.69232 31.09048,-52.69232 20.89055,0 10.20323,52.69232 31.09378,52.69232 20.89055,0 10.20322,-52.69232 31.09377,-52.69232 20.89055,0 10.20323,52.69232 31.09378,52.69232 20.89054,0 10.20322,-52.69232 31.09377,-52.69232 20.89055,0 31.09378,52.69232 31.09378,52.69232"
         id="path6984"
         inkscape:connector-curvature="0"
         sodipodi:nodetypes="czzzzzzzzzzzzzzzzzzzzzzzc" />
      <path
         sodipodi:nodetypes="czzzzzzzzzzzzzzzzzzzzzzzc"
         inkscape:connector-curvature="0"
         id="path6986"
         d="m -1513.0726,174.26941 c 0,0 10.2032,52.69232 31.0937,52.69232 20.8906,0 10.2033,-52.69232 31.0938,-52.69232 20.8906,0 10.2032,52.69232 31.0937,52.69232 20.8906,0 10.2033,-52.69232 31.0938,-52.69232 20.8906,0 10.2033,52.69232 31.0938,52.69232 20.8906,0 10.2005,-52.69232 31.0905,-52.69232 20.8899,0 10.1999,52.69232 31.0905,52.69232 20.8905,0 10.2032,-52.69232 31.0937,-52.69232 20.8906,0 10.2033,52.69232 31.0938,52.69232 20.8906,0 10.2032,-52.69232 31.0938,-52.69232 20.8905,0 10.2032,52.69232 31.0937,52.69232 20.8906,0 10.1275,-52.69232 31.003,-52.69232 20.8755,0 10.1123,52.69232 31.0029,52.69232 20.8905,0 10.2032,-52.69232 31.0938,-52.69232 20.8905,0 10.2032,52.69232 31.0936,52.69232 20.8906,0 10.2033,-52.69232 31.0938,-52.69232 20.89058,0 10.2033,52.69232 31.09381,52.69232 20.89055,0 10.20051,-52.69232 31.09047,-52.69232 20.88997,0 10.19993,52.69232 31.09048,52.69232 20.89055,0 10.20323,-52.69232 31.09378,-52.69232 20.89055,0 10.20322,52.69232 31.09377,52.69232 20.89055,0 10.20323,-52.69232 31.09378,-52.69232 20.89054,0 10.20322,52.69232 31.09377,52.69232 20.89055,0 31.09378,-52.69232 31.09378,-52.69232"
         style="fill:none;stroke:#00ffff;stroke-width:4;stroke-linecap:butt;stroke-linejoin:miter;stroke-opacity:1" />
      <path
         inkscape:transform-center-y="-28.228029"
         style="fill:none;stroke:#00ffff;stroke-width:4;stroke-linecap:butt;stroke-linejoin:miter;stroke-opacity:1"
         d="m -1513.0726,279.6216 c 0,0 10.2032,-52.69232 31.0937,-52.69232 20.8906,0 10.2033,52.69232 31.0938,52.69232 20.8906,0 10.2032,-52.69232 31.0937,-52.69232 20.8906,0 10.2033,52.69232 31.0938,52.69232 20.8906,0 10.2033,-52.69232 31.0938,-52.69232 20.8906,0 10.2005,52.69232 31.0905,52.69232 20.8899,0 10.1999,-52.69232 31.0905,-52.69232 20.8905,0 10.2032,52.69232 31.0937,52.69232 20.8906,0 10.2033,-52.69232 31.0938,-52.69232 20.8906,0 10.2032,52.69232 31.0938,52.69232 20.8905,0 10.2032,-52.69232 31.0937,-52.69232 20.8906,0 10.1275,52.69232 31.003,52.69232 20.8755,0 10.1123,-52.69232 31.0029,-52.69232 20.8905,0 10.2032,52.69232 31.0938,52.69232 20.8905,0 10.2032,-52.69232 31.0936,-52.69232 20.8906,0 10.2033,52.69232 31.0938,52.69232 20.89058,0 10.2033,-52.69232 31.09381,-52.69232 20.89055,0 10.20051,52.69232 31.09047,52.69232 20.88997,0 10.19993,-52.69232 31.09048,-52.69232 20.89055,0 10.20323,52.69232 31.09378,52.69232 20.89055,0 10.20322,-52.69232 31.09377,-52.69232 20.89055,0 10.20323,52.69232 31.09378,52.69232 20.89054,0 10.20322,-52.69232 31.09377,-52.69232 20.89055,0 31.09378,52.69232 31.09378,52.69232"
         id="path6988"
         inkscape:connector-curvature="0"
         sodipodi:nodetypes="czzzzzzzzzzzzzzzzzzzzzzzc" />
      <path
         sodipodi:nodetypes="czzzzzzzzzzzzzzzzzzzzzzzc"
         inkscape:connector-curvature="0"
         id="path6990"
         d="m -1513.0726,279.39329 c 0,0 10.2032,52.69233 31.0937,52.69233 20.8906,0 10.2033,-52.69233 31.0938,-52.69233 20.8906,0 10.2032,52.69233 31.0937,52.69233 20.8906,0 10.2033,-52.69233 31.0938,-52.69233 20.8906,0 10.2033,52.69233 31.0938,52.69233 20.8906,0 10.2005,-52.69233 31.0905,-52.69233 20.8899,0 10.1999,52.69233 31.0905,52.69233 20.8905,0 10.2032,-52.69233 31.0937,-52.69233 20.8906,0 10.2033,52.69233 31.0938,52.69233 20.8906,0 10.2032,-52.69233 31.0938,-52.69233 20.8905,0 10.2032,52.69233 31.0937,52.69233 20.8906,0 10.1275,-52.69233 31.003,-52.69233 20.8755,0 10.1123,52.69233 31.0029,52.69233 20.8905,0 10.2032,-52.69233 31.0938,-52.69233 20.8905,0 10.2032,52.69233 31.0936,52.69233 20.8906,0 10.2033,-52.69233 31.0938,-52.69233 20.89058,0 10.2033,52.69233 31.09381,52.69233 20.89055,0 10.20051,-52.69233 31.09047,-52.69233 20.88997,0 10.19993,52.69233 31.09048,52.69233 20.89055,0 10.20323,-52.69233 31.09378,-52.69233 20.89055,0 10.20322,52.69233 31.09377,52.69233 20.89055,0 10.20323,-52.69233 31.09378,-52.69233 20.89054,0 10.20322,52.69233 31.09377,52.69233 20.89055,0 31.09378,-52.69233 31.09378,-52.69233"
         style="fill:none;stroke:#00ffff;stroke-width:4;stroke-linecap:butt;stroke-linejoin:miter;stroke-opacity:1" />
      <path
         sodipodi:nodetypes="czzzzzzzzzzzzzzzzzzzzzzzc"
         inkscape:connector-curvature="0"
         id="path6992"
         d="m -1513.0726,384.74549 c 0,0 10.2032,-52.69233 31.0937,-52.69233 20.8906,0 10.2033,52.69233 31.0938,52.69233 20.8906,0 10.2032,-52.69233 31.0937,-52.69233 20.8906,0 10.2033,52.69233 31.0938,52.69233 20.8906,0 10.2033,-52.69233 31.0938,-52.69233 20.8906,0 10.2005,52.69233 31.0905,52.69233 20.8899,0 10.1999,-52.69233 31.0905,-52.69233 20.8905,0 10.2032,52.69233 31.0937,52.69233 20.8906,0 10.2033,-52.69233 31.0938,-52.69233 20.8906,0 10.2032,52.69233 31.0938,52.69233 20.8905,0 10.2032,-52.69233 31.0937,-52.69233 20.8906,0 10.1275,52.69233 31.003,52.69233 20.8755,0 10.1123,-52.69233 31.0029,-52.69233 20.8905,0 10.2032,52.69233 31.0938,52.69233 20.8905,0 10.2032,-52.69233 31.0936,-52.69233 20.8906,0 10.2033,52.69233 31.0938,52.69233 20.89058,0 10.2033,-52.69233 31.09381,-52.69233 20.89055,0 10.20051,52.69233 31.09047,52.69233 20.88997,0 10.19993,-52.69233 31.09048,-52.69233 20.89055,0 10.20323,52.69233 31.09378,52.69233 20.89055,0 10.20322,-52.69233 31.09377,-52.69233 20.89055,0 10.20323,52.69233 31.09378,52.69233 20.89054,0 10.20322,-52.69233 31.09377,-52.69233 20.89055,0 31.09378,52.69233 31.09378,52.69233"
         style="fill:none;stroke:#00ffff;stroke-width:4;stroke-linecap:butt;stroke-linejoin:miter;stroke-opacity:1"
         inkscape:transform-center-y="-28.22803" />
      <path
         style="fill:none;stroke:#00ffff;stroke-width:4;stroke-linecap:butt;stroke-linejoin:miter;stroke-opacity:1"
         d="m -1513.0726,384.51718 c 0,0 10.2032,52.69232 31.0937,52.69232 20.8906,0 10.2033,-52.69232 31.0938,-52.69232 20.8906,0 10.2032,52.69232 31.0937,52.69232 20.8906,0 10.2033,-52.69232 31.0938,-52.69232 20.8906,0 10.2033,52.69232 31.0938,52.69232 20.8906,0 10.2005,-52.69232 31.0905,-52.69232 20.8899,0 10.1999,52.69232 31.0905,52.69232 20.8905,0 10.2032,-52.69232 31.0937,-52.69232 20.8906,0 10.2033,52.69232 31.0938,52.69232 20.8906,0 10.2032,-52.69232 31.0938,-52.69232 20.8905,0 10.2032,52.69232 31.0937,52.69232 20.8906,0 10.1275,-52.69232 31.003,-52.69232 20.8755,0 10.1123,52.69232 31.0029,52.69232 20.8905,0 10.2032,-52.69232 31.0938,-52.69232 20.8905,0 10.2032,52.69232 31.0936,52.69232 20.8906,0 10.2033,-52.69232 31.0938,-52.69232 20.89058,0 10.2033,52.69232 31.09381,52.69232 20.89055,0 10.20051,-52.69232 31.09047,-52.69232 20.88997,0 10.19993,52.69232 31.09048,52.69232 20.89055,0 10.20323,-52.69232 31.09378,-52.69232 20.89055,0 10.20322,52.69232 31.09377,52.69232 20.89055,0 10.20323,-52.69232 31.09378,-52.69232 20.89054,0 10.20322,52.69232 31.09377,52.69232 20.89055,0 31.09378,-52.69232 31.09378,-52.69232"
         id="path6994"
         inkscape:connector-curvature="0"
         sodipodi:nodetypes="czzzzzzzzzzzzzzzzzzzzzzzc" />
    </g>
    <g
       id="g7209">
      <rect
         ry="0"
         y="-1136.6101"
         x="85.205307"
         height="58.14859"
         width="84.420067"
         id="rect6996"
         style="fill:none;stroke:#000000;stroke-width:4.2519685;stroke-linecap:butt;stroke-linejoin:miter;stroke-miterlimit:4;stroke-opacity:0.94117647000000004;stroke-dasharray:none"
         transform="scale(-1,-1)" />
      <path
         sodipodi:nodetypes="cscccccccccccsccccccccccsccccccccccsccccccccccsccccccccccsccccccccccscccccccccccscccccccsccccccsccccccccccccsccccccsccccccccccccccccccccccccccccccccccccccccccccccccccccccccccccccccccccccccccccccccccccccccccccccccccccccsccccccsccccccccccccsccccccsccccccccccccsccccccccccccsccccccccccccsccccccccccccsccccccccccccsccccccccccccsccccccccsccccccccccccsccccsccccccccccccccccsccccccccccccsccccccccccccsccccccccccccsccccccccccccsccccccccsccccccccccccsccccccccccccsccccccccccccsccccccccccccsccccccccccccsccccccccccccccccccccsccccccccccccsccccccccccccsccccccccccccscccccccccc"
         inkscape:connector-curvature="0"
         id="rect4191"
         d="m -162.25993,1088.2373 c -3.32331,-0.6588 -1.62717,-9.6924 -5.34552,-9.6924 -0.99775,0 -1.60092,0.6515 -2.02045,1.6164 l 0,8.076 m 7.36597,0 c 0.0327,0.011 0.0643,0.013 0.0981,0.017 0.0957,-0.014 0.19627,-0.017 0.30018,-0.017 z m 0.39833,0 c 0.10391,0 0.20449,0 0.30018,0.017 0.0332,0 0.0659,-0.012 0.0982,-0.017 z m 11.08936,0 c -3.32592,-0.656 -1.62648,-9.6924 -5.34552,-9.6924 -3.71903,0 -2.01974,9.0364 -5.34552,9.6924 m 10.69104,0 c 0.0322,0.011 0.065,0.013 0.0982,0.017 0.0957,-0.014 0.19628,-0.017 0.30018,-0.017 z m 0.39832,0 c 0.10392,0 0.2045,0 0.30018,0.017 0.0332,0 0.066,-0.012 0.0981,-0.017 z m 11.08937,0 c -3.32591,-0.656 -1.62649,-9.6924 -5.34552,-9.6924 -3.71903,0 -2.01962,9.0364 -5.34552,9.6924 m 10.69104,0 c 0.0322,0.011 0.065,0.013 0.0982,0.017 0.0957,-0.014 0.19628,-0.017 0.30018,-0.017 z m 0.39832,0 c 0.10391,0 0.20449,0 0.30018,0.017 0.0332,0 0.066,-0.012 0.0982,-0.017 z m 11.07204,0 c -3.31999,-0.6588 -1.60984,-9.6924 -5.32819,-9.6924 -3.71903,0 -2.01962,9.0364 -5.34553,9.6924 m 10.67372,0 c 0.0341,0.011 0.0688,0.013 0.10392,0.017 0.0944,-0.014 0.192,-0.017 0.29442,-0.017 z m 0.39833,0 c 0.1038,0 0.20458,0 0.30018,0.017 0.0331,0 0.066,-0.012 0.0981,-0.017 z m 11.07205,0 c -3.32345,-0.6588 -1.62718,-9.6924 -5.34552,-9.6924 -3.71903,0 -2.00572,9.0364 -5.32822,9.6924 m 10.67374,0 c 0.0341,0.011 0.0688,0.013 0.10391,0.017 0.0945,-0.014 0.19192,-0.017 0.2944,-0.017 z m 0.39831,0 c 0.10392,0 0.2045,0 0.30018,0.017 0.0332,0 0.066,-0.012 0.0982,-0.017 z m 11.08938,0 c -3.32345,-0.6588 -1.62718,-9.6924 -5.34552,-9.6924 -3.71901,0 -2.01963,9.0364 -5.34553,9.6924 m 10.69105,0 c 0.0341,0.011 0.0687,0.013 0.1039,0.017 0.0945,-0.014 0.19192,-0.017 0.2944,-0.017 z m 0.39831,0 c 0.10393,0 0.20449,0 0.30018,0.017 0.0331,0 0.066,-0.012 0.0981,-0.017 z m 11.089379,0 c -3.32333,-0.6588 -1.62718,-9.6924 -5.34552,-9.6924 -3.719029,0 -2.019629,9.0364 -5.345539,9.6924 m 10.691059,0 c 0.0328,0.011 0.0644,0.013 0.0981,0.017 0.0957,-0.014 0.19628,-0.017 0.30018,-0.017 z m 0.39831,0 c 0.10393,0 0.20449,0 0.30018,0.017 0.0331,0 0.066,-0.012 0.0981,-0.017 z m 7.76429,0 0,-8.076 c -0.4195,-0.9649 -1.02271,-1.6164 -2.02044,-1.6164 -3.71902,0 -2.01975,9.0364 -5.34553,9.6924 m -0.0981,0.017 c -0.0957,0.014 -0.19619,0.023 -0.30018,0.023 l 0.42718,0 c -0.0415,-0.011 -0.0839,-0.017 -0.127,-0.023 z m 0.127,0.023 c 3.27007,0.6985 1.6262,9.5931 5.25895,9.6866 0.0191,-5e-4 0.0383,0 0.0577,0 0.0194,0 0.0386,-5e-4 0.0577,0 0.96219,-0.025 1.55146,-0.6664 1.96272,-1.6106 l 0,-8.076 m 0,19.3733 0,-8.0703 c -0.41133,-0.946 -0.99922,-1.5916 -1.96272,-1.6164 -0.0192,6e-4 -0.0382,0 -0.0577,0 -0.0195,0 -0.0385,0 -0.0577,0 -3.63301,0.093 -1.98883,8.9881 -5.25895,9.6867 m 0,0 -0.42718,0 c 0.10393,0 0.20449,0.011 0.30018,0.023 0.0431,-0.012 0.0856,-0.014 0.127,-0.023 z m -0.127,0.023 c -0.0957,0.014 -0.19619,0.023 -0.30018,0.023 l 0.42718,0 c -0.0415,-0.011 -0.0839,-0.017 -0.127,-0.023 z m 0.127,0.023 c 3.27007,0.6985 1.6262,9.5931 5.25895,9.6866 0.0191,-6e-4 0.0383,0 0.0577,0 0.0194,0 0.0386,-6e-4 0.0577,0 0.96219,-0.024 1.55146,-0.6665 1.96272,-1.6106 l 0,-8.076 m 0,19.3732 0,-8.0702 c -0.41133,-0.9461 -0.99922,-1.5917 -1.96272,-1.6164 -0.0192,6e-4 -0.0382,0.012 -0.0577,0.012 -0.0195,0 -0.0385,0 -0.0577,-0.012 -3.63301,0.093 -1.98883,8.9881 -5.25895,9.6866 m 0,0 -0.42718,0 c 0.10393,0 0.20449,0.012 0.30018,0.023 0.0431,-0.011 0.0856,-0.014 0.127,-0.023 z m -0.127,0.023 c -0.0957,0.014 -0.19619,0.023 -0.30018,0.023 l 0.42718,0 c -0.0415,-0.012 -0.0839,-0.017 -0.127,-0.023 z m 0.127,0.023 c 3.00226,0.6414 1.86356,8.1911 4.46807,9.4962 l 1.69718,0 c 0.52,-0.2606 0.88757,-0.772 1.17186,-1.4259 l 0,-8.0703 m -7.76429,0 c -0.10399,0 -0.20444,-0.012 -0.30018,-0.023 -0.0421,0.012 -0.0806,0.015 -0.12123,0.023 z m -11.060509,0 c 3.00239,0.6414 1.86348,8.1911 4.468069,9.4962 l 1.69718,0 c 2.60534,-1.3055 1.46804,-8.8589 4.47385,-9.4962 m -10.639099,0 c -0.0415,-0.012 -0.0839,-0.017 -0.127,-0.023 -0.0957,0.014 -0.19618,0.023 -0.30018,0.023 z m -0.42718,0 c -0.10253,0 -0.19986,-0.012 -0.2944,-0.023 -0.0435,0.012 -0.0852,0.014 -0.12701,0.023 z m -11.06051,0 c 3.0024,0.6414 1.8635,8.1911 4.46807,9.4962 l 1.69718,0 c 2.60543,-1.3055 1.46792,-8.8589 4.47385,-9.4962 m -10.6391,0 c -0.0415,-0.012 -0.084,-0.017 -0.127,-0.023 -0.0957,0.014 -0.19617,0.023 -0.30018,0.023 z m -0.42718,0 c -0.10257,0 -0.19986,-0.012 -0.2944,-0.023 -0.0436,0.012 -0.0852,0.014 -0.127,0.023 z m -11.04319,0 c 2.99922,0.6414 1.84807,8.1911 4.45077,9.4962 l 1.69717,0 c 2.60542,-1.3055 1.46793,-8.8589 4.47385,-9.4962 m -10.62179,0 c -0.0415,-0.012 -0.084,-0.017 -0.12699,-0.023 -0.0956,0.014 -0.19627,0.023 -0.30018,0.023 z m -0.42717,0 c -0.10245,0 -0.19996,-0.012 -0.29441,-0.023 -0.0455,0.012 -0.0892,0.014 -0.13277,0.023 z m -11.04319,0 c 3.00239,0.6414 1.86348,8.1911 4.46806,9.4962 l 1.69718,0 c 2.6019,-1.3047 1.45512,-8.8506 4.45077,-9.4962 m -10.61601,0 c -0.0415,-0.012 -0.084,-0.017 -0.127,-0.023 -0.0957,0.014 -0.19619,0.023 -0.30018,0.023 z m -0.42718,0 c -0.10403,0 -0.20443,-0.012 -0.30019,-0.023 -0.0431,0.012 -0.0855,0.014 -0.12701,0.023 z m -11.06051,0 c 3.0024,0.6414 1.86348,8.1911 4.46806,9.4962 l 1.69719,0 c 2.60461,-1.3051 1.46569,-8.8548 4.46806,-9.4962 m -10.63331,0 c -0.0415,-0.012 -0.084,-0.017 -0.127,-0.023 -0.0957,0.014 -0.19619,0.023 -0.30018,0.023 z m -0.42718,0 c -0.10403,0 -0.20443,-0.012 -0.30019,-0.023 -0.0431,0.012 -0.0855,0.014 -0.12699,0.023 z m -11.06051,0 c 3.00227,0.6414 1.86357,8.1911 4.46808,9.4962 l 1.69717,0 c 2.60461,-1.3051 1.46569,-8.8548 4.46808,-9.4962 m -10.63333,0 c -0.0415,-0.012 -0.084,-0.017 -0.12699,-0.023 -0.0957,0.014 -0.19618,0.023 -0.30018,0.023 z m -0.42717,0 c -0.10404,0 -0.20445,-0.012 -0.30018,-0.023 -0.0421,0.012 -0.0806,0.015 -0.12123,0.023 z m -7.7643,0 0,8.0703 c 0.2843,0.6539 0.65187,1.1653 1.17186,1.4259 l 1.69717,0 c 2.60535,-1.3055 1.46804,-8.8589 4.47386,-9.4962 m 0.12123,-0.023 c 0.0957,-0.014 0.19626,-0.023 0.30018,-0.023 l -0.42141,0 c 0.0405,0.012 0.0791,0.017 0.12123,0.023 z m -0.12123,-0.023 c -3.2739,-0.694 -1.63067,-9.5933 -5.26471,-9.6866 -0.0192,6e-4 -0.0383,0.012 -0.0577,0.012 -0.0202,0 -0.0379,0 -0.0577,-0.012 -0.96236,0.025 -1.55164,0.671 -1.96272,1.6164 l 0,8.0702 m 0,-19.3732 0,8.076 c 0.41098,0.9435 1.00167,1.5851 1.96272,1.6106 0.0197,-6e-4 0.0376,0 0.0577,0 0.0194,0 0.0386,-6e-4 0.0577,0 3.6338,-0.093 1.99086,-8.9926 5.26471,-9.6866 m 0,0 0.42141,0 c -0.10404,0 -0.20445,-0.011 -0.30018,-0.023 -0.0421,0.011 -0.0806,0.014 -0.12123,0.023 z m 0.12123,-0.023 c 0.0957,-0.014 0.19626,-0.023 0.30018,-0.023 l -0.42141,0 c 0.0405,0.011 0.0791,0.017 0.12123,0.023 z m -0.12123,-0.023 c -3.2739,-0.6941 -1.63067,-9.5934 -5.26471,-9.6867 -0.0192,6e-4 -0.0383,0 -0.0577,0 -0.0202,0 -0.0379,0 -0.0577,0 -0.96236,0.025 -1.55164,0.671 -1.96272,1.6164 l 0,8.0703 m 0,-19.3733 0,8.076 c 0.41098,0.9435 1.00167,1.5851 1.96272,1.6106 0.0197,-5e-4 0.0376,0 0.0577,0 0.0194,0 0.0386,-5e-4 0.0577,0 3.6338,-0.093 1.99086,-8.9925 5.26471,-9.6866 m 0,0 0.42141,0 c -0.10404,0 -0.20445,-0.011 -0.30018,-0.023 -0.0421,0.012 -0.0806,0.015 -0.12123,0.023 z m 0.42141,0 0.42717,0 c -0.0415,-0.011 -0.084,-0.017 -0.12699,-0.023 -0.0957,0.014 -0.19618,0.023 -0.30018,0.023 z m 0.42717,0 c 3.27007,0.6985 1.6262,9.5931 5.25895,9.6866 0.0192,-5e-4 0.0383,0 0.0577,0 0.0194,0 0.0386,-5e-4 0.0577,0 3.63273,-0.093 1.98873,-8.9881 5.25892,-9.6866 m 0,0 0.42717,0 c -0.10402,0 -0.20441,-0.011 -0.30018,-0.023 -0.0431,0.012 -0.0855,0.014 -0.12699,0.023 z m 0.42717,0 0.42719,0 c -0.0415,-0.011 -0.0839,-0.017 -0.127,-0.023 -0.0957,0.014 -0.19618,0.023 -0.30019,0.023 z m 0.42719,0 c 3.27019,0.6985 1.62621,9.5931 5.25894,9.6866 0.0191,-5e-4 0.0383,0 0.0577,0 0.0194,0 0.0386,-5e-4 0.0578,0 3.63274,-0.093 1.98875,-8.9881 5.25892,-9.6866 m 0,0 0.42718,0 c -0.10402,0 -0.20441,-0.011 -0.30018,-0.023 -0.0431,0.012 -0.0855,0.014 -0.127,0.023 z m 0.42718,0 0.4272,0 c -0.0415,-0.011 -0.084,-0.017 -0.12701,-0.023 -0.0957,0.014 -0.19619,0.023 -0.30019,0.023 z m 0.4272,0 c 3.27019,0.6985 1.62619,9.5931 5.25893,9.6866 0.0192,-5e-4 0.0383,0 0.0577,0 0.0194,0 0.0386,-5e-4 0.0577,0 3.63157,-0.093 1.97866,-8.9836 5.24162,-9.6866 m 0,0 0.42719,0 c -0.10245,0 -0.19997,-0.011 -0.29442,-0.023 -0.0455,0.012 -0.0892,0.014 -0.13277,0.023 z m 0.42719,0 0.42717,0 c -0.0415,-0.011 -0.084,-0.017 -0.127,-0.023 -0.0956,0.014 -0.19627,0.023 -0.30017,0.023 z m 0.42717,0 c 3.26617,0.6984 1.6115,9.59 5.24162,9.6866 0.0197,-5e-4 0.0376,0 0.0577,0 0.0194,0 0.0386,-5e-4 0.0577,0 3.6338,-0.093 1.99073,-8.9925 5.26471,-9.6866 m 0,0 0.4214,0 c -0.10257,0 -0.19986,-0.011 -0.29441,-0.023 -0.0436,0.012 -0.0852,0.014 -0.12699,0.023 z m 0.4214,0 0.42718,0 c -0.0415,-0.011 -0.084,-0.017 -0.127,-0.023 -0.0957,0.014 -0.19617,0.023 -0.30018,0.023 z m 0.42718,0 c 3.26962,0.6984 1.62869,9.59 5.25895,9.6866 0.0198,-5e-4 0.0376,0 0.0577,0 0.0194,0 0.0386,-5e-4 0.0577,0 3.6338,-0.093 1.99073,-8.9925 5.26472,-9.6866 m 0,0 0.42139,0 c -0.10253,0 -0.19986,-0.011 -0.2944,-0.023 -0.0435,0.012 -0.0851,0.014 -0.12699,0.023 z m 0.42139,0 0.42718,0 c -0.0415,-0.011 -0.0839,-0.017 -0.127,-0.023 -0.0957,0.014 -0.19618,0.023 -0.30018,0.023 z m 0.42718,0 c 3.26963,0.6984 1.6287,9.59 5.258949,9.6866 0.0198,-5e-4 0.0376,0 0.0577,0 0.0194,0 0.0386,-5e-4 0.0577,0 3.6338,-0.093 1.99086,-8.9925 5.26471,-9.6866 m 0,0 0.4214,0 c -0.10398,0 -0.20444,-0.011 -0.30018,-0.023 -0.0421,0.012 -0.0806,0.015 -0.12122,0.023 z m 0,19.3733 c -3.27391,-0.6941 -1.63067,-9.5934 -5.26471,-9.6867 -0.0192,6e-4 -0.0382,0 -0.0577,0 -0.0202,0 -0.0379,0 -0.0577,0 -3.630509,0.097 -1.989249,8.9882 -5.258949,9.6867 m 10.639109,0 c 0.0405,0.011 0.0791,0.017 0.12122,0.023 0.0957,-0.014 0.19628,-0.023 0.30018,-0.023 z m 0.12122,0.023 c -0.0421,0.011 -0.0806,0.014 -0.12122,0.023 l 0.4214,0 c -0.10399,0 -0.20444,-0.011 -0.30018,-0.023 z m -10.760329,0.023 c 3.26963,0.6984 1.6287,9.59 5.258949,9.6866 0.0198,-6e-4 0.0376,0 0.0577,0 0.0194,0 0.0386,-6e-4 0.0577,0 3.6338,-0.093 1.99086,-8.9926 5.26471,-9.6866 m 0,19.3732 c -3.27391,-0.694 -1.63067,-9.5933 -5.26471,-9.6866 -0.0192,6e-4 -0.0382,0.012 -0.0577,0.012 -0.0202,0 -0.0379,0 -0.0577,-0.012 -3.630509,0.097 -1.989249,8.9882 -5.258949,9.6866 m 10.639109,0 c 0.0405,0.012 0.0791,0.017 0.12122,0.023 0.0957,-0.014 0.19628,-0.023 0.30018,-0.023 z m -10.639109,0 -0.42718,0 c 0.10393,0 0.2045,0.012 0.30018,0.023 0.0431,-0.011 0.0856,-0.014 0.127,-0.023 z m -0.42718,0 -0.42139,0 c 0.0418,0.012 0.0836,0.017 0.12699,0.023 0.0945,-0.014 0.19192,-0.023 0.2944,-0.023 z m -0.42139,0 c -3.27405,-0.694 -1.63066,-9.5933 -5.26472,-9.6866 -0.0192,6e-4 -0.0382,0.012 -0.0577,0.012 -0.0202,0 -0.0379,0 -0.0577,-0.012 -3.6305,0.097 -1.98926,8.9882 -5.25895,9.6866 m 0,0 -0.42718,0 c 0.10392,0 0.2045,0.012 0.30018,0.023 0.0431,-0.011 0.0857,-0.014 0.127,-0.023 z m -0.42718,0 -0.4214,0 c 0.0419,0.012 0.0836,0.017 0.12699,0.023 0.0945,-0.014 0.19192,-0.023 0.29441,-0.023 z m -0.4214,0 c -3.27403,-0.694 -1.63068,-9.5933 -5.26471,-9.6866 -0.0192,6e-4 -0.0383,0.012 -0.0577,0.012 -0.0202,0 -0.0379,0 -0.0577,-0.012 -3.63038,0.097 -1.97539,8.9882 -5.24162,9.6866 m 0,0 -0.42717,0 c 0.1038,0 0.20458,0.012 0.30017,0.023 0.043,-0.011 0.0857,-0.014 0.127,-0.023 z m -0.42717,0 -0.42719,0 c 0.0436,0.012 0.0875,0.016 0.13277,0.023 0.0944,-0.014 0.192,-0.023 0.29442,-0.023 z m -0.42719,0 c -3.26302,-0.703 -1.60979,-9.5934 -5.24162,-9.6866 -0.0192,6e-4 -0.0383,0.012 -0.0577,0.012 -0.0195,0 -0.0385,0 -0.0577,-0.012 -3.633,0.093 -1.98867,8.9881 -5.25893,9.6866 m 0,0 -0.4272,0 c 0.10392,0 0.2045,0.012 0.30019,0.023 0.0431,-0.011 0.0857,-0.014 0.12701,-0.023 z m -0.4272,0 -0.42718,0 c 0.0414,0.012 0.084,0.017 0.127,0.023 0.0957,-0.014 0.19629,-0.023 0.30018,-0.023 z m -0.42718,0 c -3.27025,-0.6985 -1.62592,-9.5934 -5.25892,-9.6866 -0.0192,6e-4 -0.0383,0.012 -0.0578,0.012 -0.0195,0 -0.0385,0 -0.0577,-0.012 -3.63299,0.093 -1.98867,8.9881 -5.25894,9.6866 m 0,0 -0.42719,0 c 0.10392,0 0.2045,0.012 0.30019,0.023 0.0431,-0.011 0.0855,-0.014 0.127,-0.023 z m -0.42719,0 -0.42717,0 c 0.0414,0.012 0.084,0.017 0.12699,0.023 0.0957,-0.014 0.19628,-0.023 0.30018,-0.023 z m -0.42717,0 c -3.27025,-0.6985 -1.62593,-9.5934 -5.25892,-9.6866 -0.0192,6e-4 -0.0383,0.012 -0.0577,0.012 -0.0195,0 -0.0385,0 -0.0577,-0.012 -3.63301,0.093 -1.98881,8.9881 -5.25895,9.6866 m 0,0 -0.42717,0 c 0.10391,0 0.20449,0.012 0.30018,0.023 0.0431,-0.011 0.0855,-0.014 0.12699,-0.023 z m 0,-19.3732 c 3.27007,0.6985 1.6262,9.5931 5.25895,9.6866 0.0192,-6e-4 0.0383,0 0.0577,0 0.0194,0 0.0386,-6e-4 0.0577,0 3.63273,-0.093 1.98873,-8.9881 5.25892,-9.6866 m -10.63333,0 c -0.0415,-0.011 -0.084,-0.017 -0.12699,-0.023 -0.0957,0.014 -0.19618,0.023 -0.30018,0.023 z m -0.12699,-0.023 c 0.0431,-0.012 0.0855,-0.014 0.12699,-0.023 l -0.42717,0 c 0.10391,0 0.20448,0.011 0.30018,0.023 z m 10.76032,-0.023 c -3.27025,-0.6986 -1.62593,-9.5935 -5.25892,-9.6867 -0.0192,6e-4 -0.0383,0 -0.0577,0 -0.0195,0 -0.0385,0 -0.0577,0 -3.63301,0.093 -1.98881,8.9881 -5.25895,9.6867 m 10.63333,0 c 0.0414,0.011 0.084,0.017 0.12699,0.023 0.0957,-0.014 0.19628,-0.023 0.30019,-0.023 z m 0.42718,0 c 0.10392,0 0.2045,0.011 0.30018,0.023 0.0431,-0.012 0.0855,-0.014 0.127,-0.023 z m 11.06049,0 c -3.27025,-0.6986 -1.62591,-9.5935 -5.25892,-9.6867 -0.0192,6e-4 -0.0383,0 -0.0577,0 -0.0195,0 -0.0385,0 -0.0577,0 -3.633,0.093 -1.98868,8.9881 -5.25894,9.6867 m 10.63331,0 c 0.0414,0.011 0.084,0.017 0.127,0.023 0.0957,-0.014 0.19629,-0.023 0.30018,-0.023 z m 0.42718,0 c 0.10392,0 0.2045,0.011 0.30019,0.023 0.0431,-0.012 0.0857,-0.014 0.12701,-0.023 z m 11.04321,0 c -3.26302,-0.7031 -1.60981,-9.5935 -5.24162,-9.6867 -0.0192,6e-4 -0.0383,0 -0.0577,0 -0.0195,0 -0.0385,0 -0.0577,0 -3.63301,0.093 -1.98867,8.9881 -5.25894,9.6867 m 10.61601,0 c 0.0436,0.011 0.0875,0.017 0.13277,0.023 0.0944,-0.014 0.192,-0.023 0.29441,-0.023 z m 0.42718,0 c 0.1038,0 0.20459,0.011 0.30018,0.023 0.043,-0.012 0.0857,-0.014 0.127,-0.023 z m 11.04896,0 c -3.27403,-0.6941 -1.63067,-9.5934 -5.2647,-9.6867 -0.0192,6e-4 -0.0383,0 -0.0577,0 -0.0202,0 -0.0379,0 -0.0577,0 -3.63039,0.097 -1.9754,8.9882 -5.24163,9.6867 m 10.6218,0 c 0.0419,0.011 0.0836,0.017 0.12699,0.023 0.0945,-0.014 0.19191,-0.023 0.2944,-0.023 z m 0.42139,0 c 0.10392,0 0.2045,0.011 0.30018,0.023 0.0431,-0.012 0.0857,-0.014 0.127,-0.023 z m 11.06628,0 c -3.27404,-0.6941 -1.63065,-9.5934 -5.26471,-9.6867 -0.0192,6e-4 -0.0382,0 -0.0577,0 -0.0202,0 -0.0379,0 -0.0577,0 -3.63049,0.097 -1.98925,8.9882 -5.25895,9.6867 m 10.63911,0 c 0.0418,0.011 0.0836,0.017 0.127,0.023 0.0945,-0.014 0.19191,-0.023 0.2944,-0.023 z m 0.4214,0 c 0.10393,0 0.20449,0.011 0.30018,0.023 0.0431,-0.012 0.0856,-0.014 0.127,-0.023 z m 0.30018,0.023 c -0.0957,0.014 -0.19618,0.023 -0.30018,0.023 l 0.42718,0 c -0.0415,-0.011 -0.0839,-0.017 -0.127,-0.023 z m -0.30018,0.023 c -0.10253,0 -0.19986,-0.011 -0.2944,-0.023 -0.0435,0.011 -0.0851,0.014 -0.127,0.023 z m -11.06051,0 c 3.26963,0.6984 1.6287,9.59 5.25895,9.6866 0.0198,-6e-4 0.0376,0 0.0577,0 0.0194,0 0.0386,-6e-4 0.0577,0 3.6338,-0.093 1.99073,-8.9926 5.26471,-9.6866 m -10.6391,0 c -0.0415,-0.011 -0.084,-0.017 -0.127,-0.023 -0.0957,0.014 -0.19617,0.023 -0.30018,0.023 z m -0.42718,0 c -0.10257,0 -0.19986,-0.011 -0.2944,-0.023 -0.0436,0.011 -0.0852,0.014 -0.12699,0.023 z m -11.04319,0 c 3.26617,0.6984 1.6115,9.59 5.24163,9.6866 0.0197,-6e-4 0.0376,0 0.0577,0 0.0194,0 0.0386,-6e-4 0.0577,0 3.63379,-0.093 1.99073,-8.9926 5.2647,-9.6866 m -10.62178,0 c -0.0415,-0.011 -0.084,-0.017 -0.127,-0.023 -0.0956,0.014 -0.19627,0.023 -0.30018,0.023 z m -0.42718,0 c -0.10245,0 -0.19996,-0.011 -0.29441,-0.023 -0.0455,0.011 -0.0892,0.014 -0.13277,0.023 z m -11.04319,0 c 3.27019,0.6985 1.6262,9.5931 5.25894,9.6866 0.0192,-6e-4 0.0383,0 0.0577,0 0.0194,0 0.0386,-6e-4 0.0577,0 3.63156,-0.093 1.97866,-8.9836 5.24162,-9.6866 m -10.61601,0 c -0.0415,-0.011 -0.084,-0.017 -0.12701,-0.023 -0.0957,0.014 -0.19619,0.023 -0.30019,0.023 z m -0.4272,0 c -0.10402,0 -0.20441,-0.011 -0.30018,-0.023 -0.0431,0.011 -0.0855,0.014 -0.127,0.023 z m -11.06049,0 c 3.27019,0.6985 1.6262,9.5931 5.25894,9.6866 0.0191,-6e-4 0.0383,0 0.0577,0 0.0194,0 0.0386,-6e-4 0.0577,0 3.63275,-0.093 1.98875,-8.9881 5.25892,-9.6866 m -10.63331,0 c -0.0415,-0.011 -0.084,-0.017 -0.127,-0.023 -0.0957,0.014 -0.19619,0.023 -0.30018,0.023 z m -0.42718,0 c -0.10403,0 -0.20443,-0.011 -0.30019,-0.023 -0.0431,0.011 -0.0855,0.014 -0.12699,0.023 z"
         style="fill:none;stroke:#000000;stroke-width:3.54330709;stroke-linecap:butt;stroke-linejoin:miter;stroke-miterlimit:4;stroke-opacity:0.94117647000000004;stroke-dasharray:none" />
    </g>
    <g
       id="g7128"
       transform="translate(-52.336449,31.775702)">
      <text
         xml:space="preserve"
         style="font-size:18.0238266px;font-style:normal;font-variant:normal;font-weight:900;font-stretch:normal;text-align:start;line-height:125%;letter-spacing:0px;word-spacing:0px;writing-mode:lr-tb;text-anchor:start;fill:#000000;fill-opacity:1;stroke:none;font-family:Roboto;-inkscape-font-specification:Roboto Heavy"
         x="87.523262"
         y="1204.8328"
         id="text4167"
         sodipodi:linespacing="125%"
         transform="scale(1.0703054,0.93431276)"><tspan
           sodipodi:role="line"
           id="tspan4169"
           x="87.523262"
           y="1204.8328">REGEL</tspan></text>
      <path
         style="fill:none;stroke:#000000;stroke-width:4.25196838;stroke-linecap:butt;stroke-linejoin:miter;stroke-miterlimit:4;stroke-opacity:1;stroke-dasharray:none"
         d="m 61.855119,1079.4573 c 0,7.6251 4.954068,7.9061 9.802803,7.9061 4.848747,0 16.352096,6.4367 16.352096,23.5897"
         id="path4173"
         inkscape:connector-curvature="0"
         sodipodi:nodetypes="czc" />
      <path
         style="fill:none;stroke:#000000;stroke-width:4.25196838;stroke-linecap:butt;stroke-linejoin:miter;stroke-miterlimit:4;stroke-opacity:1;stroke-dasharray:none"
         d="m 89.210756,1128.5022 c -9.74155,9.8476 -27.647693,44.4775 -27.647693,72.5419"
         id="path4177"
         inkscape:connector-curvature="0"
         sodipodi:nodetypes="cc" />
      <path
         style="fill:none;stroke:#000000;stroke-width:4.25196838;stroke-linecap:butt;stroke-linejoin:miter;stroke-miterlimit:4;stroke-opacity:1;stroke-dasharray:none"
         d="m 187.75112,1079.964 c -23.6036,0 -31.57697,31.2663 -31.57697,31.2663"
         id="path4181"
         inkscape:connector-curvature="0"
         sodipodi:nodetypes="cc" />
      <path
         style="fill:none;stroke:#000000;stroke-width:4.25196838;stroke-linecap:butt;stroke-linejoin:miter;stroke-miterlimit:4;stroke-opacity:1;stroke-dasharray:none"
         d="m 187.40065,1200.9286 c -9.8185,0 -13.66662,-4.3375 -13.66662,-15.4392 0,-11.1014 -16.82097,-39.6789 -16.82097,-57.0796"
         id="path4185"
         inkscape:connector-curvature="0"
         sodipodi:nodetypes="czc" />
      <path
         style="fill:none;stroke:#000000;stroke-width:3.54330707;stroke-linecap:butt;stroke-linejoin:miter;stroke-miterlimit:4;stroke-opacity:1;stroke-dasharray:none"
         d="m 156.98397,1118.7968 c 2.35782,0 0.95174,-0.012 5.72634,-0.012 5.07265,0 -1.09996,19.084 8.13371,18.9246 9.23368,-0.1592 1.77795,-19.002 7.18853,-19.002 5.41059,0 14.62511,0 14.62511,0"
         id="path4187"
         inkscape:connector-curvature="0"
         sodipodi:nodetypes="cszzc" />
      <rect
         y="1109.9933"
         x="88.066223"
         height="19.46863"
         width="68.790642"
         id="rect4189"
         style="fill:none;stroke:#000000;stroke-width:4.25196838;stroke-linecap:butt;stroke-linejoin:miter;stroke-miterlimit:4;stroke-opacity:0.94117647;stroke-dasharray:none" />
      <g
         style="fill:#000000"
         transform="matrix(0.18472662,0,0,0.18472662,-102.90494,1061.6566)"
         id="g6918">
        <g
           style="fill:#000000"
           id="g6906"
           transform="translate(1198,132)">
          <rect
             y="-63.637817"
             x="-352"
             height="62"
             width="26"
             id="rect6902"
             style="fill:#000000;stroke:none" />
          <rect
             y="-46.637817"
             x="-326"
             height="28"
             width="44"
             id="rect6904"
             style="fill:#000000;stroke:none" />
        </g>
        <g
           style="fill:#000000"
           transform="translate(1198,786)"
           id="g6912">
          <rect
             style="fill:#000000;stroke:none"
             id="rect6914"
             width="26"
             height="62"
             x="-352"
             y="-63.637817" />
          <rect
             style="fill:#000000;stroke:none"
             id="rect6916"
             width="44"
             height="28"
             x="-326"
             y="-46.637817" />
        </g>
      </g>
      <g
         style="fill:#000000"
         transform="matrix(-0.18472662,0,0,0.18472662,354.10873,1061.6566)"
         id="g6926">
        <g
           style="fill:#000000"
           transform="translate(1198,132)"
           id="g6928">
          <rect
             style="fill:#000000;stroke:none"
             id="rect6930"
             width="26"
             height="62"
             x="-352"
             y="-63.637817" />
          <rect
             style="fill:#000000;stroke:none"
             id="rect6932"
             width="44"
             height="28"
             x="-326"
             y="-46.637817" />
        </g>
        <g
           style="fill:#000000"
           id="g6934"
           transform="translate(1198,786)">
          <rect
             y="-63.637817"
             x="-352"
             height="62"
             width="26"
             id="rect6936"
             style="fill:#000000;stroke:none" />
          <rect
             y="-46.637817"
             x="-326"
             height="28"
             width="44"
             id="rect6938"
             style="fill:#000000;stroke:none" />
        </g>
      </g>
      <path
         sodipodi:nodetypes="cc"
         inkscape:connector-curvature="0"
         id="path6946"
         d="m 61.582061,1202.7964 c -0.369465,2.9555 2.136407,10.7725 16.175639,10.7725"
         style="fill:none;stroke:#000000;stroke-width:4.25196838;stroke-linecap:butt;stroke-linejoin:miter;stroke-miterlimit:4;stroke-opacity:1;stroke-dasharray:none" />
      <path
         sodipodi:nodetypes="csc"
         inkscape:connector-curvature="0"
         id="path6948"
         d="m 176.74189,1195.8693 c -5.94197,5.9419 -5.11971,8.6045 -7.54452,12.8044 -1.73022,2.9967 -6.13431,4.8952 -10.0676,4.8952"
         style="fill:none;stroke:#000000;stroke-width:4.25196838;stroke-linecap:butt;stroke-linejoin:miter;stroke-miterlimit:4;stroke-opacity:1;stroke-dasharray:none" />
      <path
         style="fill:none;stroke:#000000;stroke-width:2.95562577;stroke-linecap:butt;stroke-linejoin:miter;stroke-miterlimit:4;stroke-opacity:1;stroke-dasharray:none"
         d="m 99.16644,1110.883 0,4.1798"
         id="path7042"
         inkscape:connector-curvature="0" />
      <path
         style="fill:none;stroke:#000000;stroke-width:2.95562577;stroke-linecap:butt;stroke-linejoin:miter;stroke-miterlimit:4;stroke-opacity:1;stroke-dasharray:none"
         d="m 96.292765,1124.4676 0,4.1799"
         id="path7044"
         inkscape:connector-curvature="0" />
      <path
         sodipodi:nodetypes="cc"
         style="fill:none;stroke:#000000;stroke-width:2.95562577;stroke-linecap:butt;stroke-linejoin:miter;stroke-miterlimit:4;stroke-opacity:1;stroke-dasharray:none"
         d="m 104.26927,1125.6258 0,3.1292"
         id="path7046"
         inkscape:connector-curvature="0" />
      <path
         style="fill:none;stroke:#000000;stroke-width:2.95562577;stroke-linecap:butt;stroke-linejoin:miter;stroke-miterlimit:4;stroke-opacity:1;stroke-dasharray:none"
         d="m 112.35921,1124.337 0,4.1799"
         id="path7048"
         inkscape:connector-curvature="0" />
      <path
         style="fill:none;stroke:#000000;stroke-width:2.95562577;stroke-linecap:butt;stroke-linejoin:miter;stroke-miterlimit:4;stroke-opacity:1;stroke-dasharray:none"
         d="m 112.48983,1110.883 0,4.1798"
         id="path7050"
         inkscape:connector-curvature="0" />
      <path
         style="fill:none;stroke:#000000;stroke-width:2.95562577;stroke-linecap:butt;stroke-linejoin:miter;stroke-miterlimit:4;stroke-opacity:1;stroke-dasharray:none"
         d="m 123.46204,1110.6217 0,4.18"
         id="path7052"
         inkscape:connector-curvature="0" />
      <path
         style="fill:none;stroke:#000000;stroke-width:2.95562577;stroke-linecap:butt;stroke-linejoin:miter;stroke-miterlimit:4;stroke-opacity:1;stroke-dasharray:none"
         d="m 124.11513,1124.4676 0,4.1799"
         id="path7054"
         inkscape:connector-curvature="0" />
      <path
         style="fill:none;stroke:#000000;stroke-width:2.95562577;stroke-linecap:butt;stroke-linejoin:miter;stroke-miterlimit:4;stroke-opacity:1;stroke-dasharray:none"
         d="m 136.39355,1125.382 0,4.1798"
         id="path7058"
         inkscape:connector-curvature="0" />
      <path
         style="fill:none;stroke:#000000;stroke-width:2.95562577;stroke-linecap:butt;stroke-linejoin:miter;stroke-miterlimit:4;stroke-opacity:1;stroke-dasharray:none"
         d="m 136.39355,1110.3606 0,4.1798"
         id="path7060"
         inkscape:connector-curvature="0" />
      <path
         style="fill:none;stroke:#000000;stroke-width:2.95562577;stroke-linecap:butt;stroke-linejoin:miter;stroke-miterlimit:4;stroke-opacity:1;stroke-dasharray:none"
         d="m 147.23513,1124.337 0,4.1799"
         id="path7062"
         inkscape:connector-curvature="0" />
      <path
         style="fill:none;stroke:#000000;stroke-width:2.95562577;stroke-linecap:butt;stroke-linejoin:miter;stroke-miterlimit:4;stroke-opacity:1;stroke-dasharray:none"
         d="m 143.76245,1110.6217 0,4.18"
         id="path7064"
         inkscape:connector-curvature="0" />
    </g>
    <g
       id="g7194"
       transform="translate(297.19626,39.252336)">
      <path
         style="fill:none;stroke:#000000;stroke-width:4.25196838;stroke-linecap:butt;stroke-linejoin:miter;stroke-miterlimit:4;stroke-opacity:1;stroke-dasharray:none"
         d="m -68.176339,1218.187 c 0.167768,-55.7945 44.409706,22.4076 52.092907,-21.0588"
         id="path3901"
         inkscape:connector-curvature="0"
         sodipodi:nodetypes="cc" />
      <path
         style="fill:none;stroke:#000000;stroke-width:5.31496048;stroke-linecap:butt;stroke-linejoin:miter;stroke-miterlimit:4;stroke-opacity:1;stroke-dasharray:none"
         d="m -74.610072,1218.1164 c -0.5225,-32.114 20.759263,-72.4032 23.348872,-103.7458 1.763234,-21.3406 0.359516,-39.6757 0.620756,-46.2342"
         id="path3903"
         inkscape:connector-curvature="0"
         sodipodi:nodetypes="csc" />
      <path
         sodipodi:nodetypes="cc"
         inkscape:connector-curvature="0"
         id="path3909"
         d="m 35.991785,1218.187 c -0.167775,-55.7945 -44.4097232,22.4076 -52.092913,-21.0588"
         style="fill:none;stroke:#000000;stroke-width:4.25196838;stroke-linecap:butt;stroke-linejoin:miter;stroke-miterlimit:4;stroke-opacity:1;stroke-dasharray:none" />
      <path
         sodipodi:nodetypes="csc"
         inkscape:connector-curvature="0"
         id="path3911"
         d="m 42.425513,1218.1164 c 0.522485,-32.114 -20.759259,-72.4032 -23.34889,-103.7458 -1.763216,-21.3406 -0.359499,-39.6757 -0.620741,-46.2342"
         style="fill:none;stroke:#000000;stroke-width:5.31496048;stroke-linecap:butt;stroke-linejoin:miter;stroke-miterlimit:4;stroke-opacity:1;stroke-dasharray:none" />
      <path
         style="fill:none;stroke:#000000;stroke-width:4.25196838;stroke-linecap:butt;stroke-linejoin:miter;stroke-miterlimit:4;stroke-opacity:1;stroke-dasharray:none"
         d="m -41.408306,1068.1336 c 1.827094,8.0466 2.739607,18.0686 9.011209,18.0686 6.271687,0 7.435853,-10.0219 9.467236,-18.0686 m 13.7852258,0 c 1.773989,8.0467 2.618257,18.0686 8.88996599,18.0686 6.27156201,0 7.50400201,-10.022 9.58846311,-18.0686 m -25.2094099,46.0778 c -9.81613,0 -6.045557,-27.9688 -16.521481,-27.9688 -10.475944,0 -5.995325,27.9688 -15.811458,27.9688 m 64.66011,0 c -9.8161422,0 -6.23029,-27.9688 -16.70622421,-27.9688 -10.47593579,0 -5.80481799,27.9688 -15.62094679,27.9688 m 34.942196,0 c -0.02177,-0.2647 -0.04275,-0.5272 -0.06351,-0.7909 -0.726888,0.5072 -1.566028,0.7909 -2.551533,0.7909 m -64.660102,0 c -1.159234,0 -2.128458,-0.3915 -2.955626,-1.0796 -0.02781,0.3596 -0.05699,0.7183 -0.08657,1.0796 m 0,0.04 c -0.0034,0.04 -0.0082,0.081 -0.01164,0.1213 -0.0311,0.3764 -0.06749,0.7524 -0.103901,1.1314 0.869894,-0.7967 1.903403,-1.2527 3.157661,-1.2527 m 0,0 c 9.816132,0 5.335513,27.9687 15.811441,27.9687 10.475945,0 6.705361,-27.9687 16.521491,-27.9687 m 0,0 c 9.8161298,0 5.145023,27.9687 15.62094579,27.9687 10.47593521,0 6.89008401,-27.9687 16.70621421,-27.9687 m 0,0 c 1.050557,0 1.936973,0.3226 2.695855,0.8947 -0.02368,-0.2585 -0.04803,-0.5162 -0.06924,-0.7734 -0.0034,-0.04 -0.0079,-0.081 -0.01145,-0.1213 m -38.077106,31.9436 c -9.816118,0 -2.910639,-3.9345 -13.386574,-3.9345 -10.475936,0 -5.995319,27.9689 -15.81145,27.9689 m 64.66009,0 c -9.8161302,0 -6.230278,-27.9689 -16.70621321,-27.9689 -10.47592279,0 -2.80051999,4.1957 -12.61665079,4.1957 m 46.098451,23.7732 c -2.298056,-7.5434 -4.724187,-15.0963 -6.92725,-22.5079 -3.118029,8.1402 -2.812225,22.5079 -9.848247,22.5079 m -64.660089,0 c -6.96399,0 -7.112178,-14.073 -10.350454,-22.2539 -2.183173,7.3304 -4.586115,14.7965 -6.857975,22.2539 m -0.01164,0.041 c -2.158365,7.0863 -4.197562,14.1608 -5.80158,21.0934 1.248642,3.9556 3.073501,6.8752 6.459668,6.8752 10.475939,0 6.745772,-27.9686 16.561888,-27.9686 m 0,0 c 9.816132,0 5.335514,27.9686 15.811449,27.9686 m 32.14243779,0 c 10.47593521,0 6.89008301,-27.9686 16.70621321,-27.9686 m 0,0 c 9.81613,0 5.335513,27.9686 15.811437,27.9686 3.509577,0 5.368739,-3.1388 6.679035,-7.3139 -1.587786,-6.7918 -3.584965,-13.7184 -5.697672,-20.6547"
         id="path3919"
         inkscape:connector-curvature="0"
         sodipodi:nodetypes="csccsccsccsccccccccscccsccscccsccsccscccccccccsccccccscc" />
      <path
         inkscape:connector-curvature="0"
         id="path6898"
         d="m -38.046799,1207.0564 5.402106,-8.8227"
         style="fill:none;stroke:#000000;stroke-width:4.25196838;stroke-linecap:butt;stroke-linejoin:miter;stroke-miterlimit:4;stroke-opacity:1;stroke-dasharray:none" />
      <path
         style="fill:none;stroke:#000000;stroke-width:4.25196838;stroke-linecap:butt;stroke-linejoin:miter;stroke-miterlimit:4;stroke-opacity:1;stroke-dasharray:none"
         d="m 5.5013438,1207.0564 -5.40210201,-8.8227"
         id="path6900"
         inkscape:connector-curvature="0" />
      <path
         style="fill:#000000;fill-opacity:1;stroke:#000000;stroke-width:2.95562601;stroke-linecap:butt;stroke-linejoin:miter;stroke-miterlimit:4;stroke-opacity:0.94117647;stroke-dasharray:none"
         d="m -16.268152,1139.6748 c -14.181662,0 -25.677,14.6439 -25.677,32.7024 0,18.0585 11.495338,32.6966 25.677,32.6966 14.1816624,0 25.6770004,-14.6381 25.6770004,-32.6966 0,-18.0585 -11.495338,-32.7024 -25.6770004,-32.7024 z m 0,7.6719 c 10.854239,0 19.6560672,11.209 19.6560672,25.0305 0,13.8214 -8.8018282,25.0247 -19.6560672,25.0247 -10.854239,0 -19.656067,-11.2033 -19.656067,-25.0247 0,-13.8215 8.801828,-25.0305 19.656067,-25.0305 z"
         id="path7067"
         inkscape:connector-curvature="0" />
      <text
         xml:space="preserve"
         style="font-size:42.2282486px;font-style:normal;font-variant:normal;font-weight:normal;font-stretch:normal;text-align:start;line-height:125%;letter-spacing:0px;word-spacing:0px;writing-mode:lr-tb;text-anchor:start;fill:#000000;fill-opacity:1;stroke:#000000;stroke-width:1.8472662;stroke-miterlimit:4;stroke-dasharray:none;font-family:DejaVu Serif;-inkscape-font-specification:DejaVu Serif"
         x="-34.182816"
         y="1163.2784"
         id="text4091"
         sodipodi:linespacing="125%"
         transform="scale(0.97911194,1.0213337)"><tspan
           style="fill:#000000;stroke:#000000;stroke-width:1.8472662"
           sodipodi:role="line"
           id="tspan4093"
           x="-34.182816"
           y="1163.2784">R</tspan></text>
      <path
         inkscape:connector-curvature="0"
         id="path7071"
         d="m -59.83063,1067.9982 85.687677,0"
         style="fill:none;stroke:#000000;stroke-width:5.31496048;stroke-linecap:butt;stroke-linejoin:miter;stroke-miterlimit:4;stroke-opacity:1;stroke-dasharray:none" />
      <path
         sodipodi:nodetypes="cc"
         style="fill:none;stroke:#000000;stroke-width:5.31496048;stroke-linecap:butt;stroke-linejoin:miter;stroke-miterlimit:4;stroke-opacity:1;stroke-dasharray:none"
         d="m -78.378865,1217.6904 13.323372,0"
         id="path7073"
         inkscape:connector-curvature="0" />
      <path
         inkscape:connector-curvature="0"
         id="path7075"
         d="m 32.649356,1217.6904 13.323396,0"
         style="fill:none;stroke:#000000;stroke-width:5.31496048;stroke-linecap:butt;stroke-linejoin:miter;stroke-miterlimit:4;stroke-opacity:1;stroke-dasharray:none"
         sodipodi:nodetypes="cc" />
    </g>
  </g>
</svg>
