  0
SECTION
  2
HEADER
  9
$ACADVER
  1
AC1014
  9
$HANDSEED
  5
FFFF
  9
$MEASUREMENT
 70
     1
  0
ENDSEC
  0
SECTION
  2
TABLES
  0
TABLE
  2
VPORT
  5
8
330
0
100
AcDbSymbolTable
 70
     4
  0
VPORT
  5
2E
330
8
100
AcDbSymbolTableRecord
100
AcDbViewportTableRecord
  2
*ACTIVE
 70
     0
 10
0.0
 20
0.0
 11
1.0
 21
1.0
 12
210.0
 22
148.5
 13
0.0
 23
0.0
 14
10.0
 24
10.0
 15
10.0
 25
10.0
 16
0.0
 26
0.0
 36
1.0
 17
0.0
 27
0.0
 37
0.0
 40
341.0
 41
1.24
 42
50.0
 43
0.0
 44
0.0
 50
0.0
 51
0.0
 71
     0
 72
   100
 73
     1
 74
     3
 75
     0
 76
     0
 77
     0
 78
     0
  0
ENDTAB
  0
TABLE
  2
LTYPE
  5
5
330
0
100
AcDbSymbolTable
 70
     1
  0
LTYPE
  5
14
330
5
100
AcDbSymbolTableRecord
100
AcDbLinetypeTableRecord
  2
BYBLOCK
 70
     0
  3

 72
    65
 73
     0
 40
0.0
  0
LTYPE
  5
15
330
5
100
AcDbSymbolTableRecord
100
AcDbLinetypeTableRecord
  2
BYLAYER
 70
     0
  3

 72
    65
 73
     0
 40
0.0
  0
LTYPE
  5
16
330
5
100
AcDbSymbolTableRecord
100
AcDbLinetypeTableRecord
  2
CONTINUOUS
 70
     0
  3
Solid line
 72
    65
 73
     0
 40
0.0
  0
ENDTAB
  0
TABLE
  2
LAYER
  5
2
100
AcDbSymbolTable
 70
2
  0
LAYER
  5
50
100
AcDbSymbolTableRecord
100
AcDbLayerTableRecord
  2
0
 70
0
  6
CONTINUOUS
  0
LAYER
  5
51
100
AcDbSymbolTableRecord
100
AcDbLayerTableRecord
  2
Layer_1
 70
0
  6
CONTINUOUS
  0
ENDTAB
  0
TABLE
  2
STYLE
  5
3
330
0
100
AcDbSymbolTable
 70
     1
  0
STYLE
  5
11
330
3
100
AcDbSymbolTableRecord
100
AcDbTextStyleTableRecord
  2
STANDARD
 70
     0
 40
0.0
 41
1.0
 50
0.0
 71
     0
 42
2.5
  3
txt
  4

  0
ENDTAB
  0
TABLE
  2
VIEW
  5
6
330
0
100
AcDbSymbolTable
 70
     0
  0
ENDTAB
  0
TABLE
  2
UCS
  5
7
330
0
100
AcDbSymbolTable
 70
     0
  0
ENDTAB
  0
TABLE
  2
APPID
  5
9
330
0
100
AcDbSymbolTable
 70
     2
  0
APPID
  5
12
330
9
100
AcDbSymbolTableRecord
100
AcDbRegAppTableRecord
  2
ACAD
 70
     0
  0
ENDTAB
  0
TABLE
  2
DIMSTYLE
  5
A
330
0
100
AcDbSymbolTable
 70
     1
  0
DIMSTYLE
105
27
330
A
100
AcDbSymbolTableRecord
100
AcDbDimStyleTableRecord
  2
ISO-25
 70
     0
  3

  4

  5

  6

  7

 40
1.0
 41
2.5
 42
0.625
 43
3.75
 44
1.25
 45
0.0
 46
0.0
 47
0.0
 48
0.0
140
2.5
141
2.5
142
0.0
143
0.03937007874016
144
1.0
145
0.0
146
1.0
147
0.625
 71
     0
 72
     0
 73
     0
 74
     0
 75
     0
 76
     0
 77
     1
 78
     8
170
     0
171
     3
172
     1
173
     0
174
     0
175
     0
176
     0
177
     0
178
     0
270
     2
271
     2
272
     2
273
     2
274
     3
340
11
275
     0
280
     0
281
     0
282
     0
283
     0
284
     8
285
     0
286
     0
287
     3
288
     0
  0
ENDTAB
  0
TABLE
  2
BLOCK_RECORD
  5
1
330
0
100
AcDbSymbolTable
 70
     1
  0
BLOCK_RECORD
  5
1F
330
1
100
AcDbSymbolTableRecord
100
AcDbBlockTableRecord
  2
*MODEL_SPACE
  0
BLOCK_RECORD
  5
1B
330
1
100
AcDbSymbolTableRecord
100
AcDbBlockTableRecord
  2
*PAPER_SPACE
  0
ENDTAB
  0
ENDSEC
  0
SECTION
  2
BLOCKS
  0
BLOCK
  5
20
330
1F
100
AcDbEntity
  8
0
100
AcDbBlockBegin
  2
*MODEL_SPACE
 70
     0
 10
0.0
 20
0.0
 30
0.0
  3
*MODEL_SPACE
  1

  0
ENDBLK
  5
21
330
1F
100
AcDbEntity
  8
0
100
AcDbBlockEnd
  0
BLOCK
  5
1C
330
1B
100
AcDbEntity
 67
     1
  8
0
100
AcDbBlockBegin
  2
*PAPER_SPACE
  1

  0
ENDBLK
  5
1D
330
1B
100
AcDbEntity
 67
     1
  8
0
100
AcDbBlockEnd
  0
ENDSEC
  0
SECTION
  2
ENTITIES
  0
LWPOLYLINE
  5
100
100
AcDbEntity
  8
Layer_1
 62
7
100
AcDbPolyline
 90
13
 70
1
 10
17.365486
 20
32.771735
 30
0.0
 10
17.365486
 20
32.172013
 30
0.0
 10
17.365486
 20
15.767846
 30
0.0
 10
17.365486
 20
15.168124
 30
0.0
 10
17.965208
 20
15.168124
 30
0.0
 10
41.786528
 20
15.168124
 30
0.0
 10
42.386250
 20
15.168124
 30
0.0
 10
42.386250
 20
15.767846
 30
0.0
 10
42.386250
 20
32.172013
 30
0.0
 10
42.386250
 20
32.771735
 30
0.0
 10
41.786528
 20
32.771735
 30
0.0
 10
17.965208
 20
32.771735
 30
0.0
 10
17.365486
 20
32.771735
 30
0.0
  0
LWPOLYLINE
  5
101
100
AcDbEntity
  8
Layer_1
 62
7
100
AcDbPolyline
 90
11
 70
1
 10
18.564931
 20
31.572290
 30
0.0
 10
18.617847
 20
31.572290
 30
0.0
 10
18.635486
 20
31.537013
 30
0.0
 10
18.838333
 20
30.760901
 30
0.0
 10
19.094097
 20
29.737846
 30
0.0
 10
19.296944
 20
29.411526
 30
0.0
 10
19.094097
 20
29.076388
 30
0.0
 10
18.838333
 20
28.070971
 30
0.0
 10
18.635486
 20
27.294860
 30
0.0
 10
18.564931
 20
27.171388
 30
0.0
 10
18.564931
 20
31.572290
 30
0.0
  0
LWPOLYLINE
  5
102
100
AcDbEntity
  8
Layer_1
 62
7
100
AcDbPolyline
 90
11
 70
1
 10
19.676181
 20
31.572290
 30
0.0
 10
20.628681
 20
31.572290
 30
0.0
 10
20.487569
 20
30.946110
 30
0.0
 10
20.284722
 20
30.108263
 30
0.0
 10
20.178889
 20
29.914235
 30
0.0
 10
20.170069
 20
29.914235
 30
0.0
 10
20.152431
 20
29.914235
 30
0.0
 10
20.134792
 20
29.914235
 30
0.0
 10
20.028958
 20
30.108263
 30
0.0
 10
19.817292
 20
30.946110
 30
0.0
 10
19.676181
 20
31.572290
 30
0.0
  0
LWPOLYLINE
  5
103
100
AcDbEntity
  8
Layer_1
 62
7
100
AcDbPolyline
 90
19
 70
1
 10
21.695833
 20
31.572290
 30
0.0
 10
21.854583
 20
31.572290
 30
0.0
 10
21.872222
 20
31.537013
 30
0.0
 10
22.083889
 20
30.760901
 30
0.0
 10
22.339653
 20
29.737846
 30
0.0
 10
22.533681
 20
29.420346
 30
0.0
 10
22.330833
 20
29.076388
 30
0.0
 10
22.083889
 20
28.070971
 30
0.0
 10
21.872222
 20
27.294860
 30
0.0
 10
21.784028
 20
27.171388
 30
0.0
 10
21.775208
 20
27.171388
 30
0.0
 10
21.678194
 20
27.294860
 30
0.0
 10
21.466528
 20
28.070971
 30
0.0
 10
21.219583
 20
29.076388
 30
0.0
 10
21.016736
 20
29.411526
 30
0.0
 10
21.219583
 20
29.737846
 30
0.0
 10
21.475347
 20
30.760901
 30
0.0
 10
21.678194
 20
31.537013
 30
0.0
 10
21.695833
 20
31.572290
 30
0.0
  0
LWPOLYLINE
  5
104
100
AcDbEntity
  8
Layer_1
 62
7
100
AcDbPolyline
 90
12
 70
1
 10
22.921736
 20
31.572290
 30
0.0
 10
23.874236
 20
31.572290
 30
0.0
 10
23.733125
 20
30.946110
 30
0.0
 10
23.530278
 20
30.108263
 30
0.0
 10
23.424444
 20
29.914235
 30
0.0
 10
23.415625
 20
29.914235
 30
0.0
 10
23.397986
 20
29.914235
 30
0.0
 10
23.380347
 20
29.914235
 30
0.0
 10
23.371528
 20
29.914235
 30
0.0
 10
23.265694
 20
30.108263
 30
0.0
 10
23.062847
 20
30.946110
 30
0.0
 10
22.921736
 20
31.572290
 30
0.0
  0
LWPOLYLINE
  5
105
100
AcDbEntity
  8
Layer_1
 62
7
100
AcDbPolyline
 90
19
 70
1
 10
24.941389
 20
31.572290
 30
0.0
 10
25.100139
 20
31.572290
 30
0.0
 10
25.117778
 20
31.537013
 30
0.0
 10
25.320625
 20
30.760901
 30
0.0
 10
25.576389
 20
29.737846
 30
0.0
 10
25.779236
 20
29.411526
 30
0.0
 10
25.576389
 20
29.076388
 30
0.0
 10
25.320625
 20
28.070971
 30
0.0
 10
25.117778
 20
27.294860
 30
0.0
 10
25.020764
 20
27.171388
 30
0.0
 10
25.011944
 20
27.171388
 30
0.0
 10
24.923750
 20
27.294860
 30
0.0
 10
24.712083
 20
28.070971
 30
0.0
 10
24.465139
 20
29.076388
 30
0.0
 10
24.262292
 20
29.420346
 30
0.0
 10
24.456319
 20
29.737846
 30
0.0
 10
24.712083
 20
30.760901
 30
0.0
 10
24.923750
 20
31.537013
 30
0.0
 10
24.941389
 20
31.572290
 30
0.0
  0
LWPOLYLINE
  5
106
100
AcDbEntity
  8
Layer_1
 62
7
100
AcDbPolyline
 90
11
 70
1
 10
26.167292
 20
31.572290
 30
0.0
 10
27.110972
 20
31.572290
 30
0.0
 10
26.969861
 20
30.946110
 30
0.0
 10
26.767014
 20
30.108263
 30
0.0
 10
26.661181
 20
29.914235
 30
0.0
 10
26.643542
 20
29.914235
 30
0.0
 10
26.625903
 20
29.914235
 30
0.0
 10
26.617083
 20
29.914235
 30
0.0
 10
26.511250
 20
30.108263
 30
0.0
 10
26.308403
 20
30.946110
 30
0.0
 10
26.167292
 20
31.572290
 30
0.0
  0
LWPOLYLINE
  5
107
100
AcDbEntity
  8
Layer_1
 62
7
100
AcDbPolyline
 90
19
 70
1
 10
28.178125
 20
31.572290
 30
0.0
 10
28.336875
 20
31.572290
 30
0.0
 10
28.354514
 20
31.537013
 30
0.0
 10
28.566181
 20
30.760901
 30
0.0
 10
28.813125
 20
29.737846
 30
0.0
 10
29.015972
 20
29.411526
 30
0.0
 10
28.813125
 20
29.076388
 30
0.0
 10
28.566181
 20
28.070971
 30
0.0
 10
28.363333
 20
27.294860
 30
0.0
 10
28.266319
 20
27.171388
 30
0.0
 10
28.257486
 20
27.171388
 30
0.0
 10
28.160472
 20
27.294860
 30
0.0
 10
27.957625
 20
28.070971
 30
0.0
 10
27.701861
 20
29.076388
 30
0.0
 10
27.499014
 20
29.411526
 30
0.0
 10
27.701861
 20
29.737846
 30
0.0
 10
27.957625
 20
30.760901
 30
0.0
 10
28.160472
 20
31.537013
 30
0.0
 10
28.178125
 20
31.572290
 30
0.0
  0
LWPOLYLINE
  5
108
100
AcDbEntity
  8
Layer_1
 62
7
100
AcDbPolyline
 90
10
 70
1
 10
29.404028
 20
31.572290
 30
0.0
 10
30.347708
 20
31.572290
 30
0.0
 10
30.206597
 20
30.946110
 30
0.0
 10
30.003750
 20
30.099443
 30
0.0
 10
29.897917
 20
29.914235
 30
0.0
 10
29.880278
 20
29.914235
 30
0.0
 10
29.853834
 20
29.914235
 30
0.0
 10
29.748000
 20
30.099443
 30
0.0
 10
29.545153
 20
30.946110
 30
0.0
 10
29.404028
 20
31.572290
 30
0.0
  0
LWPOLYLINE
  5
109
100
AcDbEntity
  8
Layer_1
 62
7
100
AcDbPolyline
 90
18
 70
1
 10
31.414861
 20
31.572290
 30
0.0
 10
31.573611
 20
31.572290
 30
0.0
 10
31.591250
 20
31.537013
 30
0.0
 10
31.794097
 20
30.760901
 30
0.0
 10
32.049861
 20
29.737846
 30
0.0
 10
32.252708
 20
29.411526
 30
0.0
 10
32.049861
 20
29.076388
 30
0.0
 10
31.802917
 20
28.070971
 30
0.0
 10
31.591250
 20
27.294860
 30
0.0
 10
31.494236
 20
27.171388
 30
0.0
 10
31.397222
 20
27.294860
 30
0.0
 10
31.185556
 20
28.070971
 30
0.0
 10
30.938611
 20
29.076388
 30
0.0
 10
30.735764
 20
29.411526
 30
0.0
 10
30.938611
 20
29.737846
 30
0.0
 10
31.194375
 20
30.760901
 30
0.0
 10
31.397222
 20
31.537013
 30
0.0
 10
31.414861
 20
31.572290
 30
0.0
  0
LWPOLYLINE
  5
10a
100
AcDbEntity
  8
Layer_1
 62
7
100
AcDbPolyline
 90
11
 70
1
 10
32.640764
 20
31.572290
 30
0.0
 10
33.593264
 20
31.572290
 30
0.0
 10
33.452153
 20
30.946110
 30
0.0
 10
33.240486
 20
30.108263
 30
0.0
 10
33.134653
 20
29.914235
 30
0.0
 10
33.117014
 20
29.914235
 30
0.0
 10
33.099375
 20
29.914235
 30
0.0
 10
33.090541
 20
29.914235
 30
0.0
 10
32.984708
 20
30.108263
 30
0.0
 10
32.781861
 20
30.946110
 30
0.0
 10
32.640764
 20
31.572290
 30
0.0
  0
LWPOLYLINE
  5
10b
100
AcDbEntity
  8
Layer_1
 62
7
100
AcDbPolyline
 90
19
 70
1
 10
34.660417
 20
31.572290
 30
0.0
 10
34.810347
 20
31.572290
 30
0.0
 10
34.827986
 20
31.537013
 30
0.0
 10
35.039653
 20
30.760901
 30
0.0
 10
35.295417
 20
29.737846
 30
0.0
 10
35.498264
 20
29.411526
 30
0.0
 10
35.295417
 20
29.076388
 30
0.0
 10
35.039653
 20
28.070971
 30
0.0
 10
34.836806
 20
27.294860
 30
0.0
 10
34.739792
 20
27.171388
 30
0.0
 10
34.730958
 20
27.171388
 30
0.0
 10
34.633944
 20
27.294860
 30
0.0
 10
34.431097
 20
28.070971
 30
0.0
 10
34.175333
 20
29.076388
 30
0.0
 10
33.972486
 20
29.411526
 30
0.0
 10
34.175333
 20
29.737846
 30
0.0
 10
34.431097
 20
30.760901
 30
0.0
 10
34.642764
 20
31.537013
 30
0.0
 10
34.660417
 20
31.572290
 30
0.0
  0
LWPOLYLINE
  5
10c
100
AcDbEntity
  8
Layer_1
 62
7
100
AcDbPolyline
 90
11
 70
1
 10
35.877500
 20
31.572290
 30
0.0
 10
36.830000
 20
31.572290
 30
0.0
 10
36.688889
 20
30.946110
 30
0.0
 10
36.486042
 20
30.108263
 30
0.0
 10
36.380208
 20
29.914235
 30
0.0
 10
36.371375
 20
29.914235
 30
0.0
 10
36.353736
 20
29.914235
 30
0.0
 10
36.336097
 20
29.914235
 30
0.0
 10
36.221444
 20
30.108263
 30
0.0
 10
36.018611
 20
30.946110
 30
0.0
 10
35.877500
 20
31.572290
 30
0.0
  0
LWPOLYLINE
  5
10d
100
AcDbEntity
  8
Layer_1
 62
7
100
AcDbPolyline
 90
18
 70
1
 10
37.897153
 20
31.572290
 30
0.0
 10
38.055903
 20
31.572290
 30
0.0
 10
38.073542
 20
31.537013
 30
0.0
 10
38.285208
 20
30.760901
 30
0.0
 10
38.532153
 20
29.737846
 30
0.0
 10
38.735000
 20
29.411526
 30
0.0
 10
38.532153
 20
29.076388
 30
0.0
 10
38.285208
 20
28.070971
 30
0.0
 10
38.073542
 20
27.294860
 30
0.0
 10
37.976528
 20
27.171388
 30
0.0
 10
37.879514
 20
27.294860
 30
0.0
 10
37.667847
 20
28.070971
 30
0.0
 10
37.420903
 20
29.076388
 30
0.0
 10
37.218056
 20
29.411526
 30
0.0
 10
37.420903
 20
29.737846
 30
0.0
 10
37.667847
 20
30.760901
 30
0.0
 10
37.879514
 20
31.537013
 30
0.0
 10
37.897153
 20
31.572290
 30
0.0
  0
LWPOLYLINE
  5
10e
100
AcDbEntity
  8
Layer_1
 62
7
100
AcDbPolyline
 90
12
 70
1
 10
39.123056
 20
31.572290
 30
0.0
 10
40.075556
 20
31.572290
 30
0.0
 10
39.934444
 20
30.946110
 30
0.0
 10
39.731597
 20
30.108263
 30
0.0
 10
39.625764
 20
29.914235
 30
0.0
 10
39.616930
 20
29.914235
 30
0.0
 10
39.599291
 20
29.914235
 30
0.0
 10
39.581653
 20
29.914235
 30
0.0
 10
39.572819
 20
29.914235
 30
0.0
 10
39.466986
 20
30.108263
 30
0.0
 10
39.264167
 20
30.946110
 30
0.0
 10
39.123056
 20
31.572290
 30
0.0
  0
LWPOLYLINE
  5
10f
100
AcDbEntity
  8
Layer_1
 62
7
100
AcDbPolyline
 90
11
 70
1
 10
41.142708
 20
31.572290
 30
0.0
 10
41.186806
 20
31.572290
 30
0.0
 10
41.186806
 20
27.171388
 30
0.0
 10
41.116250
 20
27.294860
 30
0.0
 10
40.913403
 20
28.070971
 30
0.0
 10
40.666458
 20
29.076388
 30
0.0
 10
40.463611
 20
29.420346
 30
0.0
 10
40.657639
 20
29.737846
 30
0.0
 10
40.913403
 20
30.760901
 30
0.0
 10
41.125069
 20
31.537013
 30
0.0
 10
41.142708
 20
31.572290
 30
0.0
  0
LWPOLYLINE
  5
110
100
AcDbEntity
  8
Layer_1
 62
7
100
AcDbPolyline
 90
22
 70
1
 10
20.134792
 20
28.908818
 30
0.0
 10
20.152431
 20
28.908818
 30
0.0
 10
20.170069
 20
28.908818
 30
0.0
 10
20.178889
 20
28.908818
 30
0.0
 10
20.284722
 20
28.714790
 30
0.0
 10
20.487569
 20
27.876943
 30
0.0
 10
20.769792
 20
26.871526
 30
0.0
 10
20.928542
 20
26.668679
 30
0.0
 10
20.769792
 20
26.474651
 30
0.0
 10
20.487569
 20
25.460415
 30
0.0
 10
20.284722
 20
24.622568
 30
0.0
 10
20.178889
 20
24.437360
 30
0.0
 10
20.152431
 20
24.437360
 30
0.0
 10
20.134792
 20
24.437360
 30
0.0
 10
20.028958
 20
24.622568
 30
0.0
 10
19.826111
 20
25.460415
 30
0.0
 10
19.535069
 20
26.474651
 30
0.0
 10
19.376319
 20
26.668679
 30
0.0
 10
19.535069
 20
26.871526
 30
0.0
 10
19.826111
 20
27.876943
 30
0.0
 10
20.028958
 20
28.714790
 30
0.0
 10
20.134792
 20
28.908818
 30
0.0
  0
LWPOLYLINE
  5
111
100
AcDbEntity
  8
Layer_1
 62
7
100
AcDbPolyline
 90
23
 70
1
 10
23.371528
 20
28.908818
 30
0.0
 10
23.380347
 20
28.908818
 30
0.0
 10
23.397986
 20
28.908818
 30
0.0
 10
23.415625
 20
28.908818
 30
0.0
 10
23.424444
 20
28.908818
 30
0.0
 10
23.530278
 20
28.714790
 30
0.0
 10
23.733125
 20
27.876943
 30
0.0
 10
24.015347
 20
26.871526
 30
0.0
 10
24.174097
 20
26.668679
 30
0.0
 10
24.015347
 20
26.474651
 30
0.0
 10
23.733125
 20
25.460415
 30
0.0
 10
23.530278
 20
24.622568
 30
0.0
 10
23.424444
 20
24.437360
 30
0.0
 10
23.397986
 20
24.437360
 30
0.0
 10
23.371528
 20
24.437360
 30
0.0
 10
23.265694
 20
24.622568
 30
0.0
 10
23.062847
 20
25.460415
 30
0.0
 10
22.780625
 20
26.474651
 30
0.0
 10
22.621875
 20
26.668679
 30
0.0
 10
22.780625
 20
26.871526
 30
0.0
 10
23.062847
 20
27.876943
 30
0.0
 10
23.265694
 20
28.714790
 30
0.0
 10
23.371528
 20
28.908818
 30
0.0
  0
LWPOLYLINE
  5
112
100
AcDbEntity
  8
Layer_1
 62
7
100
AcDbPolyline
 90
22
 70
1
 10
26.617083
 20
28.908818
 30
0.0
 10
26.625903
 20
28.908818
 30
0.0
 10
26.643542
 20
28.908818
 30
0.0
 10
26.661181
 20
28.908818
 30
0.0
 10
26.767014
 20
28.714790
 30
0.0
 10
26.969861
 20
27.876943
 30
0.0
 10
27.260903
 20
26.871526
 30
0.0
 10
27.419653
 20
26.668679
 30
0.0
 10
27.260903
 20
26.474651
 30
0.0
 10
26.969861
 20
25.460415
 30
0.0
 10
26.767014
 20
24.622568
 30
0.0
 10
26.661181
 20
24.437360
 30
0.0
 10
26.643542
 20
24.437360
 30
0.0
 10
26.617083
 20
24.437360
 30
0.0
 10
26.511250
 20
24.622568
 30
0.0
 10
26.308403
 20
25.460415
 30
0.0
 10
26.017361
 20
26.474651
 30
0.0
 10
25.858611
 20
26.668679
 30
0.0
 10
26.017361
 20
26.871526
 30
0.0
 10
26.308403
 20
27.876943
 30
0.0
 10
26.511250
 20
28.714790
 30
0.0
 10
26.617083
 20
28.908818
 30
0.0
  0
LWPOLYLINE
  5
113
100
AcDbEntity
  8
Layer_1
 62
7
100
AcDbPolyline
 90
22
 70
1
 10
29.853819
 20
28.908818
 30
0.0
 10
29.862653
 20
28.908818
 30
0.0
 10
29.880292
 20
28.908818
 30
0.0
 10
29.897931
 20
28.908818
 30
0.0
 10
30.003764
 20
28.714790
 30
0.0
 10
30.206611
 20
27.876943
 30
0.0
 10
30.488834
 20
26.871526
 30
0.0
 10
30.647584
 20
26.668679
 30
0.0
 10
30.488834
 20
26.474651
 30
0.0
 10
30.206611
 20
25.460415
 30
0.0
 10
30.003764
 20
24.622568
 30
0.0
 10
29.897931
 20
24.437360
 30
0.0
 10
29.880292
 20
24.437360
 30
0.0
 10
29.853848
 20
24.437360
 30
0.0
 10
29.748014
 20
24.622568
 30
0.0
 10
29.545167
 20
25.460415
 30
0.0
 10
29.262945
 20
26.474651
 30
0.0
 10
29.104195
 20
26.668679
 30
0.0
 10
29.262945
 20
26.871526
 30
0.0
 10
29.545167
 20
27.876943
 30
0.0
 10
29.748014
 20
28.714790
 30
0.0
 10
29.853819
 20
28.908818
 30
0.0
  0
LWPOLYLINE
  5
114
100
AcDbEntity
  8
Layer_1
 62
7
100
AcDbPolyline
 90
24
 70
1
 10
33.090556
 20
28.908818
 30
0.0
 10
33.099389
 20
28.908818
 30
0.0
 10
33.117028
 20
28.908818
 30
0.0
 10
33.134667
 20
28.908818
 30
0.0
 10
33.143500
 20
28.908818
 30
0.0
 10
33.249334
 20
28.714790
 30
0.0
 10
33.452181
 20
27.876943
 30
0.0
 10
33.734403
 20
26.871526
 30
0.0
 10
33.893153
 20
26.668679
 30
0.0
 10
33.734403
 20
26.474651
 30
0.0
 10
33.452181
 20
25.460415
 30
0.0
 10
33.249334
 20
24.622568
 30
0.0
 10
33.143500
 20
24.437360
 30
0.0
 10
33.134667
 20
24.437360
 30
0.0
 10
33.117028
 20
24.437360
 30
0.0
 10
33.090584
 20
24.437360
 30
0.0
 10
32.984750
 20
24.622568
 30
0.0
 10
32.781903
 20
25.460415
 30
0.0
 10
32.499681
 20
26.474651
 30
0.0
 10
32.340931
 20
26.668679
 30
0.0
 10
32.499681
 20
26.871526
 30
0.0
 10
32.781903
 20
27.876943
 30
0.0
 10
32.984750
 20
28.714790
 30
0.0
 10
33.090556
 20
28.908818
 30
0.0
  0
LWPOLYLINE
  5
115
100
AcDbEntity
  8
Layer_1
 62
7
100
AcDbPolyline
 90
22
 70
1
 10
36.336111
 20
28.908818
 30
0.0
 10
36.353750
 20
28.908818
 30
0.0
 10
36.371389
 20
28.908818
 30
0.0
 10
36.380222
 20
28.908818
 30
0.0
 10
36.486056
 20
28.714790
 30
0.0
 10
36.688903
 20
27.876943
 30
0.0
 10
36.971125
 20
26.871526
 30
0.0
 10
37.129875
 20
26.668679
 30
0.0
 10
36.971125
 20
26.474651
 30
0.0
 10
36.688903
 20
25.460415
 30
0.0
 10
36.486056
 20
24.622568
 30
0.0
 10
36.380222
 20
24.437360
 30
0.0
 10
36.353778
 20
24.437360
 30
0.0
 10
36.336139
 20
24.437360
 30
0.0
 10
36.221487
 20
24.622568
 30
0.0
 10
36.027459
 20
25.460415
 30
0.0
 10
35.736417
 20
26.474651
 30
0.0
 10
35.577667
 20
26.668679
 30
0.0
 10
35.736417
 20
26.871526
 30
0.0
 10
36.027459
 20
27.876943
 30
0.0
 10
36.221487
 20
28.714790
 30
0.0
 10
36.336111
 20
28.908818
 30
0.0
  0
LWPOLYLINE
  5
116
100
AcDbEntity
  8
Layer_1
 62
7
100
AcDbPolyline
 90
23
 70
1
 10
39.572847
 20
28.908818
 30
0.0
 10
39.581681
 20
28.908818
 30
0.0
 10
39.599320
 20
28.908818
 30
0.0
 10
39.616959
 20
28.908818
 30
0.0
 10
39.625792
 20
28.908818
 30
0.0
 10
39.731625
 20
28.714790
 30
0.0
 10
39.934473
 20
27.876943
 30
0.0
 10
40.216695
 20
26.871526
 30
0.0
 10
40.375445
 20
26.668679
 30
0.0
 10
40.216695
 20
26.474651
 30
0.0
 10
39.934473
 20
25.460415
 30
0.0
 10
39.731625
 20
24.622568
 30
0.0
 10
39.625792
 20
24.437360
 30
0.0
 10
39.599348
 20
24.437360
 30
0.0
 10
39.572904
 20
24.437360
 30
0.0
 10
39.467070
 20
24.622568
 30
0.0
 10
39.264223
 20
25.460415
 30
0.0
 10
38.982001
 20
26.474651
 30
0.0
 10
38.823251
 20
26.668679
 30
0.0
 10
38.982001
 20
26.871526
 30
0.0
 10
39.264223
 20
27.876943
 30
0.0
 10
39.467070
 20
28.714790
 30
0.0
 10
39.572847
 20
28.908818
 30
0.0
  0
LWPOLYLINE
  5
117
100
AcDbEntity
  8
Layer_1
 62
7
100
AcDbPolyline
 90
10
 70
1
 10
18.564931
 20
26.174790
 30
0.0
 10
18.635486
 20
26.042499
 30
0.0
 10
18.838333
 20
25.275207
 30
0.0
 10
19.094097
 20
24.260971
 30
0.0
 10
19.296944
 20
23.934651
 30
0.0
 10
19.094097
 20
23.599513
 30
0.0
 10
18.838333
 20
22.594096
 30
0.0
 10
18.635486
 20
21.817985
 30
0.0
 10
18.564931
 20
21.694513
 30
0.0
 10
18.564931
 20
26.174790
 30
0.0
  0
LWPOLYLINE
  5
118
100
AcDbEntity
  8
Layer_1
 62
7
100
AcDbPolyline
 90
20
 70
1
 10
21.748750
 20
26.174790
 30
0.0
 10
21.775208
 20
26.174790
 30
0.0
 10
21.784028
 20
26.174790
 30
0.0
 10
21.872222
 20
26.042499
 30
0.0
 10
22.083889
 20
25.275207
 30
0.0
 10
22.330833
 20
24.260971
 30
0.0
 10
22.533681
 20
23.934651
 30
0.0
 10
22.330833
 20
23.599513
 30
0.0
 10
22.083889
 20
22.585276
 30
0.0
 10
21.872222
 20
21.817985
 30
0.0
 10
21.784028
 20
21.694513
 30
0.0
 10
21.775208
 20
21.694513
 30
0.0
 10
21.678194
 20
21.817985
 30
0.0
 10
21.466528
 20
22.585276
 30
0.0
 10
21.219583
 20
23.599513
 30
0.0
 10
21.016736
 20
23.934651
 30
0.0
 10
21.219583
 20
24.260971
 30
0.0
 10
21.466528
 20
25.275207
 30
0.0
 10
21.678194
 20
26.042499
 30
0.0
 10
21.748750
 20
26.174790
 30
0.0
  0
LWPOLYLINE
  5
119
100
AcDbEntity
  8
Layer_1
 62
7
100
AcDbPolyline
 90
20
 70
1
 10
24.985486
 20
26.174790
 30
0.0
 10
25.011944
 20
26.174790
 30
0.0
 10
25.020764
 20
26.174790
 30
0.0
 10
25.117778
 20
26.042499
 30
0.0
 10
25.320625
 20
25.275207
 30
0.0
 10
25.576389
 20
24.260971
 30
0.0
 10
25.779236
 20
23.934651
 30
0.0
 10
25.576389
 20
23.599513
 30
0.0
 10
25.320625
 20
22.585276
 30
0.0
 10
25.117778
 20
21.817985
 30
0.0
 10
25.020764
 20
21.694513
 30
0.0
 10
25.011944
 20
21.694513
 30
0.0
 10
24.923750
 20
21.817985
 30
0.0
 10
24.712083
 20
22.585276
 30
0.0
 10
24.465139
 20
23.599513
 30
0.0
 10
24.262292
 20
23.934651
 30
0.0
 10
24.465139
 20
24.260971
 30
0.0
 10
24.712083
 20
25.275207
 30
0.0
 10
24.923750
 20
26.042499
 30
0.0
 10
24.985486
 20
26.174790
 30
0.0
  0
LWPOLYLINE
  5
11a
100
AcDbEntity
  8
Layer_1
 62
7
100
AcDbPolyline
 90
20
 70
1
 10
28.231042
 20
26.174790
 30
0.0
 10
28.257486
 20
26.174790
 30
0.0
 10
28.266319
 20
26.174790
 30
0.0
 10
28.363333
 20
26.051318
 30
0.0
 10
28.566181
 20
25.275207
 30
0.0
 10
28.813125
 20
24.260971
 30
0.0
 10
29.015972
 20
23.934651
 30
0.0
 10
28.813125
 20
23.599513
 30
0.0
 10
28.566181
 20
22.585276
 30
0.0
 10
28.363333
 20
21.817985
 30
0.0
 10
28.266319
 20
21.694513
 30
0.0
 10
28.257486
 20
21.694513
 30
0.0
 10
28.160472
 20
21.817985
 30
0.0
 10
27.957625
 20
22.585276
 30
0.0
 10
27.701861
 20
23.599513
 30
0.0
 10
27.499014
 20
23.934651
 30
0.0
 10
27.701861
 20
24.260971
 30
0.0
 10
27.957625
 20
25.275207
 30
0.0
 10
28.160472
 20
26.042499
 30
0.0
 10
28.231042
 20
26.174790
 30
0.0
  0
LWPOLYLINE
  5
11b
100
AcDbEntity
  8
Layer_1
 62
7
100
AcDbPolyline
 90
18
 70
1
 10
31.467778
 20
26.174790
 30
0.0
 10
31.494222
 20
26.174790
 30
0.0
 10
31.591236
 20
26.042499
 30
0.0
 10
31.802903
 20
25.275207
 30
0.0
 10
32.049847
 20
24.260971
 30
0.0
 10
32.252694
 20
23.934651
 30
0.0
 10
32.049847
 20
23.599513
 30
0.0
 10
31.802903
 20
22.594096
 30
0.0
 10
31.591236
 20
21.817985
 30
0.0
 10
31.494222
 20
21.694513
 30
0.0
 10
31.397208
 20
21.817985
 30
0.0
 10
31.185541
 20
22.585276
 30
0.0
 10
30.938597
 20
23.599513
 30
0.0
 10
30.735750
 20
23.934651
 30
0.0
 10
30.938597
 20
24.260971
 30
0.0
 10
31.185541
 20
25.275207
 30
0.0
 10
31.397208
 20
26.042499
 30
0.0
 10
31.467778
 20
26.174790
 30
0.0
  0
LWPOLYLINE
  5
11c
100
AcDbEntity
  8
Layer_1
 62
7
100
AcDbPolyline
 90
20
 70
1
 10
34.704514
 20
26.174790
 30
0.0
 10
34.730958
 20
26.174790
 30
0.0
 10
34.739792
 20
26.174790
 30
0.0
 10
34.836806
 20
26.042499
 30
0.0
 10
35.039653
 20
25.275207
 30
0.0
 10
35.295417
 20
24.260971
 30
0.0
 10
35.498264
 20
23.934651
 30
0.0
 10
35.295417
 20
23.599513
 30
0.0
 10
35.039653
 20
22.594096
 30
0.0
 10
34.836806
 20
21.817985
 30
0.0
 10
34.739792
 20
21.694513
 30
0.0
 10
34.730958
 20
21.694513
 30
0.0
 10
34.633944
 20
21.817985
 30
0.0
 10
34.431097
 20
22.594096
 30
0.0
 10
34.175333
 20
23.599513
 30
0.0
 10
33.972486
 20
23.934651
 30
0.0
 10
34.175333
 20
24.260971
 30
0.0
 10
34.431097
 20
25.275207
 30
0.0
 10
34.633944
 20
26.042499
 30
0.0
 10
34.704514
 20
26.174790
 30
0.0
  0
LWPOLYLINE
  5
11d
100
AcDbEntity
  8
Layer_1
 62
7
100
AcDbPolyline
 90
18
 70
1
 10
37.950069
 20
26.174790
 30
0.0
 10
37.976514
 20
26.174790
 30
0.0
 10
38.073528
 20
26.042499
 30
0.0
 10
38.285194
 20
25.275207
 30
0.0
 10
38.532139
 20
24.260971
 30
0.0
 10
38.734986
 20
23.934651
 30
0.0
 10
38.532139
 20
23.599513
 30
0.0
 10
38.285194
 20
22.594096
 30
0.0
 10
38.073528
 20
21.817985
 30
0.0
 10
37.976514
 20
21.694513
 30
0.0
 10
37.879500
 20
21.817985
 30
0.0
 10
37.667833
 20
22.594096
 30
0.0
 10
37.420889
 20
23.599513
 30
0.0
 10
37.218041
 20
23.934651
 30
0.0
 10
37.420889
 20
24.260971
 30
0.0
 10
37.667833
 20
25.275207
 30
0.0
 10
37.879500
 20
26.042499
 30
0.0
 10
37.950069
 20
26.174790
 30
0.0
  0
LWPOLYLINE
  5
11e
100
AcDbEntity
  8
Layer_1
 62
7
100
AcDbPolyline
 90
10
 70
1
 10
41.186806
 20
26.174790
 30
0.0
 10
41.186806
 20
21.694513
 30
0.0
 10
41.116250
 20
21.817985
 30
0.0
 10
40.913403
 20
22.585276
 30
0.0
 10
40.666458
 20
23.599513
 30
0.0
 10
40.463611
 20
23.934651
 30
0.0
 10
40.666458
 20
24.260971
 30
0.0
 10
40.913403
 20
25.275207
 30
0.0
 10
41.116250
 20
26.042499
 30
0.0
 10
41.186806
 20
26.174790
 30
0.0
  0
LWPOLYLINE
  5
11f
100
AcDbEntity
  8
Layer_1
 62
7
100
AcDbPolyline
 90
22
 70
1
 10
20.134792
 20
23.423124
 30
0.0
 10
20.152431
 20
23.423124
 30
0.0
 10
20.170069
 20
23.423124
 30
0.0
 10
20.178889
 20
23.423124
 30
0.0
 10
20.284722
 20
23.237915
 30
0.0
 10
20.487569
 20
22.400068
 30
0.0
 10
20.769792
 20
21.385832
 30
0.0
 10
20.928542
 20
21.191804
 30
0.0
 10
20.769792
 20
20.997776
 30
0.0
 10
20.487569
 20
19.983540
 30
0.0
 10
20.284722
 20
19.145693
 30
0.0
 10
20.178889
 20
18.960485
 30
0.0
 10
20.152431
 20
18.960485
 30
0.0
 10
20.134792
 20
18.960485
 30
0.0
 10
20.028958
 20
19.145693
 30
0.0
 10
19.826111
 20
19.983540
 30
0.0
 10
19.535069
 20
20.997776
 30
0.0
 10
19.385139
 20
21.191804
 30
0.0
 10
19.535069
 20
21.385832
 30
0.0
 10
19.826111
 20
22.400068
 30
0.0
 10
20.028958
 20
23.237915
 30
0.0
 10
20.134792
 20
23.423124
 30
0.0
  0
LWPOLYLINE
  5
120
100
AcDbEntity
  8
Layer_1
 62
7
100
AcDbPolyline
 90
22
 70
1
 10
23.371528
 20
23.423124
 30
0.0
 10
23.397986
 20
23.423124
 30
0.0
 10
23.415625
 20
23.423124
 30
0.0
 10
23.424444
 20
23.423124
 30
0.0
 10
23.530278
 20
23.237915
 30
0.0
 10
23.733125
 20
22.400068
 30
0.0
 10
24.015347
 20
21.385832
 30
0.0
 10
24.165278
 20
21.191804
 30
0.0
 10
24.015347
 20
20.997776
 30
0.0
 10
23.733125
 20
19.983540
 30
0.0
 10
23.530278
 20
19.145693
 30
0.0
 10
23.424444
 20
18.960485
 30
0.0
 10
23.397986
 20
18.960485
 30
0.0
 10
23.371528
 20
18.960485
 30
0.0
 10
23.265694
 20
19.145693
 30
0.0
 10
23.062847
 20
19.983540
 30
0.0
 10
22.780625
 20
20.997776
 30
0.0
 10
22.630694
 20
21.191804
 30
0.0
 10
22.780625
 20
21.385832
 30
0.0
 10
23.062847
 20
22.400068
 30
0.0
 10
23.265694
 20
23.237915
 30
0.0
 10
23.371528
 20
23.423124
 30
0.0
  0
LWPOLYLINE
  5
121
100
AcDbEntity
  8
Layer_1
 62
7
100
AcDbPolyline
 90
22
 70
1
 10
26.617083
 20
23.423124
 30
0.0
 10
26.643542
 20
23.423124
 30
0.0
 10
26.652361
 20
23.423124
 30
0.0
 10
26.661181
 20
23.423124
 30
0.0
 10
26.767014
 20
23.237915
 30
0.0
 10
26.969861
 20
22.400068
 30
0.0
 10
27.260903
 20
21.385832
 30
0.0
 10
27.410833
 20
21.191804
 30
0.0
 10
27.260903
 20
20.997776
 30
0.0
 10
26.969861
 20
19.983540
 30
0.0
 10
26.767014
 20
19.145693
 30
0.0
 10
26.661181
 20
18.960485
 30
0.0
 10
26.643542
 20
18.960485
 30
0.0
 10
26.617083
 20
18.960485
 30
0.0
 10
26.511250
 20
19.145693
 30
0.0
 10
26.308403
 20
19.983540
 30
0.0
 10
26.017361
 20
20.997776
 30
0.0
 10
25.867431
 20
21.191804
 30
0.0
 10
26.017361
 20
21.385832
 30
0.0
 10
26.308403
 20
22.400068
 30
0.0
 10
26.511250
 20
23.237915
 30
0.0
 10
26.617083
 20
23.423124
 30
0.0
  0
LWPOLYLINE
  5
122
100
AcDbEntity
  8
Layer_1
 62
7
100
AcDbPolyline
 90
22
 70
1
 10
29.853819
 20
23.423124
 30
0.0
 10
29.880264
 20
23.423124
 30
0.0
 10
29.889097
 20
23.423124
 30
0.0
 10
29.897931
 20
23.423124
 30
0.0
 10
30.003764
 20
23.237915
 30
0.0
 10
30.206611
 20
22.400068
 30
0.0
 10
30.488834
 20
21.385832
 30
0.0
 10
30.638764
 20
21.191804
 30
0.0
 10
30.488834
 20
20.997776
 30
0.0
 10
30.206611
 20
19.983540
 30
0.0
 10
30.003764
 20
19.145693
 30
0.0
 10
29.897931
 20
18.960485
 30
0.0
 10
29.880292
 20
18.960485
 30
0.0
 10
29.853848
 20
18.960485
 30
0.0
 10
29.748014
 20
19.145693
 30
0.0
 10
29.545167
 20
19.983540
 30
0.0
 10
29.262945
 20
20.997776
 30
0.0
 10
29.113014
 20
21.191804
 30
0.0
 10
29.262945
 20
21.385832
 30
0.0
 10
29.545167
 20
22.400068
 30
0.0
 10
29.748014
 20
23.237915
 30
0.0
 10
29.853819
 20
23.423124
 30
0.0
  0
LWPOLYLINE
  5
123
100
AcDbEntity
  8
Layer_1
 62
7
100
AcDbPolyline
 90
22
 70
1
 10
33.090556
 20
23.423124
 30
0.0
 10
33.117000
 20
23.423124
 30
0.0
 10
33.134639
 20
23.423124
 30
0.0
 10
33.143472
 20
23.423124
 30
0.0
 10
33.249306
 20
23.237915
 30
0.0
 10
33.452153
 20
22.400068
 30
0.0
 10
33.734375
 20
21.385832
 30
0.0
 10
33.884306
 20
21.191804
 30
0.0
 10
33.734375
 20
20.997776
 30
0.0
 10
33.452153
 20
19.983540
 30
0.0
 10
33.249306
 20
19.145693
 30
0.0
 10
33.143472
 20
18.960485
 30
0.0
 10
33.117028
 20
18.960485
 30
0.0
 10
33.090584
 20
18.960485
 30
0.0
 10
32.984750
 20
19.145693
 30
0.0
 10
32.781903
 20
19.983540
 30
0.0
 10
32.499681
 20
20.997776
 30
0.0
 10
32.340931
 20
21.191804
 30
0.0
 10
32.499681
 20
21.385832
 30
0.0
 10
32.781903
 20
22.400068
 30
0.0
 10
32.984750
 20
23.237915
 30
0.0
 10
33.090556
 20
23.423124
 30
0.0
  0
LWPOLYLINE
  5
124
100
AcDbEntity
  8
Layer_1
 62
7
100
AcDbPolyline
 90
22
 70
1
 10
36.336111
 20
23.423124
 30
0.0
 10
36.353750
 20
23.423124
 30
0.0
 10
36.371389
 20
23.423124
 30
0.0
 10
36.380222
 20
23.423124
 30
0.0
 10
36.486056
 20
23.237915
 30
0.0
 10
36.688903
 20
22.400068
 30
0.0
 10
36.971125
 20
21.385832
 30
0.0
 10
37.129875
 20
21.191804
 30
0.0
 10
36.971111
 20
20.997776
 30
0.0
 10
36.688889
 20
19.983540
 30
0.0
 10
36.486042
 20
19.145693
 30
0.0
 10
36.380208
 20
18.960485
 30
0.0
 10
36.353764
 20
18.960485
 30
0.0
 10
36.336125
 20
18.960485
 30
0.0
 10
36.221472
 20
19.145693
 30
0.0
 10
36.027445
 20
19.983540
 30
0.0
 10
35.736389
 20
20.997776
 30
0.0
 10
35.586458
 20
21.191804
 30
0.0
 10
35.736389
 20
21.385832
 30
0.0
 10
36.027431
 20
22.400068
 30
0.0
 10
36.221458
 20
23.237915
 30
0.0
 10
36.336111
 20
23.423124
 30
0.0
  0
LWPOLYLINE
  5
125
100
AcDbEntity
  8
Layer_1
 62
7
100
AcDbPolyline
 90
22
 70
1
 10
39.572847
 20
23.423124
 30
0.0
 10
39.599291
 20
23.423124
 30
0.0
 10
39.616930
 20
23.423124
 30
0.0
 10
39.625764
 20
23.423124
 30
0.0
 10
39.731597
 20
23.237915
 30
0.0
 10
39.934444
 20
22.400068
 30
0.0
 10
40.216667
 20
21.385832
 30
0.0
 10
40.366597
 20
21.191804
 30
0.0
 10
40.216667
 20
20.997776
 30
0.0
 10
39.934444
 20
19.983540
 30
0.0
 10
39.731597
 20
19.145693
 30
0.0
 10
39.625764
 20
18.960485
 30
0.0
 10
39.599320
 20
18.960485
 30
0.0
 10
39.572875
 20
18.960485
 30
0.0
 10
39.467042
 20
19.145693
 30
0.0
 10
39.264195
 20
19.983540
 30
0.0
 10
38.981973
 20
20.997776
 30
0.0
 10
38.832042
 20
21.191804
 30
0.0
 10
38.981973
 20
21.385832
 30
0.0
 10
39.264195
 20
22.400068
 30
0.0
 10
39.467042
 20
23.237915
 30
0.0
 10
39.572847
 20
23.423124
 30
0.0
  0
LWPOLYLINE
  5
126
100
AcDbEntity
  8
Layer_1
 62
7
100
AcDbPolyline
 90
11
 70
1
 10
18.564931
 20
20.689096
 30
0.0
 10
18.635486
 20
20.565624
 30
0.0
 10
18.838333
 20
19.789513
 30
0.0
 10
19.094097
 20
18.784096
 30
0.0
 10
19.296944
 20
18.457776
 30
0.0
 10
19.129375
 20
18.202013
 30
0.0
 10
18.873611
 20
17.267151
 30
0.0
 10
18.688403
 20
16.473401
 30
0.0
 10
18.644306
 20
16.367568
 30
0.0
 10
18.564931
 20
16.367568
 30
0.0
 10
18.564931
 20
20.689096
 30
0.0
  0
LWPOLYLINE
  5
127
100
AcDbEntity
  8
Layer_1
 62
7
100
AcDbPolyline
 90
20
 70
1
 10
21.748750
 20
20.689096
 30
0.0
 10
21.775208
 20
20.689096
 30
0.0
 10
21.784028
 20
20.689096
 30
0.0
 10
21.872222
 20
20.565624
 30
0.0
 10
22.083889
 20
19.789513
 30
0.0
 10
22.330833
 20
18.784096
 30
0.0
 10
22.533681
 20
18.448957
 30
0.0
 10
22.366111
 20
18.202013
 30
0.0
 10
22.110347
 20
17.267151
 30
0.0
 10
21.933958
 20
16.473401
 30
0.0
 10
21.889861
 20
16.367568
 30
0.0
 10
21.669375
 20
16.367568
 30
0.0
 10
21.625278
 20
16.473401
 30
0.0
 10
21.440069
 20
17.267151
 30
0.0
 10
21.184306
 20
18.202013
 30
0.0
 10
21.016736
 20
18.448957
 30
0.0
 10
21.219583
 20
18.784096
 30
0.0
 10
21.466528
 20
19.789513
 30
0.0
 10
21.678194
 20
20.565624
 30
0.0
 10
21.748750
 20
20.689096
 30
0.0
  0
LWPOLYLINE
  5
128
100
AcDbEntity
  8
Layer_1
 62
7
100
AcDbPolyline
 90
20
 70
1
 10
24.985486
 20
20.689096
 30
0.0
 10
25.011944
 20
20.689096
 30
0.0
 10
25.020764
 20
20.689096
 30
0.0
 10
25.117778
 20
20.565624
 30
0.0
 10
25.320625
 20
19.789513
 30
0.0
 10
25.576389
 20
18.784096
 30
0.0
 10
25.779236
 20
18.457776
 30
0.0
 10
25.611667
 20
18.202013
 30
0.0
 10
25.355903
 20
17.267151
 30
0.0
 10
25.170694
 20
16.473401
 30
0.0
 10
25.126597
 20
16.367568
 30
0.0
 10
24.906111
 20
16.367568
 30
0.0
 10
24.862014
 20
16.473401
 30
0.0
 10
24.685625
 20
17.267151
 30
0.0
 10
24.429861
 20
18.202013
 30
0.0
 10
24.262292
 20
18.448957
 30
0.0
 10
24.465139
 20
18.784096
 30
0.0
 10
24.712083
 20
19.789513
 30
0.0
 10
24.923750
 20
20.565624
 30
0.0
 10
24.985486
 20
20.689096
 30
0.0
  0
LWPOLYLINE
  5
129
100
AcDbEntity
  8
Layer_1
 62
7
100
AcDbPolyline
 90
20
 70
1
 10
28.231042
 20
20.689096
 30
0.0
 10
28.257486
 20
20.689096
 30
0.0
 10
28.266319
 20
20.689096
 30
0.0
 10
28.363333
 20
20.565624
 30
0.0
 10
28.566181
 20
19.798332
 30
0.0
 10
28.813125
 20
18.784096
 30
0.0
 10
29.015972
 20
18.448957
 30
0.0
 10
28.848403
 20
18.202013
 30
0.0
 10
28.592639
 20
17.267151
 30
0.0
 10
28.416250
 20
16.473401
 30
0.0
 10
28.372153
 20
16.367568
 30
0.0
 10
28.151667
 20
16.367568
 30
0.0
 10
28.107569
 20
16.473401
 30
0.0
 10
27.922361
 20
17.267151
 30
0.0
 10
27.666597
 20
18.202013
 30
0.0
 10
27.499028
 20
18.457776
 30
0.0
 10
27.701875
 20
18.784096
 30
0.0
 10
27.957639
 20
19.789513
 30
0.0
 10
28.160486
 20
20.565624
 30
0.0
 10
28.231042
 20
20.689096
 30
0.0
  0
LWPOLYLINE
  5
12a
100
AcDbEntity
  8
Layer_1
 62
7
100
AcDbPolyline
 90
19
 70
1
 10
31.467778
 20
20.689096
 30
0.0
 10
31.494222
 20
20.689096
 30
0.0
 10
31.591236
 20
20.565624
 30
0.0
 10
31.802903
 20
19.789513
 30
0.0
 10
32.049847
 20
18.784096
 30
0.0
 10
32.252694
 20
18.448957
 30
0.0
 10
32.085125
 20
18.202013
 30
0.0
 10
31.829361
 20
17.267151
 30
0.0
 10
31.644153
 20
16.473401
 30
0.0
 10
31.600055
 20
16.367568
 30
0.0
 10
31.388389
 20
16.367568
 30
0.0
 10
31.344291
 20
16.473401
 30
0.0
 10
31.159083
 20
17.267151
 30
0.0
 10
30.903333
 20
18.202013
 30
0.0
 10
30.735764
 20
18.457776
 30
0.0
 10
30.938611
 20
18.784096
 30
0.0
 10
31.185556
 20
19.789513
 30
0.0
 10
31.397222
 20
20.565624
 30
0.0
 10
31.467778
 20
20.689096
 30
0.0
  0
LWPOLYLINE
  5
12b
100
AcDbEntity
  8
Layer_1
 62
7
100
AcDbPolyline
 90
20
 70
1
 10
34.704514
 20
20.689096
 30
0.0
 10
34.730958
 20
20.689096
 30
0.0
 10
34.739792
 20
20.689096
 30
0.0
 10
34.836806
 20
20.565624
 30
0.0
 10
35.039653
 20
19.789513
 30
0.0
 10
35.295417
 20
18.784096
 30
0.0
 10
35.498264
 20
18.457776
 30
0.0
 10
35.330694
 20
18.202013
 30
0.0
 10
35.074931
 20
17.267151
 30
0.0
 10
34.889722
 20
16.473401
 30
0.0
 10
34.845625
 20
16.367568
 30
0.0
 10
34.625139
 20
16.367568
 30
0.0
 10
34.581042
 20
16.473401
 30
0.0
 10
34.395833
 20
17.267151
 30
0.0
 10
34.140069
 20
18.202013
 30
0.0
 10
33.972500
 20
18.457776
 30
0.0
 10
34.175347
 20
18.784096
 30
0.0
 10
34.431111
 20
19.789513
 30
0.0
 10
34.633958
 20
20.565624
 30
0.0
 10
34.704514
 20
20.689096
 30
0.0
  0
LWPOLYLINE
  5
12c
100
AcDbEntity
  8
Layer_1
 62
7
100
AcDbPolyline
 90
19
 70
1
 10
37.950069
 20
20.689096
 30
0.0
 10
37.976514
 20
20.689096
 30
0.0
 10
38.073528
 20
20.565624
 30
0.0
 10
38.285194
 20
19.789513
 30
0.0
 10
38.532139
 20
18.784096
 30
0.0
 10
38.734986
 20
18.448957
 30
0.0
 10
38.567416
 20
18.202013
 30
0.0
 10
38.311653
 20
17.267151
 30
0.0
 10
38.135264
 20
16.473401
 30
0.0
 10
38.091166
 20
16.367568
 30
0.0
 10
37.870680
 20
16.367568
 30
0.0
 10
37.826583
 20
16.473401
 30
0.0
 10
37.641375
 20
17.267151
 30
0.0
 10
37.385611
 20
18.202013
 30
0.0
 10
37.218041
 20
18.448957
 30
0.0
 10
37.420889
 20
18.784096
 30
0.0
 10
37.667833
 20
19.789513
 30
0.0
 10
37.879500
 20
20.565624
 30
0.0
 10
37.950069
 20
20.689096
 30
0.0
  0
LWPOLYLINE
  5
12d
100
AcDbEntity
  8
Layer_1
 62
7
100
AcDbPolyline
 90
11
 70
1
 10
41.186806
 20
20.689096
 30
0.0
 10
41.186806
 20
16.367568
 30
0.0
 10
41.107431
 20
16.367568
 30
0.0
 10
41.063333
 20
16.473401
 30
0.0
 10
40.878125
 20
17.267151
 30
0.0
 10
40.631181
 20
18.202013
 30
0.0
 10
40.463611
 20
18.448957
 30
0.0
 10
40.666458
 20
18.784096
 30
0.0
 10
40.913403
 20
19.789513
 30
0.0
 10
41.116250
 20
20.565624
 30
0.0
 10
41.186806
 20
20.689096
 30
0.0
  0
LWPOLYLINE
  5
12e
100
AcDbEntity
  8
Layer_1
 62
7
100
AcDbPolyline
 90
10
 70
1
 10
20.134792
 20
17.946249
 30
0.0
 10
20.152431
 20
17.946249
 30
0.0
 10
20.178889
 20
17.946249
 30
0.0
 10
20.267083
 20
17.805138
 30
0.0
 10
20.461111
 20
17.081943
 30
0.0
 10
20.611042
 20
16.367568
 30
0.0
 10
19.693819
 20
16.367568
 30
0.0
 10
19.852569
 20
17.081943
 30
0.0
 10
20.046597
 20
17.805138
 30
0.0
 10
20.134792
 20
17.946249
 30
0.0
  0
LWPOLYLINE
  5
12f
100
AcDbEntity
  8
Layer_1
 62
7
100
AcDbPolyline
 90
10
 70
1
 10
23.371528
 20
17.946249
 30
0.0
 10
23.397986
 20
17.946249
 30
0.0
 10
23.424444
 20
17.946249
 30
0.0
 10
23.512639
 20
17.805138
 30
0.0
 10
23.697847
 20
17.081943
 30
0.0
 10
23.856597
 20
16.367568
 30
0.0
 10
22.939375
 20
16.367568
 30
0.0
 10
23.098125
 20
17.081943
 30
0.0
 10
23.283333
 20
17.805138
 30
0.0
 10
23.371528
 20
17.946249
 30
0.0
  0
LWPOLYLINE
  5
130
100
AcDbEntity
  8
Layer_1
 62
7
100
AcDbPolyline
 90
10
 70
1
 10
26.617083
 20
17.946249
 30
0.0
 10
26.643542
 20
17.946249
 30
0.0
 10
26.661181
 20
17.946249
 30
0.0
 10
26.749375
 20
17.805138
 30
0.0
 10
26.943403
 20
17.081943
 30
0.0
 10
27.102153
 20
16.367568
 30
0.0
 10
26.184931
 20
16.367568
 30
0.0
 10
26.334861
 20
17.081943
 30
0.0
 10
26.528889
 20
17.805138
 30
0.0
 10
26.617083
 20
17.946249
 30
0.0
  0
LWPOLYLINE
  5
131
100
AcDbEntity
  8
Layer_1
 62
7
100
AcDbPolyline
 90
10
 70
1
 10
29.853819
 20
17.946249
 30
0.0
 10
29.880264
 20
17.946249
 30
0.0
 10
29.897903
 20
17.946249
 30
0.0
 10
29.986097
 20
17.805138
 30
0.0
 10
30.180125
 20
17.081943
 30
0.0
 10
30.330055
 20
16.367568
 30
0.0
 10
29.421653
 20
16.367568
 30
0.0
 10
29.580403
 20
17.081943
 30
0.0
 10
29.765611
 20
17.805138
 30
0.0
 10
29.853819
 20
17.946249
 30
0.0
  0
LWPOLYLINE
  5
132
100
AcDbEntity
  8
Layer_1
 62
7
100
AcDbPolyline
 90
10
 70
1
 10
33.090556
 20
17.946249
 30
0.0
 10
33.117000
 20
17.946249
 30
0.0
 10
33.143444
 20
17.946249
 30
0.0
 10
33.231638
 20
17.805138
 30
0.0
 10
33.416847
 20
17.081943
 30
0.0
 10
33.575597
 20
16.367568
 30
0.0
 10
32.658375
 20
16.367568
 30
0.0
 10
32.808305
 20
17.081943
 30
0.0
 10
33.002333
 20
17.805138
 30
0.0
 10
33.090556
 20
17.946249
 30
0.0
  0
LWPOLYLINE
  5
133
100
AcDbEntity
  8
Layer_1
 62
7
100
AcDbPolyline
 90
10
 70
1
 10
36.336111
 20
17.946249
 30
0.0
 10
36.353750
 20
17.946249
 30
0.0
 10
36.380194
 20
17.946249
 30
0.0
 10
36.468389
 20
17.805138
 30
0.0
 10
36.662416
 20
17.081943
 30
0.0
 10
36.812347
 20
16.367568
 30
0.0
 10
35.895125
 20
16.367568
 30
0.0
 10
36.053875
 20
17.081943
 30
0.0
 10
36.247903
 20
17.805138
 30
0.0
 10
36.336111
 20
17.946249
 30
0.0
  0
LWPOLYLINE
  5
134
100
AcDbEntity
  8
Layer_1
 62
7
100
AcDbPolyline
 90
10
 70
1
 10
39.572847
 20
17.946249
 30
0.0
 10
39.599291
 20
17.946249
 30
0.0
 10
39.625736
 20
17.946249
 30
0.0
 10
39.713930
 20
17.805138
 30
0.0
 10
39.899138
 20
17.081943
 30
0.0
 10
40.057888
 20
16.367568
 30
0.0
 10
39.140666
 20
16.367568
 30
0.0
 10
39.299416
 20
17.081943
 30
0.0
 10
39.484625
 20
17.805138
 30
0.0
 10
39.572847
 20
17.946249
 30
0.0
  0
ENDSEC
  0
SECTION
  2
OBJECTS
  0
DICTIONARY
  5
C
330
0
100
AcDbDictionary
  3
ACAD_GROUP
350
D
  3
ACAD_MLINESTYLE
350
17
  0
DICTIONARY
  5
D
330
C
100
AcDbDictionary
  0
DICTIONARY
  5
1A
330
C
100
AcDbDictionary
  0
DICTIONARY
  5
17
330
C
100
AcDbDictionary
  3
STANDARD
350
18
  0
DICTIONARY
  5
19
330
C
100
AcDbDictionary
  0
ENDSEC
  0
EOF
