  0
SECTION
  2
HEADER
  9
$ACADVER
  1
AC1014
  9
$HANDSEED
  5
FFFF
  9
$MEASUREMENT
 70
     1
  0
ENDSEC
  0
SECTION
  2
TABLES
  0
TABLE
  2
VPORT
  5
8
330
0
100
AcDbSymbolTable
 70
     4
  0
VPORT
  5
2E
330
8
100
AcDbSymbolTableRecord
100
AcDbViewportTableRecord
  2
*ACTIVE
 70
     0
 10
0.0
 20
0.0
 11
1.0
 21
1.0
 12
210.0
 22
148.5
 13
0.0
 23
0.0
 14
10.0
 24
10.0
 15
10.0
 25
10.0
 16
0.0
 26
0.0
 36
1.0
 17
0.0
 27
0.0
 37
0.0
 40
341.0
 41
1.24
 42
50.0
 43
0.0
 44
0.0
 50
0.0
 51
0.0
 71
     0
 72
   100
 73
     1
 74
     3
 75
     0
 76
     0
 77
     0
 78
     0
  0
ENDTAB
  0
TABLE
  2
LTYPE
  5
5
330
0
100
AcDbSymbolTable
 70
     1
  0
LTYPE
  5
14
330
5
100
AcDbSymbolTableRecord
100
AcDbLinetypeTableRecord
  2
BYBLOCK
 70
     0
  3

 72
    65
 73
     0
 40
0.0
  0
LTYPE
  5
15
330
5
100
AcDbSymbolTableRecord
100
AcDbLinetypeTableRecord
  2
BYLAYER
 70
     0
  3

 72
    65
 73
     0
 40
0.0
  0
LTYPE
  5
16
330
5
100
AcDbSymbolTableRecord
100
AcDbLinetypeTableRecord
  2
CONTINUOUS
 70
     0
  3
Solid line
 72
    65
 73
     0
 40
0.0
  0
ENDTAB
  0
TABLE
  2
LAYER
  5
2
100
AcDbSymbolTable
 70
2
  0
LAYER
  5
50
100
AcDbSymbolTableRecord
100
AcDbLayerTableRecord
  2
0
 70
0
  6
CONTINUOUS
  0
LAYER
  5
51
100
AcDbSymbolTableRecord
100
AcDbLayerTableRecord
  2
Layer_1
 70
0
  6
CONTINUOUS
  0
ENDTAB
  0
TABLE
  2
STYLE
  5
3
330
0
100
AcDbSymbolTable
 70
     1
  0
STYLE
  5
11
330
3
100
AcDbSymbolTableRecord
100
AcDbTextStyleTableRecord
  2
STANDARD
 70
     0
 40
0.0
 41
1.0
 50
0.0
 71
     0
 42
2.5
  3
txt
  4

  0
ENDTAB
  0
TABLE
  2
VIEW
  5
6
330
0
100
AcDbSymbolTable
 70
     0
  0
ENDTAB
  0
TABLE
  2
UCS
  5
7
330
0
100
AcDbSymbolTable
 70
     0
  0
ENDTAB
  0
TABLE
  2
APPID
  5
9
330
0
100
AcDbSymbolTable
 70
     2
  0
APPID
  5
12
330
9
100
AcDbSymbolTableRecord
100
AcDbRegAppTableRecord
  2
ACAD
 70
     0
  0
ENDTAB
  0
TABLE
  2
DIMSTYLE
  5
A
330
0
100
AcDbSymbolTable
 70
     1
  0
DIMSTYLE
105
27
330
A
100
AcDbSymbolTableRecord
100
AcDbDimStyleTableRecord
  2
ISO-25
 70
     0
  3

  4

  5

  6

  7

 40
1.0
 41
2.5
 42
0.625
 43
3.75
 44
1.25
 45
0.0
 46
0.0
 47
0.0
 48
0.0
140
2.5
141
2.5
142
0.0
143
0.03937007874016
144
1.0
145
0.0
146
1.0
147
0.625
 71
     0
 72
     0
 73
     0
 74
     0
 75
     0
 76
     0
 77
     1
 78
     8
170
     0
171
     3
172
     1
173
     0
174
     0
175
     0
176
     0
177
     0
178
     0
270
     2
271
     2
272
     2
273
     2
274
     3
340
11
275
     0
280
     0
281
     0
282
     0
283
     0
284
     8
285
     0
286
     0
287
     3
288
     0
  0
ENDTAB
  0
TABLE
  2
BLOCK_RECORD
  5
1
330
0
100
AcDbSymbolTable
 70
     1
  0
BLOCK_RECORD
  5
1F
330
1
100
AcDbSymbolTableRecord
100
AcDbBlockTableRecord
  2
*MODEL_SPACE
  0
BLOCK_RECORD
  5
1B
330
1
100
AcDbSymbolTableRecord
100
AcDbBlockTableRecord
  2
*PAPER_SPACE
  0
ENDTAB
  0
ENDSEC
  0
SECTION
  2
BLOCKS
  0
BLOCK
  5
20
330
1F
100
AcDbEntity
  8
0
100
AcDbBlockBegin
  2
*MODEL_SPACE
 70
     0
 10
0.0
 20
0.0
 30
0.0
  3
*MODEL_SPACE
  1

  0
ENDBLK
  5
21
330
1F
100
AcDbEntity
  8
0
100
AcDbBlockEnd
  0
BLOCK
  5
1C
330
1B
100
AcDbEntity
 67
     1
  8
0
100
AcDbBlockBegin
  2
*PAPER_SPACE
  1

  0
ENDBLK
  5
1D
330
1B
100
AcDbEntity
 67
     1
  8
0
100
AcDbBlockEnd
  0
ENDSEC
  0
SECTION
  2
ENTITIES
  0
LWPOLYLINE
  5
100
100
AcDbEntity
  8
Layer_1
 62
7
100
AcDbPolyline
 90
71
 70
1
 10
20.549306
 20
50.542915
 30
0.0
 10
20.549306
 20
49.784443
 30
0.0
 10
20.549306
 20
49.034790
 30
0.0
 10
21.466528
 20
49.034790
 30
0.0
 10
22.383750
 20
49.034790
 30
0.0
 10
22.471944
 20
44.025346
 30
0.0
 10
22.225000
 20
36.766943
 30
0.0
 10
20.884444
 20
29.870138
 30
0.0
 10
18.626667
 20
22.364790
 30
0.0
 10
16.615833
 20
15.212221
 30
0.0
 10
15.628056
 20
8.288957
 30
0.0
 10
15.469306
 20
8.288957
 30
0.0
 10
15.319375
 20
8.288957
 30
0.0
 10
15.319375
 20
7.539304
 30
0.0
 10
15.319375
 20
6.789651
 30
0.0
 10
17.197917
 20
6.789651
 30
0.0
 10
19.076458
 20
6.789651
 30
0.0
 10
19.076458
 20
7.539304
 30
0.0
 10
19.076458
 20
8.288957
 30
0.0
 10
18.811875
 20
8.288957
 30
0.0
 10
18.944167
 20
9.849999
 30
0.0
 10
19.314583
 20
11.463957
 30
0.0
 10
19.799653
 20
12.328263
 30
0.0
 10
20.364097
 20
12.672221
 30
0.0
 10
21.104931
 20
12.689860
 30
0.0
 10
22.075069
 20
12.407638
 30
0.0
 10
23.212778
 20
11.869651
 30
0.0
 10
24.447500
 20
11.164096
 30
0.0
 10
27.031597
 20
9.673610
 30
0.0
 10
29.650972
 20
8.853401
 30
0.0
 10
30.947431
 20
9.038610
 30
0.0
 10
32.085139
 20
9.805901
 30
0.0
 10
32.526111
 20
10.387985
 30
0.0
 10
32.711319
 20
10.714304
 30
0.0
 10
32.843611
 20
10.687860
 30
0.0
 10
33.064097
 20
10.731957
 30
0.0
 10
33.266944
 20
10.387999
 30
0.0
 10
33.699097
 20
9.805916
 30
0.0
 10
34.836806
 20
9.038624
 30
0.0
 10
36.133264
 20
8.853416
 30
0.0
 10
38.761458
 20
9.673624
 30
0.0
 10
41.345556
 20
11.164110
 30
0.0
 10
42.580278
 20
11.869666
 30
0.0
 10
43.717986
 20
12.407652
 30
0.0
 10
44.688125
 20
12.689874
 30
0.0
 10
45.420139
 20
12.672235
 30
0.0
 10
45.984583
 20
12.328277
 30
0.0
 10
46.478472
 20
11.463971
 30
0.0
 10
46.848889
 20
9.849999
 30
0.0
 10
46.972361
 20
8.288957
 30
0.0
 10
46.646042
 20
8.288957
 30
0.0
 10
46.646042
 20
7.539304
 30
0.0
 10
46.646042
 20
6.789651
 30
0.0
 10
48.533403
 20
6.789651
 30
0.0
 10
50.411944
 20
6.789651
 30
0.0
 10
50.411944
 20
7.539304
 30
0.0
 10
50.411944
 20
8.288957
 30
0.0
 10
50.288472
 20
8.288957
 30
0.0
 10
50.156181
 20
8.288957
 30
0.0
 10
49.168403
 20
15.212221
 30
0.0
 10
47.157569
 20
22.364790
 30
0.0
 10
44.899792
 20
29.870138
 30
0.0
 10
43.568056
 20
36.766943
 30
0.0
 10
43.321111
 20
44.025346
 30
0.0
 10
43.400486
 20
49.034790
 30
0.0
 10
44.070764
 20
49.034790
 30
0.0
 10
44.732222
 20
49.034790
 30
0.0
 10
44.732222
 20
49.784443
 30
0.0
 10
44.732222
 20
50.542915
 30
0.0
 10
32.640764
 20
50.542915
 30
0.0
 10
20.549306
 20
50.542915
 30
0.0
  0
LWPOLYLINE
  5
101
100
AcDbEntity
  8
Layer_1
 62
7
100
AcDbPolyline
 90
23
 70
1
 10
23.883056
 20
49.034790
 30
0.0
 10
24.588611
 20
49.034790
 30
0.0
 10
25.285347
 20
49.034790
 30
0.0
 10
25.585208
 20
47.570763
 30
0.0
 10
25.982083
 20
46.150832
 30
0.0
 10
26.317222
 20
45.383540
 30
0.0
 10
26.784653
 20
44.722082
 30
0.0
 10
26.828750
 20
44.686804
 30
0.0
 10
26.881667
 20
44.651526
 30
0.0
 10
26.493611
 20
44.192915
 30
0.0
 10
26.193750
 20
43.654929
 30
0.0
 10
25.726319
 20
42.287915
 30
0.0
 10
25.400000
 20
40.815068
 30
0.0
 10
25.091319
 20
39.386318
 30
0.0
 10
24.729722
 20
38.213332
 30
0.0
 10
24.509236
 20
37.798818
 30
0.0
 10
24.288750
 20
37.525415
 30
0.0
 10
24.085903
 20
37.384304
 30
0.0
 10
23.830139
 20
37.349026
 30
0.0
 10
23.794861
 20
37.349026
 30
0.0
 10
23.768403
 20
37.349026
 30
0.0
 10
23.971250
 20
44.334026
 30
0.0
 10
23.883056
 20
49.034790
 30
0.0
  0
LWPOLYLINE
  5
102
100
AcDbEntity
  8
Layer_1
 62
7
100
AcDbPolyline
 90
15
 70
1
 10
26.511250
 20
49.034790
 30
0.0
 10
28.336875
 20
49.034790
 30
0.0
 10
30.171319
 20
49.034790
 30
0.0
 10
29.862639
 20
47.720693
 30
0.0
 10
29.518681
 20
46.565346
 30
0.0
 10
29.245278
 20
45.965624
 30
0.0
 10
28.945417
 20
45.542290
 30
0.0
 10
28.645556
 20
45.321804
 30
0.0
 10
28.292778
 20
45.251249
 30
0.0
 10
27.940000
 20
45.321804
 30
0.0
 10
27.657778
 20
45.542290
 30
0.0
 10
27.375556
 20
45.956804
 30
0.0
 10
27.119792
 20
46.547707
 30
0.0
 10
26.793472
 20
47.711874
 30
0.0
 10
26.511250
 20
49.034790
 30
0.0
  0
LWPOLYLINE
  5
103
100
AcDbEntity
  8
Layer_1
 62
7
100
AcDbPolyline
 90
35
 70
1
 10
31.414861
 20
49.034790
 30
0.0
 10
32.905347
 20
49.034790
 30
0.0
 10
34.395833
 20
49.034790
 30
0.0
 10
34.686875
 20
47.570763
 30
0.0
 10
35.066111
 20
46.150832
 30
0.0
 10
35.392431
 20
45.383540
 30
0.0
 10
35.859861
 20
44.722082
 30
0.0
 10
35.903958
 20
44.686804
 30
0.0
 10
35.956875
 20
44.651526
 30
0.0
 10
35.568819
 20
44.192915
 30
0.0
 10
35.268958
 20
43.654929
 30
0.0
 10
34.819167
 20
42.287915
 30
0.0
 10
34.501667
 20
40.806249
 30
0.0
 10
34.201806
 20
39.377499
 30
0.0
 10
33.840208
 20
38.213332
 30
0.0
 10
33.628542
 20
37.798818
 30
0.0
 10
33.416875
 20
37.525415
 30
0.0
 10
33.214028
 20
37.384304
 30
0.0
 10
32.958264
 20
37.349026
 30
0.0
 10
32.702500
 20
37.393124
 30
0.0
 10
32.482014
 20
37.534235
 30
0.0
 10
32.252708
 20
37.807638
 30
0.0
 10
32.023403
 20
38.230971
 30
0.0
 10
31.626528
 20
39.395138
 30
0.0
 10
31.282569
 20
40.823888
 30
0.0
 10
30.920972
 20
42.305554
 30
0.0
 10
30.418264
 20
43.672568
 30
0.0
 10
30.109583
 20
44.201735
 30
0.0
 10
29.721528
 20
44.651526
 30
0.0
 10
29.765625
 20
44.677985
 30
0.0
 10
29.809722
 20
44.713263
 30
0.0
 10
30.285972
 20
45.365901
 30
0.0
 10
30.638750
 20
46.133193
 30
0.0
 10
31.070903
 20
47.561943
 30
0.0
 10
31.414861
 20
49.034790
 30
0.0
  0
LWPOLYLINE
  5
104
100
AcDbEntity
  8
Layer_1
 62
7
100
AcDbPolyline
 90
15
 70
1
 10
35.612917
 20
49.034790
 30
0.0
 10
37.438542
 20
49.034790
 30
0.0
 10
39.264167
 20
49.034790
 30
0.0
 10
38.955486
 20
47.720693
 30
0.0
 10
38.602708
 20
46.565346
 30
0.0
 10
38.320486
 20
45.965624
 30
0.0
 10
38.020625
 20
45.542290
 30
0.0
 10
37.720764
 20
45.321804
 30
0.0
 10
37.359167
 20
45.251249
 30
0.0
 10
37.015208
 20
45.312985
 30
0.0
 10
36.732986
 20
45.533471
 30
0.0
 10
36.459583
 20
45.947985
 30
0.0
 10
36.203819
 20
46.547707
 30
0.0
 10
35.886319
 20
47.711874
 30
0.0
 10
35.612917
 20
49.034790
 30
0.0
  0
LWPOLYLINE
  5
105
100
AcDbEntity
  8
Layer_1
 62
7
100
AcDbPolyline
 90
21
 70
1
 10
40.516528
 20
49.034790
 30
0.0
 10
41.213264
 20
49.034790
 30
0.0
 10
41.901181
 20
49.034790
 30
0.0
 10
41.812986
 20
44.334026
 30
0.0
 10
42.015833
 20
37.349026
 30
0.0
 10
41.795347
 20
37.401943
 30
0.0
 10
41.601319
 20
37.534235
 30
0.0
 10
41.363194
 20
37.816457
 30
0.0
 10
41.133889
 20
38.230971
 30
0.0
 10
40.728194
 20
39.403957
 30
0.0
 10
40.375417
 20
40.832707
 30
0.0
 10
40.005000
 20
42.305554
 30
0.0
 10
39.493472
 20
43.672568
 30
0.0
 10
39.184792
 20
44.201735
 30
0.0
 10
38.787917
 20
44.651526
 30
0.0
 10
38.840833
 20
44.677985
 30
0.0
 10
38.884931
 20
44.713263
 30
0.0
 10
39.370000
 20
45.365901
 30
0.0
 10
39.722778
 20
46.133193
 30
0.0
 10
40.163750
 20
47.561943
 30
0.0
 10
40.516528
 20
49.034790
 30
0.0
  0
LWPOLYLINE
  5
106
100
AcDbEntity
  8
Layer_1
 62
7
100
AcDbPolyline
 90
41
 70
1
 10
28.292778
 20
44.042985
 30
0.0
 10
28.592639
 20
43.990068
 30
0.0
 10
28.839583
 20
43.840138
 30
0.0
 10
29.095347
 20
43.557915
 30
0.0
 10
29.342292
 20
43.143401
 30
0.0
 10
29.756806
 20
41.979235
 30
0.0
 10
30.109583
 20
40.559304
 30
0.0
 10
30.462361
 20
39.086457
 30
0.0
 10
30.929792
 20
37.728263
 30
0.0
 10
31.220833
 20
37.199096
 30
0.0
 10
31.591250
 20
36.740485
 30
0.0
 10
31.220833
 20
36.281874
 30
0.0
 10
30.929792
 20
35.752707
 30
0.0
 10
30.462361
 20
34.394513
 30
0.0
 10
30.109583
 20
32.921665
 30
0.0
 10
29.756806
 20
31.501735
 30
0.0
 10
29.342292
 20
30.337568
 30
0.0
 10
29.095347
 20
29.923054
 30
0.0
 10
28.839583
 20
29.640832
 30
0.0
 10
28.592639
 20
29.490901
 30
0.0
 10
28.292778
 20
29.437985
 30
0.0
 10
27.992917
 20
29.490901
 30
0.0
 10
27.754792
 20
29.640832
 30
0.0
 10
27.507847
 20
29.914235
 30
0.0
 10
27.278542
 20
30.328749
 30
0.0
 10
26.890486
 20
31.484096
 30
0.0
 10
26.581806
 20
32.904026
 30
0.0
 10
26.264306
 20
34.376874
 30
0.0
 10
25.832153
 20
35.735068
 30
0.0
 10
25.549931
 20
36.273054
 30
0.0
 10
25.179514
 20
36.740485
 30
0.0
 10
25.549931
 20
37.207915
 30
0.0
 10
25.832153
 20
37.745901
 30
0.0
 10
26.264306
 20
39.104096
 30
0.0
 10
26.581806
 20
40.576943
 30
0.0
 10
26.890486
 20
41.996874
 30
0.0
 10
27.278542
 20
43.152221
 30
0.0
 10
27.507847
 20
43.566735
 30
0.0
 10
27.754792
 20
43.840138
 30
0.0
 10
27.992917
 20
43.990068
 30
0.0
 10
28.292778
 20
44.042985
 30
0.0
  0
LWPOLYLINE
  5
107
100
AcDbEntity
  8
Layer_1
 62
7
100
AcDbPolyline
 90
41
 70
1
 10
37.359167
 20
44.042985
 30
0.0
 10
37.659028
 20
43.990068
 30
0.0
 10
37.914792
 20
43.840138
 30
0.0
 10
38.170556
 20
43.557915
 30
0.0
 10
38.417500
 20
43.143401
 30
0.0
 10
38.840833
 20
41.979235
 30
0.0
 10
39.202431
 20
40.559304
 30
0.0
 10
39.564028
 20
39.086457
 30
0.0
 10
40.040278
 20
37.728263
 30
0.0
 10
40.331319
 20
37.199096
 30
0.0
 10
40.710556
 20
36.740485
 30
0.0
 10
40.331319
 20
36.281874
 30
0.0
 10
40.040278
 20
35.752707
 30
0.0
 10
39.564028
 20
34.394513
 30
0.0
 10
39.202431
 20
32.921665
 30
0.0
 10
38.840833
 20
31.501735
 30
0.0
 10
38.417500
 20
30.337568
 30
0.0
 10
38.170556
 20
29.923054
 30
0.0
 10
37.914792
 20
29.640832
 30
0.0
 10
37.659028
 20
29.490901
 30
0.0
 10
37.359167
 20
29.437985
 30
0.0
 10
37.068125
 20
29.490901
 30
0.0
 10
36.830000
 20
29.640832
 30
0.0
 10
36.591875
 20
29.914235
 30
0.0
 10
36.362569
 20
30.319929
 30
0.0
 10
35.983333
 20
31.484096
 30
0.0
 10
35.674653
 20
32.904026
 30
0.0
 10
35.374792
 20
34.376874
 30
0.0
 10
34.951458
 20
35.735068
 30
0.0
 10
34.678056
 20
36.273054
 30
0.0
 10
34.307639
 20
36.740485
 30
0.0
 10
34.678056
 20
37.207915
 30
0.0
 10
34.951458
 20
37.745901
 30
0.0
 10
35.374792
 20
39.104096
 30
0.0
 10
35.674653
 20
40.576943
 30
0.0
 10
35.983333
 20
41.996874
 30
0.0
 10
36.362569
 20
43.161040
 30
0.0
 10
36.591875
 20
43.566735
 30
0.0
 10
36.830000
 20
43.840138
 30
0.0
 10
37.068125
 20
43.990068
 30
0.0
 10
37.359167
 20
44.042985
 30
0.0
  0
LWPOLYLINE
  5
108
100
AcDbEntity
  8
Layer_1
 62
7
100
AcDbPolyline
 90
31
 70
1
 10
23.830139
 20
36.131943
 30
0.0
 10
24.085903
 20
36.096665
 30
0.0
 10
24.288750
 20
35.955554
 30
0.0
 10
24.509236
 20
35.682151
 30
0.0
 10
24.729722
 20
35.267638
 30
0.0
 10
25.091319
 20
34.094651
 30
0.0
 10
25.400000
 20
32.665901
 30
0.0
 10
25.726319
 20
31.193054
 30
0.0
 10
26.193750
 20
29.826040
 30
0.0
 10
26.493611
 20
29.296874
 30
0.0
 10
26.881667
 20
28.838263
 30
0.0
 10
26.493611
 20
28.379651
 30
0.0
 10
26.193750
 20
27.850485
 30
0.0
 10
25.726319
 20
26.483471
 30
0.0
 10
25.400000
 20
25.001804
 30
0.0
 10
25.091319
 20
23.573054
 30
0.0
 10
24.729722
 20
22.408888
 30
0.0
 10
24.509236
 20
21.994374
 30
0.0
 10
24.288750
 20
21.720971
 30
0.0
 10
24.085903
 20
21.579860
 30
0.0
 10
23.830139
 20
21.535763
 30
0.0
 10
23.468542
 20
21.623957
 30
0.0
 10
23.159861
 20
21.941457
 30
0.0
 10
22.842361
 20
22.549999
 30
0.0
 10
22.551319
 20
23.379026
 30
0.0
 10
22.119167
 20
25.151735
 30
0.0
 10
21.625278
 20
26.994999
 30
0.0
 10
22.886458
 20
31.651665
 30
0.0
 10
23.662569
 20
36.114304
 30
0.0
 10
23.741944
 20
36.123138
 30
0.0
 10
23.830139
 20
36.131943
 30
0.0
  0
LWPOLYLINE
  5
109
100
AcDbEntity
  8
Layer_1
 62
7
100
AcDbPolyline
 90
25
 70
1
 10
32.958264
 20
36.131943
 30
0.0
 10
33.214028
 20
36.096665
 30
0.0
 10
33.416875
 20
35.955554
 30
0.0
 10
33.628542
 20
35.682151
 30
0.0
 10
33.840208
 20
35.267638
 30
0.0
 10
34.201806
 20
34.103471
 30
0.0
 10
34.501667
 20
32.674721
 30
0.0
 10
34.819167
 20
31.193054
 30
0.0
 10
35.268958
 20
29.826040
 30
0.0
 10
35.392431
 20
29.587915
 30
0.0
 10
35.524722
 20
29.367429
 30
0.0
 10
34.228264
 20
29.817221
 30
0.0
 10
32.843611
 20
29.975971
 30
0.0
 10
31.458958
 20
29.817221
 30
0.0
 10
30.162500
 20
29.367429
 30
0.0
 10
30.294792
 20
29.587915
 30
0.0
 10
30.418264
 20
29.817221
 30
0.0
 10
30.920972
 20
31.184235
 30
0.0
 10
31.282569
 20
32.657082
 30
0.0
 10
31.626528
 20
34.085832
 30
0.0
 10
32.023403
 20
35.249999
 30
0.0
 10
32.252708
 20
35.673332
 30
0.0
 10
32.482014
 20
35.946735
 30
0.0
 10
32.702500
 20
36.087846
 30
0.0
 10
32.958264
 20
36.131943
 30
0.0
  0
LWPOLYLINE
  5
10a
100
AcDbEntity
  8
Layer_1
 62
7
100
AcDbPolyline
 90
31
 70
1
 10
42.077569
 20
36.131943
 30
0.0
 10
42.104014
 20
36.131943
 30
0.0
 10
42.121653
 20
36.131943
 30
0.0
 10
42.888944
 20
31.695763
 30
0.0
 10
44.141305
 20
27.056735
 30
0.0
 10
43.691514
 20
25.204651
 30
0.0
 10
43.303458
 20
23.405485
 30
0.0
 10
43.038875
 20
22.558818
 30
0.0
 10
42.730194
 20
21.941457
 30
0.0
 10
42.430333
 20
21.623957
 30
0.0
 10
42.077555
 20
21.535763
 30
0.0
 10
41.821791
 20
21.579860
 30
0.0
 10
41.601305
 20
21.720971
 30
0.0
 10
41.363180
 20
22.003193
 30
0.0
 10
41.133875
 20
22.417707
 30
0.0
 10
40.728180
 20
23.590693
 30
0.0
 10
40.375403
 20
25.019443
 30
0.0
 10
40.004986
 20
26.492290
 30
0.0
 10
39.493458
 20
27.859304
 30
0.0
 10
39.184778
 20
28.379651
 30
0.0
 10
38.796722
 20
28.838263
 30
0.0
 10
39.184778
 20
29.288054
 30
0.0
 10
39.493458
 20
29.808401
 30
0.0
 10
40.004986
 20
31.175415
 30
0.0
 10
40.375403
 20
32.648263
 30
0.0
 10
40.728180
 20
34.077013
 30
0.0
 10
41.133875
 20
35.249999
 30
0.0
 10
41.363180
 20
35.664513
 30
0.0
 10
41.601305
 20
35.946735
 30
0.0
 10
41.821791
 20
36.087846
 30
0.0
 10
42.077569
 20
36.131943
 30
0.0
  0
LWPOLYLINE
  5
10b
100
AcDbEntity
  8
Layer_1
 62
7
100
AcDbPolyline
 90
13
 70
1
 10
28.292778
 20
28.229721
 30
0.0
 10
28.372153
 20
28.229721
 30
0.0
 10
28.442708
 20
28.229721
 30
0.0
 10
27.895903
 20
27.700554
 30
0.0
 10
27.393194
 20
27.109651
 30
0.0
 10
27.199167
 20
26.845068
 30
0.0
 10
27.005139
 20
26.580485
 30
0.0
 10
27.137431
 20
26.986179
 30
0.0
 10
27.278542
 20
27.347776
 30
0.0
 10
27.507847
 20
27.762290
 30
0.0
 10
27.754792
 20
28.035693
 30
0.0
 10
27.992917
 20
28.185624
 30
0.0
 10
28.292778
 20
28.229721
 30
0.0
  0
LWPOLYLINE
  5
10c
100
AcDbEntity
  8
Layer_1
 62
7
100
AcDbPolyline
 90
13
 70
1
 10
37.244514
 20
28.229721
 30
0.0
 10
37.306250
 20
28.229721
 30
0.0
 10
37.367986
 20
28.229721
 30
0.0
 10
37.667847
 20
28.176804
 30
0.0
 10
37.914792
 20
28.026874
 30
0.0
 10
38.170556
 20
27.744651
 30
0.0
 10
38.417500
 20
27.330138
 30
0.0
 10
38.576250
 20
26.942082
 30
0.0
 10
38.726181
 20
26.509929
 30
0.0
 10
38.514514
 20
26.818610
 30
0.0
 10
38.294028
 20
27.109651
 30
0.0
 10
37.791319
 20
27.700554
 30
0.0
 10
37.244514
 20
28.229721
 30
0.0
  0
LWPOLYLINE
  5
10d
100
AcDbEntity
  8
Layer_1
 62
7
100
AcDbPolyline
 90
29
 70
1
 10
32.843611
 20
26.977360
 30
0.0
 10
34.810347
 20
26.465832
 30
0.0
 10
36.441944
 20
25.063540
 30
0.0
 10
37.562014
 20
22.946874
 30
0.0
 10
37.976528
 20
20.327499
 30
0.0
 10
37.738403
 20
18.351943
 30
0.0
 10
37.094583
 20
16.614513
 30
0.0
 10
36.988750
 20
16.614513
 30
0.0
 10
36.882917
 20
16.614513
 30
0.0
 10
36.265556
 20
17.849235
 30
0.0
 10
35.639375
 20
19.083957
 30
0.0
 10
35.365972
 20
19.542568
 30
0.0
 10
35.039653
 20
19.877707
 30
0.0
 10
34.651597
 20
20.098193
 30
0.0
 10
34.184167
 20
20.221665
 30
0.0
 10
35.198403
 20
20.477429
 30
0.0
 10
35.912778
 20
20.918401
 30
0.0
 10
36.344931
 20
21.553401
 30
0.0
 10
36.486042
 20
22.382429
 30
0.0
 10
36.283194
 20
23.387846
 30
0.0
 10
35.674653
 20
24.137499
 30
0.0
 10
34.704514
 20
24.604929
 30
0.0
 10
33.390417
 20
24.763679
 30
0.0
 10
31.220833
 20
24.763679
 30
0.0
 10
29.042431
 20
24.763679
 30
0.0
 10
29.148264
 20
24.913610
 30
0.0
 10
29.254097
 20
25.063540
 30
0.0
 10
30.876875
 20
26.465832
 30
0.0
 10
32.843611
 20
26.977360
 30
0.0
  0
LWPOLYLINE
  5
10e
100
AcDbEntity
  8
Layer_1
 62
7
100
AcDbPolyline
 90
25
 70
1
 10
20.963819
 20
24.798957
 30
0.0
 10
21.166667
 20
23.908193
 30
0.0
 10
21.395972
 20
23.043888
 30
0.0
 10
21.731111
 20
22.082568
 30
0.0
 10
22.189722
 20
21.244721
 30
0.0
 10
22.330833
 20
21.094790
 30
0.0
 10
22.489583
 20
20.962499
 30
0.0
 10
22.101528
 20
20.486249
 30
0.0
 10
21.801667
 20
19.939443
 30
0.0
 10
21.334236
 20
18.581249
 30
0.0
 10
20.981458
 20
17.108401
 30
0.0
 10
20.628681
 20
15.688471
 30
0.0
 10
20.205347
 20
14.524304
 30
0.0
 10
19.958403
 20
14.109790
 30
0.0
 10
19.711458
 20
13.836388
 30
0.0
 10
19.455694
 20
13.686457
 30
0.0
 10
19.155833
 20
13.633540
 30
0.0
 10
18.776597
 20
13.712915
 30
0.0
 10
18.476736
 20
13.968679
 30
0.0
 10
18.265069
 20
14.303818
 30
0.0
 10
18.062222
 20
14.762429
 30
0.0
 10
18.988264
 20
18.316665
 30
0.0
 10
20.064236
 20
21.923818
 30
0.0
 10
20.514028
 20
23.361388
 30
0.0
 10
20.963819
 20
24.798957
 30
0.0
  0
LWPOLYLINE
  5
10f
100
AcDbEntity
  8
Layer_1
 62
7
100
AcDbPolyline
 90
25
 70
1
 10
44.838056
 20
24.790123
 30
0.0
 10
45.287847
 20
23.361373
 30
0.0
 10
45.728819
 20
21.923804
 30
0.0
 10
46.795972
 20
18.378387
 30
0.0
 10
47.704375
 20
14.885887
 30
0.0
 10
47.483889
 20
14.383179
 30
0.0
 10
47.254583
 20
14.003943
 30
0.0
 10
46.937083
 20
13.721721
 30
0.0
 10
46.540208
 20
13.633526
 30
0.0
 10
46.240347
 20
13.677623
 30
0.0
 10
46.002222
 20
13.827554
 30
0.0
 10
45.764097
 20
14.100957
 30
0.0
 10
45.534792
 20
14.515471
 30
0.0
 10
45.146736
 20
15.679637
 30
0.0
 10
44.829236
 20
17.099568
 30
0.0
 10
44.511736
 20
18.572415
 30
0.0
 10
44.079583
 20
19.930610
 30
0.0
 10
43.788542
 20
20.486235
 30
0.0
 10
43.400486
 20
20.971304
 30
0.0
 10
43.568056
 20
21.112415
 30
0.0
 10
43.717986
 20
21.271165
 30
0.0
 10
44.158958
 20
22.126651
 30
0.0
 10
44.467639
 20
23.096790
 30
0.0
 10
44.661667
 20
23.934637
 30
0.0
 10
44.838056
 20
24.790123
 30
0.0
  0
LWPOLYLINE
  5
110
100
AcDbEntity
  8
Layer_1
 62
7
100
AcDbPolyline
 90
11
 70
1
 10
28.601458
 20
24.049290
 30
0.0
 10
29.112986
 20
24.049290
 30
0.0
 10
29.624514
 20
24.049290
 30
0.0
 10
29.624514
 20
20.327485
 30
0.0
 10
29.624514
 20
16.614498
 30
0.0
 10
29.112986
 20
16.614498
 30
0.0
 10
28.601458
 20
16.614498
 30
0.0
 10
27.948819
 20
18.351929
 30
0.0
 10
27.710694
 20
20.327485
 30
0.0
 10
27.948819
 20
22.311860
 30
0.0
 10
28.601458
 20
24.049290
 30
0.0
  0
LWPOLYLINE
  5
111
100
AcDbEntity
  8
Layer_1
 62
7
100
AcDbPolyline
 90
15
 70
1
 10
31.820556
 20
24.049290
 30
0.0
 10
32.190972
 20
24.049290
 30
0.0
 10
32.561389
 20
24.049290
 30
0.0
 10
33.266944
 20
23.934637
 30
0.0
 10
33.787292
 20
23.599498
 30
0.0
 10
34.113611
 20
23.061512
 30
0.0
 10
34.219444
 20
22.320679
 30
0.0
 10
34.113611
 20
21.579846
 30
0.0
 10
33.787292
 20
21.024221
 30
0.0
 10
33.266944
 20
20.689082
 30
0.0
 10
32.561389
 20
20.574429
 30
0.0
 10
32.190972
 20
20.574429
 30
0.0
 10
31.820556
 20
20.574429
 30
0.0
 10
31.820556
 20
22.311860
 30
0.0
 10
31.820556
 20
24.049290
 30
0.0
  0
LWPOLYLINE
  5
112
100
AcDbEntity
  8
Layer_1
 62
7
100
AcDbPolyline
 90
7
 70
1
 10
40.481250
 20
21.200610
 30
0.0
 10
40.595903
 20
21.059498
 30
0.0
 10
40.719375
 20
20.927207
 30
0.0
 10
40.604722
 20
20.812554
 30
0.0
 10
40.498889
 20
20.689082
 30
0.0
 10
40.490055
 20
20.944846
 30
0.0
 10
40.481250
 20
21.200610
 30
0.0
  0
LWPOLYLINE
  5
113
100
AcDbEntity
  8
Layer_1
 62
7
100
AcDbPolyline
 90
28
 70
1
 10
23.830139
 20
20.327485
 30
0.0
 10
24.085903
 20
20.283387
 30
0.0
 10
24.288750
 20
20.142276
 30
0.0
 10
24.509236
 20
19.868873
 30
0.0
 10
24.729722
 20
19.454360
 30
0.0
 10
25.091319
 20
18.290193
 30
0.0
 10
25.400000
 20
16.861443
 30
0.0
 10
25.726319
 20
15.379776
 30
0.0
 10
26.193750
 20
14.012762
 30
0.0
 10
26.528889
 20
13.413040
 30
0.0
 10
26.978681
 20
12.910332
 30
0.0
 10
27.322639
 20
12.707485
 30
0.0
 10
26.493611
 20
11.358110
 30
0.0
 10
25.056042
 20
12.195957
 30
0.0
 10
23.777222
 20
12.927971
 30
0.0
 10
22.516042
 20
13.527693
 30
0.0
 10
21.889861
 20
13.739360
 30
0.0
 10
21.272500
 20
13.880471
 30
0.0
 10
21.210764
 20
13.889304
 30
0.0
 10
21.281319
 20
14.003957
 30
0.0
 10
21.784028
 20
15.370971
 30
0.0
 10
22.145625
 20
16.843818
 30
0.0
 10
22.498403
 20
18.272568
 30
0.0
 10
22.895278
 20
19.445554
 30
0.0
 10
23.124583
 20
19.868888
 30
0.0
 10
23.353889
 20
20.142290
 30
0.0
 10
23.574375
 20
20.283401
 30
0.0
 10
23.830139
 20
20.327485
 30
0.0
  0
LWPOLYLINE
  5
114
100
AcDbEntity
  8
Layer_1
 62
7
100
AcDbPolyline
 90
27
 70
1
 10
42.077569
 20
20.327485
 30
0.0
 10
42.333333
 20
20.283387
 30
0.0
 10
42.536181
 20
20.142276
 30
0.0
 10
42.756667
 20
19.868888
 30
0.0
 10
42.977153
 20
19.454374
 30
0.0
 10
43.338750
 20
18.290207
 30
0.0
 10
43.647431
 20
16.861457
 30
0.0
 10
43.973750
 20
15.379790
 30
0.0
 10
44.441181
 20
14.012776
 30
0.0
 10
44.511736
 20
13.880485
 30
0.0
 10
43.894375
 20
13.739374
 30
0.0
 10
43.268194
 20
13.527707
 30
0.0
 10
42.007014
 20
12.927985
 30
0.0
 10
40.728194
 20
12.195971
 30
0.0
 10
39.220069
 20
11.314026
 30
0.0
 10
38.355764
 20
12.725138
 30
0.0
 10
38.682083
 20
12.910346
 30
0.0
 10
39.140694
 20
13.413054
 30
0.0
 10
39.493472
 20
14.003957
 30
0.0
 10
40.005000
 20
15.370971
 30
0.0
 10
40.375417
 20
16.843818
 30
0.0
 10
40.728194
 20
18.272568
 30
0.0
 10
41.133889
 20
19.436735
 30
0.0
 10
41.363194
 20
19.851249
 30
0.0
 10
41.601319
 20
20.133471
 30
0.0
 10
41.821806
 20
20.283401
 30
0.0
 10
42.077569
 20
20.327485
 30
0.0
  0
LWPOLYLINE
  5
115
100
AcDbEntity
  8
Layer_1
 62
7
100
AcDbPolyline
 90
27
 70
1
 10
31.820556
 20
19.860054
 30
0.0
 10
31.988125
 20
19.860054
 30
0.0
 10
32.164514
 20
19.860054
 30
0.0
 10
32.605486
 20
19.807137
 30
0.0
 10
32.931806
 20
19.630748
 30
0.0
 10
33.240486
 20
19.251512
 30
0.0
 10
33.602083
 20
18.572415
 30
0.0
 10
34.281181
 20
17.231860
 30
0.0
 10
34.960278
 20
15.891304
 30
0.0
 10
35.806944
 20
15.891304
 30
0.0
 10
36.653611
 20
15.891304
 30
0.0
 10
36.547778
 20
15.741373
 30
0.0
 10
36.441944
 20
15.591443
 30
0.0
 10
34.810347
 20
14.189151
 30
0.0
 10
32.843611
 20
13.686443
 30
0.0
 10
30.876875
 20
14.189151
 30
0.0
 10
29.254097
 20
15.591443
 30
0.0
 10
29.148264
 20
15.741373
 30
0.0
 10
29.042431
 20
15.891304
 30
0.0
 10
30.982708
 20
15.891304
 30
0.0
 10
32.914167
 20
15.891304
 30
0.0
 10
32.914167
 20
16.252901
 30
0.0
 10
32.914167
 20
16.614498
 30
0.0
 10
32.367361
 20
16.614498
 30
0.0
 10
31.820556
 20
16.614498
 30
0.0
 10
31.820556
 20
18.237276
 30
0.0
 10
31.820556
 20
19.860054
 30
0.0
  0
LWPOLYLINE
  5
116
100
AcDbEntity
  8
Layer_1
 62
7
100
AcDbPolyline
 90
9
 70
1
 10
48.074792
 20
13.121998
 30
0.0
 10
48.462847
 20
10.661373
 30
0.0
 10
48.648056
 20
8.288943
 30
0.0
 10
48.171806
 20
8.288943
 30
0.0
 10
48.039514
 20
10.008735
 30
0.0
 10
47.598542
 20
11.887276
 30
0.0
 10
47.254583
 20
12.592832
 30
0.0
 10
47.395694
 20
12.628110
 30
0.0
 10
48.074792
 20
13.121998
 30
0.0
  0
LWPOLYLINE
  5
117
100
AcDbEntity
  8
Layer_1
 62
7
100
AcDbPolyline
 90
9
 70
1
 10
17.700625
 20
13.042623
 30
0.0
 10
18.353264
 20
12.601651
 30
0.0
 10
18.512014
 20
12.566373
 30
0.0
 10
18.185694
 20
11.887276
 30
0.0
 10
17.744722
 20
10.008735
 30
0.0
 10
17.612431
 20
8.288943
 30
0.0
 10
17.136181
 20
8.288943
 30
0.0
 10
17.312569
 20
10.617276
 30
0.0
 10
17.700625
 20
13.042623
 30
0.0
  0
LWPOLYLINE
  5
118
100
AcDbEntity
  8
Layer_1
 62
7
100
AcDbPolyline
 90
9
 70
1
 10
28.539722
 20
12.407623
 30
0.0
 10
30.400625
 20
11.190540
 30
0.0
 10
31.467778
 20
10.970054
 30
0.0
 10
31.203194
 20
10.617276
 30
0.0
 10
30.532917
 20
10.141026
 30
0.0
 10
29.730347
 20
10.052832
 30
0.0
 10
27.578403
 20
10.776026
 30
0.0
 10
27.551944
 20
10.793665
 30
0.0
 10
28.539722
 20
12.407623
 30
0.0
  0
LWPOLYLINE
  5
119
100
AcDbEntity
  8
Layer_1
 62
7
100
AcDbPolyline
 90
8
 70
1
 10
37.147500
 20
12.398790
 30
0.0
 10
38.161736
 20
10.749554
 30
0.0
 10
36.053889
 20
10.052818
 30
0.0
 10
35.260139
 20
10.141012
 30
0.0
 10
34.589861
 20
10.617262
 30
0.0
 10
34.316458
 20
10.987679
 30
0.0
 10
35.268958
 20
11.181707
 30
0.0
 10
37.147500
 20
12.398790
 30
0.0
  0
ENDSEC
  0
SECTION
  2
OBJECTS
  0
DICTIONARY
  5
C
330
0
100
AcDbDictionary
  3
ACAD_GROUP
350
D
  3
ACAD_MLINESTYLE
350
17
  0
DICTIONARY
  5
D
330
C
100
AcDbDictionary
  0
DICTIONARY
  5
1A
330
C
100
AcDbDictionary
  0
DICTIONARY
  5
17
330
C
100
AcDbDictionary
  3
STANDARD
350
18
  0
DICTIONARY
  5
19
330
C
100
AcDbDictionary
  0
ENDSEC
  0
EOF
