  0
SECTION
  2
HEADER
  9
$ACADVER
  1
AC1014
  9
$HANDSEED
  5
FFFF
  9
$MEASUREMENT
 70
     1
  0
ENDSEC
  0
SECTION
  2
TABLES
  0
TABLE
  2
VPORT
  5
8
330
0
100
AcDbSymbolTable
 70
     4
  0
VPORT
  5
2E
330
8
100
AcDbSymbolTableRecord
100
AcDbViewportTableRecord
  2
*ACTIVE
 70
     0
 10
0.0
 20
0.0
 11
1.0
 21
1.0
 12
210.0
 22
148.5
 13
0.0
 23
0.0
 14
10.0
 24
10.0
 15
10.0
 25
10.0
 16
0.0
 26
0.0
 36
1.0
 17
0.0
 27
0.0
 37
0.0
 40
341.0
 41
1.24
 42
50.0
 43
0.0
 44
0.0
 50
0.0
 51
0.0
 71
     0
 72
   100
 73
     1
 74
     3
 75
     0
 76
     0
 77
     0
 78
     0
  0
ENDTAB
  0
TABLE
  2
LTYPE
  5
5
330
0
100
AcDbSymbolTable
 70
     1
  0
LTYPE
  5
14
330
5
100
AcDbSymbolTableRecord
100
AcDbLinetypeTableRecord
  2
BYBLOCK
 70
     0
  3

 72
    65
 73
     0
 40
0.0
  0
LTYPE
  5
15
330
5
100
AcDbSymbolTableRecord
100
AcDbLinetypeTableRecord
  2
BYLAYER
 70
     0
  3

 72
    65
 73
     0
 40
0.0
  0
LTYPE
  5
16
330
5
100
AcDbSymbolTableRecord
100
AcDbLinetypeTableRecord
  2
CONTINUOUS
 70
     0
  3
Solid line
 72
    65
 73
     0
 40
0.0
  0
ENDTAB
  0
TABLE
  2
LAYER
  5
2
100
AcDbSymbolTable
 70
2
  0
LAYER
  5
50
100
AcDbSymbolTableRecord
100
AcDbLayerTableRecord
  2
0
 70
0
  6
CONTINUOUS
  0
LAYER
  5
51
100
AcDbSymbolTableRecord
100
AcDbLayerTableRecord
  2
Layer_1
 70
0
  6
CONTINUOUS
  0
ENDTAB
  0
TABLE
  2
STYLE
  5
3
330
0
100
AcDbSymbolTable
 70
     1
  0
STYLE
  5
11
330
3
100
AcDbSymbolTableRecord
100
AcDbTextStyleTableRecord
  2
STANDARD
 70
     0
 40
0.0
 41
1.0
 50
0.0
 71
     0
 42
2.5
  3
txt
  4

  0
ENDTAB
  0
TABLE
  2
VIEW
  5
6
330
0
100
AcDbSymbolTable
 70
     0
  0
ENDTAB
  0
TABLE
  2
UCS
  5
7
330
0
100
AcDbSymbolTable
 70
     0
  0
ENDTAB
  0
TABLE
  2
APPID
  5
9
330
0
100
AcDbSymbolTable
 70
     2
  0
APPID
  5
12
330
9
100
AcDbSymbolTableRecord
100
AcDbRegAppTableRecord
  2
ACAD
 70
     0
  0
ENDTAB
  0
TABLE
  2
DIMSTYLE
  5
A
330
0
100
AcDbSymbolTable
 70
     1
  0
DIMSTYLE
105
27
330
A
100
AcDbSymbolTableRecord
100
AcDbDimStyleTableRecord
  2
ISO-25
 70
     0
  3

  4

  5

  6

  7

 40
1.0
 41
2.5
 42
0.625
 43
3.75
 44
1.25
 45
0.0
 46
0.0
 47
0.0
 48
0.0
140
2.5
141
2.5
142
0.0
143
0.03937007874016
144
1.0
145
0.0
146
1.0
147
0.625
 71
     0
 72
     0
 73
     0
 74
     0
 75
     0
 76
     0
 77
     1
 78
     8
170
     0
171
     3
172
     1
173
     0
174
     0
175
     0
176
     0
177
     0
178
     0
270
     2
271
     2
272
     2
273
     2
274
     3
340
11
275
     0
280
     0
281
     0
282
     0
283
     0
284
     8
285
     0
286
     0
287
     3
288
     0
  0
ENDTAB
  0
TABLE
  2
BLOCK_RECORD
  5
1
330
0
100
AcDbSymbolTable
 70
     1
  0
BLOCK_RECORD
  5
1F
330
1
100
AcDbSymbolTableRecord
100
AcDbBlockTableRecord
  2
*MODEL_SPACE
  0
BLOCK_RECORD
  5
1B
330
1
100
AcDbSymbolTableRecord
100
AcDbBlockTableRecord
  2
*PAPER_SPACE
  0
ENDTAB
  0
ENDSEC
  0
SECTION
  2
BLOCKS
  0
BLOCK
  5
20
330
1F
100
AcDbEntity
  8
0
100
AcDbBlockBegin
  2
*MODEL_SPACE
 70
     0
 10
0.0
 20
0.0
 30
0.0
  3
*MODEL_SPACE
  1

  0
ENDBLK
  5
21
330
1F
100
AcDbEntity
  8
0
100
AcDbBlockEnd
  0
BLOCK
  5
1C
330
1B
100
AcDbEntity
 67
     1
  8
0
100
AcDbBlockBegin
  2
*PAPER_SPACE
  1

  0
ENDBLK
  5
1D
330
1B
100
AcDbEntity
 67
     1
  8
0
100
AcDbBlockEnd
  0
ENDSEC
  0
SECTION
  2
ENTITIES
  0
LWPOLYLINE
  5
100
100
AcDbEntity
  8
Layer_1
 62
7
100
AcDbPolyline
 90
38
 70
1
 10
31.220833
 20
37.393124
 30
0.0
 10
29.386389
 20
37.207915
 30
0.0
 10
27.675417
 20
36.669929
 30
0.0
 10
26.123194
 20
35.832082
 30
0.0
 10
24.773819
 20
34.720832
 30
0.0
 10
23.662569
 20
33.371457
 30
0.0
 10
22.824722
 20
31.819235
 30
0.0
 10
22.286736
 20
30.108263
 30
0.0
 10
22.101528
 20
28.273818
 30
0.0
 10
22.286736
 20
26.439374
 30
0.0
 10
22.824722
 20
24.728401
 30
0.0
 10
23.662569
 20
23.184999
 30
0.0
 10
24.773819
 20
21.835624
 30
0.0
 10
26.123194
 20
20.715554
 30
0.0
 10
27.675417
 20
19.877707
 30
0.0
 10
29.386389
 20
19.348540
 30
0.0
 10
31.220833
 20
19.163332
 30
0.0
 10
33.055278
 20
19.348540
 30
0.0
 10
34.766250
 20
19.877707
 30
0.0
 10
36.309653
 20
20.715554
 30
0.0
 10
37.659028
 20
21.835624
 30
0.0
 10
38.779097
 20
23.184999
 30
0.0
 10
39.616944
 20
24.728401
 30
0.0
 10
40.146111
 20
26.439374
 30
0.0
 10
40.146111
 20
26.457013
 30
0.0
 10
40.163750
 20
26.501110
 30
0.0
 10
40.154916
 20
26.501110
 30
0.0
 10
40.331305
 20
28.273818
 30
0.0
 10
40.146097
 20
30.108263
 30
0.0
 10
39.616930
 20
31.819235
 30
0.0
 10
38.779083
 20
33.371457
 30
0.0
 10
37.659014
 20
34.720832
 30
0.0
 10
36.309639
 20
35.832082
 30
0.0
 10
34.766236
 20
36.669929
 30
0.0
 10
34.157694
 20
36.908054
 30
0.0
 10
34.131250
 20
36.908054
 30
0.0
 10
33.055278
 20
37.207915
 30
0.0
 10
31.220833
 20
37.393124
 30
0.0
  0
LWPOLYLINE
  5
101
100
AcDbEntity
  8
Layer_1
 62
7
100
AcDbPolyline
 90
15
 70
1
 10
31.220833
 20
36.184860
 30
0.0
 10
32.817153
 20
36.026110
 30
0.0
 10
32.852431
 20
36.017276
 30
0.0
 10
32.843597
 20
36.008443
 30
0.0
 10
32.226236
 20
34.447401
 30
0.0
 10
31.591236
 20
32.992193
 30
0.0
 10
31.309014
 20
32.630595
 30
0.0
 10
31.229639
 20
32.577679
 30
0.0
 10
31.150264
 20
32.630595
 30
0.0
 10
30.868041
 20
32.992193
 30
0.0
 10
30.233041
 20
34.447401
 30
0.0
 10
29.606861
 20
36.008443
 30
0.0
 10
29.598027
 20
36.017276
 30
0.0
 10
29.624472
 20
36.026110
 30
0.0
 10
31.220833
 20
36.184860
 30
0.0
  0
LWPOLYLINE
  5
102
100
AcDbEntity
  8
Layer_1
 62
7
100
AcDbPolyline
 90
25
 70
1
 10
28.425069
 20
35.682151
 30
0.0
 10
28.530903
 20
35.479304
 30
0.0
 10
29.104167
 20
34.032915
 30
0.0
 10
29.836181
 20
32.383679
 30
0.0
 10
30.365347
 20
31.713401
 30
0.0
 10
30.621111
 20
31.545832
 30
0.0
 10
30.621111
 20
29.605554
 30
0.0
 10
30.180139
 20
29.305693
 30
0.0
 10
29.871458
 20
28.847082
 30
0.0
 10
29.747986
 20
28.273818
 30
0.0
 10
29.756820
 20
28.123888
 30
0.0
 10
28.089945
 20
27.171388
 30
0.0
 10
27.816542
 20
27.303679
 30
0.0
 10
26.978695
 20
27.435971
 30
0.0
 10
25.179528
 20
27.241943
 30
0.0
 10
23.644945
 20
27.003818
 30
0.0
 10
23.406820
 20
27.003818
 30
0.0
 10
23.300986
 20
28.273818
 30
0.0
 10
23.468556
 20
29.870138
 30
0.0
 10
23.927167
 20
31.360624
 30
0.0
 10
24.650361
 20
32.701179
 30
0.0
 10
25.620500
 20
33.874165
 30
0.0
 10
26.793486
 20
34.835485
 30
0.0
 10
28.134042
 20
35.567499
 30
0.0
 10
28.425069
 20
35.682151
 30
0.0
  0
LWPOLYLINE
  5
103
100
AcDbEntity
  8
Layer_1
 62
7
100
AcDbPolyline
 90
25
 70
1
 10
34.025417
 20
35.673332
 30
0.0
 10
34.298819
 20
35.567499
 30
0.0
 10
35.648194
 20
34.835485
 30
0.0
 10
36.821181
 20
33.874165
 30
0.0
 10
37.782500
 20
32.701179
 30
0.0
 10
38.514514
 20
31.360624
 30
0.0
 10
38.973125
 20
29.870138
 30
0.0
 10
39.131875
 20
28.273818
 30
0.0
 10
39.034861
 20
27.003818
 30
0.0
 10
38.814375
 20
27.003818
 30
0.0
 10
37.270972
 20
27.241943
 30
0.0
 10
35.480625
 20
27.435971
 30
0.0
 10
34.633958
 20
27.303679
 30
0.0
 10
34.351736
 20
27.162568
 30
0.0
 10
32.676042
 20
28.123888
 30
0.0
 10
32.684875
 20
28.273818
 30
0.0
 10
32.570222
 20
28.847082
 30
0.0
 10
32.252722
 20
29.305693
 30
0.0
 10
31.820570
 20
29.605554
 30
0.0
 10
31.820570
 20
31.537013
 30
0.0
 10
32.085153
 20
31.713401
 30
0.0
 10
32.623139
 20
32.383679
 30
0.0
 10
33.355153
 20
34.032915
 30
0.0
 10
33.919597
 20
35.479304
 30
0.0
 10
34.025417
 20
35.673332
 30
0.0
  0
LWPOLYLINE
  5
104
100
AcDbEntity
  8
Layer_1
 62
7
100
AcDbPolyline
 90
17
 70
1
 10
31.220833
 20
28.538401
 30
0.0
 10
31.326667
 20
28.520763
 30
0.0
 10
31.414861
 20
28.467846
 30
0.0
 10
31.467778
 20
28.379651
 30
0.0
 10
31.485417
 20
28.273818
 30
0.0
 10
31.467778
 20
28.167985
 30
0.0
 10
31.414861
 20
28.079790
 30
0.0
 10
31.326667
 20
28.026874
 30
0.0
 10
31.220833
 20
28.009235
 30
0.0
 10
31.115000
 20
28.026874
 30
0.0
 10
31.026806
 20
28.079790
 30
0.0
 10
30.973889
 20
28.167985
 30
0.0
 10
30.947445
 20
28.273818
 30
0.0
 10
30.973889
 20
28.379651
 30
0.0
 10
31.026806
 20
28.467846
 30
0.0
 10
31.115000
 20
28.520763
 30
0.0
 10
31.220833
 20
28.538401
 30
0.0
  0
LWPOLYLINE
  5
105
100
AcDbEntity
  8
Layer_1
 62
7
100
AcDbPolyline
 90
25
 70
1
 10
30.365347
 20
27.083193
 30
0.0
 10
30.647569
 20
26.924443
 30
0.0
 10
31.220833
 20
26.809790
 30
0.0
 10
31.785278
 20
26.924443
 30
0.0
 10
32.076319
 20
27.083193
 30
0.0
 10
33.752014
 20
26.121874
 30
0.0
 10
33.778458
 20
25.813193
 30
0.0
 10
34.087139
 20
25.019443
 30
0.0
 10
35.145472
 20
23.564235
 30
0.0
 10
36.115611
 20
22.338332
 30
0.0
 10
36.230264
 20
22.144304
 30
0.0
 10
35.648180
 20
21.712151
 30
0.0
 10
34.298805
 20
20.980138
 30
0.0
 10
32.817139
 20
20.521526
 30
0.0
 10
31.220819
 20
20.362776
 30
0.0
 10
29.624500
 20
20.521526
 30
0.0
 10
28.134014
 20
20.980138
 30
0.0
 10
26.793458
 20
21.712151
 30
0.0
 10
26.211375
 20
22.135485
 30
0.0
 10
26.334847
 20
22.338332
 30
0.0
 10
27.304986
 20
23.564235
 30
0.0
 10
28.372139
 20
25.019443
 30
0.0
 10
28.680819
 20
25.813193
 30
0.0
 10
28.698458
 20
26.130693
 30
0.0
 10
30.365347
 20
27.083193
 30
0.0
  0
LWPOLYLINE
  5
106
100
AcDbEntity
  8
Layer_1
 62
7
100
AcDbPolyline
 90
4
 70
1
 10
23.442083
 20
26.827429
 30
0.0
 10
23.450903
 20
26.809790
 30
0.0
 10
23.442083
 20
26.809790
 30
0.0
 10
23.442083
 20
26.827429
 30
0.0
  0
LWPOLYLINE
  5
107
100
AcDbEntity
  8
Layer_1
 62
7
100
AcDbPolyline
 90
14
 70
1
 10
26.961042
 20
26.236526
 30
0.0
 10
27.419653
 20
26.174790
 30
0.0
 10
27.507847
 20
26.130693
 30
0.0
 10
27.499028
 20
26.033679
 30
0.0
 10
27.322639
 20
25.601526
 30
0.0
 10
26.378958
 20
24.322707
 30
0.0
 10
25.338264
 20
23.008610
 30
0.0
 10
25.320625
 20
22.982166
 30
0.0
 10
24.650347
 20
23.846471
 30
0.0
 10
23.927153
 20
25.187027
 30
0.0
 10
23.697847
 20
25.813207
 30
0.0
 10
23.715486
 20
25.813207
 30
0.0
 10
25.382361
 20
26.060152
 30
0.0
 10
26.961042
 20
26.236526
 30
0.0
  0
LWPOLYLINE
  5
108
100
AcDbEntity
  8
Layer_1
 62
7
100
AcDbPolyline
 90
13
 70
1
 10
35.498264
 20
26.236526
 30
0.0
 10
37.068125
 20
26.060138
 30
0.0
 10
38.735000
 20
25.813193
 30
0.0
 10
38.743834
 20
25.813193
 30
0.0
 10
38.514528
 20
25.187013
 30
0.0
 10
37.782514
 20
23.846457
 30
0.0
 10
37.121056
 20
23.008610
 30
0.0
 10
36.071542
 20
24.322707
 30
0.0
 10
35.127861
 20
25.601526
 30
0.0
 10
34.951472
 20
26.033679
 30
0.0
 10
34.951472
 20
26.130693
 30
0.0
 10
35.030847
 20
26.174790
 30
0.0
 10
35.498264
 20
26.236526
 30
0.0
  0
LWPOLYLINE
  5
109
100
AcDbEntity
  8
Layer_1
 62
7
100
AcDbPolyline
 90
4
 70
1
 10
26.070278
 20
22.276596
 30
0.0
 10
26.087917
 20
22.250138
 30
0.0
 10
26.061458
 20
22.267776
 30
0.0
 10
26.070278
 20
22.276596
 30
0.0
  0
ENDSEC
  0
SECTION
  2
OBJECTS
  0
DICTIONARY
  5
C
330
0
100
AcDbDictionary
  3
ACAD_GROUP
350
D
  3
ACAD_MLINESTYLE
350
17
  0
DICTIONARY
  5
D
330
C
100
AcDbDictionary
  0
DICTIONARY
  5
1A
330
C
100
AcDbDictionary
  0
DICTIONARY
  5
17
330
C
100
AcDbDictionary
  3
STANDARD
350
18
  0
DICTIONARY
  5
19
330
C
100
AcDbDictionary
  0
ENDSEC
  0
EOF
