<?xml version="1.0" encoding="UTF-8" standalone="no"?>
<!-- Created with Inkscape (http://www.inkscape.org/) -->

<svg
   xmlns:dc="http://purl.org/dc/elements/1.1/"
   xmlns:cc="http://creativecommons.org/ns#"
   xmlns:rdf="http://www.w3.org/1999/02/22-rdf-syntax-ns#"
   xmlns:svg="http://www.w3.org/2000/svg"
   xmlns="http://www.w3.org/2000/svg"
   xmlns:sodipodi="http://sodipodi.sourceforge.net/DTD/sodipodi-0.dtd"
   xmlns:inkscape="http://www.inkscape.org/namespaces/inkscape"
   sodipodi:docname="sewing-table-side.svg"
   inkscape:version="0.48.5 r10040"
   version="1.1"
   id="svg2"
   height="237.40157"
   width="237.40157">
  <sodipodi:namedview
     id="base"
     pagecolor="#ffffff"
     bordercolor="#666666"
     borderopacity="1.0"
     inkscape:pageopacity="0.0"
     inkscape:pageshadow="2"
     inkscape:zoom="4.28"
     inkscape:cx="253.92424"
     inkscape:cy="91.877792"
     inkscape:document-units="mm"
     inkscape:current-layer="layer1"
     showgrid="false"
     inkscape:window-width="1920"
     inkscape:window-height="1025"
     inkscape:window-x="-7"
     inkscape:window-y="-12"
     inkscape:window-maximized="1"
     showguides="true"
     inkscape:guide-bbox="true"
     inkscape:snap-grids="false"
     inkscape:snap-object-midpoints="true"
     inkscape:snap-nodes="true"
     inkscape:object-paths="true"
     inkscape:snap-center="false"
     inkscape:snap-global="false"
     units="mm" />
  <defs
     id="defs4">
    <inkscape:perspective
       sodipodi:type="inkscape:persp3d"
       inkscape:vp_x="1620.9545 : 935.85852 : 0"
       inkscape:vp_y="-3.0024826e-13 : -1634.4754 : 0"
       inkscape:vp_z="-1371.1167 : 791.6146 : 0"
       inkscape:persp3d-origin="129.91573 : -167.59512 : 1"
       id="perspective7379" />
    <inkscape:path-effect
       is_visible="true"
       id="path-effect3105"
       effect="spiro" />
  </defs>
  <metadata
     id="metadata7">
    <rdf:RDF>
      <cc:Work
         rdf:about="">
        <dc:format>image/svg+xml</dc:format>
        <dc:type
           rdf:resource="http://purl.org/dc/dcmitype/StillImage" />
        <dc:title></dc:title>
      </cc:Work>
    </rdf:RDF>
  </metadata>
  <g
     id="layer1"
     inkscape:groupmode="layer"
     inkscape:label="Layer 1"
     transform="translate(0,-814.9606)">
    <path
       style="font-size:medium;font-style:normal;font-variant:normal;font-weight:normal;font-stretch:normal;text-indent:0;text-align:start;text-decoration:none;line-height:normal;letter-spacing:normal;word-spacing:normal;text-transform:none;direction:ltr;block-progression:tb;writing-mode:lr-tb;text-anchor:start;baseline-shift:baseline;color:#000000;fill:#000000;fill-opacity:1;stroke:none;stroke-width:4.25196838;marker:none;visibility:visible;display:inline;overflow:visible;enable-background:accumulate;font-family:Sans;-inkscape-font-specification:Sans"
       d="m 72.8125,58.3125 0,2.6875 0,2.65625 3.25,0 3.25,0 0.3125,17.75 L 78.75,107.125 74,131.5625 66,158.15625 58.875,183.5 l -3.5,24.53125 -0.5625,0 -0.53125,0 0,2.65625 0,2.65625 6.65625,0 6.65625,0 0,-2.65625 0,-2.65625 -0.9375,0 0.46875,-5.53125 1.3125,-5.71875 1.71875,-3.0625 2,-1.21875 2.625,-0.0625 3.4375,1 4.03125,1.90625 4.375,2.5 9.15625,5.28125 9.28125,2.90625 4.59375,-0.65625 4.03125,-2.71875 1.5625,-2.0625 0.65625,-1.15625 0.46875,0.0937 0.78125,-0.15625 0.71875,1.21875 1.53125,2.0625 4.03125,2.71875 4.59375,0.65625 9.3125,-2.90625 9.15625,-5.28125 4.375,-2.5 4.03125,-1.90625 3.4375,-1 2.59375,0.0625 2,1.21875 1.75,3.0625 L 166,202.5 l 0.4375,5.53125 -1.15625,0 0,2.65625 0,2.65625 6.6875,0 6.65625,0 0,-2.65625 0,-2.65625 -0.4375,0 -0.46875,0 -3.5,-24.53125 -7.125,-25.34375 -8,-26.59375 -4.71875,-24.4375 -0.875,-25.71875 0.28125,-17.75 2.375,0 2.34375,0 0,-2.65625 0,-2.6875 -42.84375,0 z m 11.8125,5.34375 2.5,0 2.46875,0 1.0625,5.1875 1.40625,5.03125 1.1875,2.71875 1.65625,2.34375 0.15625,0.125 0.1875,0.125 -1.375,1.625 -1.0625,1.90625 L 91.15625,87.5625 90,92.78125 88.90625,97.84375 87.625,102 l -0.78125,1.46875 -0.78125,0.96875 -0.71875,0.5 -0.90625,0.125 -0.125,0 -0.09375,0 0.71875,-24.75 z m 9.3125,0 6.46875,0 6.5,0 -1.09375,4.65625 -1.21875,4.09375 -0.96875,2.125 -1.0625,1.5 -1.0625,0.78125 -1.25,0.25 -1.25,-0.25 -1,-0.78125 -1,-1.46875 -0.90625,-2.09375 -1.15625,-4.125 z m 17.375,0 5.28125,0 5.28125,0 1.03125,5.1875 1.34375,5.03125 1.15625,2.71875 1.65625,2.34375 0.15625,0.125 0.1875,0.125 -1.375,1.625 -1.0625,1.90625 -1.59375,4.84375 -1.125,5.25 -1.0625,5.0625 -1.28125,4.125 -0.75,1.46875 -0.75,0.96875 -0.71875,0.5 -0.90625,0.125 -0.90625,-0.15625 -0.78125,-0.5 -0.8125,-0.96875 -0.8125,-1.5 -1.40625,-4.125 -1.21875,-5.0625 -1.28125,-5.25 -1.78125,-4.84375 -1.09375,-1.875 -1.375,-1.59375 0.15625,-0.09375 0.15625,-0.125 1.6875,-2.3125 1.25,-2.71875 1.53125,-5.0625 z m 14.875,0 6.46875,0 6.46875,0 -1.09375,4.65625 -1.25,4.09375 -1,2.125 -1.0625,1.5 -1.0625,0.78125 -1.28125,0.25 -1.21875,-0.21875 -1,-0.78125 -0.96875,-1.46875 -0.90625,-2.125 -1.125,-4.125 z m 17.375,0 2.46875,0 2.4375,0 -0.3125,16.65625 0.71875,24.75 -0.78125,-0.1875 -0.6875,-0.46875 -0.84375,-1 -0.8125,-1.46875 -1.4375,-4.15625 -1.25,-5.0625 L 141.75,87.5 l -1.8125,-4.84375 -1.09375,-1.875 -1.40625,-1.59375 0.1875,-0.09375 0.15625,-0.125 1.71875,-2.3125 1.25,-2.71875 1.5625,-5.0625 z m -43.3125,17.6875 1.0625,0.1875 0.875,0.53125 0.90625,1 0.875,1.46875 1.46875,4.125 1.25,5.03125 1.25,5.21875 1.65625,4.8125 1.03125,1.875 1.3125,1.625 -1.3125,1.625 -1.03125,1.875 -1.65625,4.8125 -1.25,5.21875 -1.25,5.03125 -1.46875,4.125 -0.875,1.46875 -0.90625,1 -0.875,0.53125 -1.0625,0.1875 -1.0625,-0.1875 -0.84375,-0.53125 -0.875,-0.96875 -0.8125,-1.46875 -1.375,-4.09375 -1.09375,-5.03125 -1.125,-5.21875 -1.53125,-4.8125 -1,-1.90625 -1.3125,-1.65625 1.3125,-1.65625 1,-1.90625 1.53125,-4.8125 1.125,-5.21875 1.09375,-5.03125 1.375,-4.09375 0.8125,-1.46875 0.875,-0.96875 0.84375,-0.53125 z m 32.125,0 1.0625,0.1875 0.90625,0.53125 0.90625,1 0.875,1.46875 1.5,4.125 1.28125,5.03125 1.28125,5.21875 1.6875,4.8125 1.03125,1.875 1.34375,1.625 -1.34375,1.625 -1.03125,1.875 -1.6875,4.8125 -1.28125,5.21875 -1.28125,5.03125 -1.5,4.125 -0.875,1.46875 -0.90625,1 -0.90625,0.53125 -1.0625,0.1875 -1.03125,-0.1875 -0.84375,-0.53125 -0.84375,-0.96875 -0.8125,-1.4375 -1.34375,-4.125 -1.09375,-5.03125 -1.0625,-5.21875 -1.5,-4.8125 -0.96875,-1.90625 -1.3125,-1.65625 1.3125,-1.65625 0.96875,-1.90625 1.5,-4.8125 1.0625,-5.21875 1.09375,-5.03125 1.34375,-4.125 0.8125,-1.4375 0.84375,-0.96875 0.84375,-0.53125 z m -47.9375,28.03125 0.90625,0.125 0.71875,0.5 0.78125,0.96875 0.78125,1.46875 1.28125,4.15625 1.09375,5.0625 1.15625,5.21875 1.65625,4.84375 1.0625,1.875 1.375,1.625 -1.375,1.625 -1.0625,1.875 -1.65625,4.84375 L 90,148.8125 88.90625,153.875 87.625,158 l -0.78125,1.46875 -0.78125,0.96875 -0.71875,0.5 -0.90625,0.15625 -1.28125,-0.3125 -1.09375,-1.125 -1.125,-2.15625 -1.03125,-2.9375 -1.53125,-6.28125 -1.75,-6.53125 4.46875,-16.5 2.75,-15.8125 0.28125,-0.0313 z m 32.34375,0 0.90625,0.125 0.71875,0.5 0.75,0.96875 0.75,1.46875 1.28125,4.125 1.0625,5.0625 1.125,5.25 1.59375,4.84375 0.4375,0.84375 0.46875,0.78125 -4.59375,-1.59375 -4.90625,-0.5625 -4.90625,0.5625 -4.59375,1.59375 0.46875,-0.78125 0.4375,-0.8125 1.78125,-4.84375 1.28125,-5.21875 1.21875,-5.0625 1.40625,-4.125 0.8125,-1.5 0.8125,-0.96875 0.78125,-0.5 z m 32.3125,0 0.0937,0 0.0625,0 2.71875,15.71875 4.4375,16.4375 -1.59375,6.5625 -1.375,6.375 -0.9375,3 -1.09375,2.1875 -1.0625,1.125 -1.25,0.3125 -0.90625,-0.15625 -0.78125,-0.5 -0.84375,-1 -0.8125,-1.46875 -1.4375,-4.15625 -1.25,-5.0625 -1.3125,-5.21875 -1.8125,-4.84375 -1.09375,-1.84375 -1.375,-1.625 1.375,-1.59375 1.09375,-1.84375 1.8125,-4.84375 1.3125,-5.21875 1.25,-5.0625 1.4375,-4.15625 0.8125,-1.46875 0.84375,-1 0.78125,-0.5 z m -48.84375,28 0.28125,0 0.25,0 -1.9375,1.875 -1.78125,2.09375 -0.6875,0.9375 -0.6875,0.9375 0.46875,-1.4375 0.5,-1.28125 0.8125,-1.46875 0.875,-0.96875 0.84375,-0.53125 z m 31.71875,0 0.21875,0 0.21875,0 1.0625,0.1875 0.875,0.53125 0.90625,1 0.875,1.46875 0.5625,1.375 0.53125,1.53125 -0.75,-1.09375 -0.78125,-1.03125 -1.78125,-2.09375 z m -15.59375,4.4375 6.96875,1.8125 5.78125,4.96875 3.96875,7.5 1.46875,9.28125 -0.84375,7 -2.28125,6.15625 -0.375,0 -0.375,0 -2.1875,-4.375 -2.21875,-4.375 -0.96875,-1.625 -1.15625,-1.1875 -1.375,-0.78125 -1.65625,-0.4375 3.59375,-0.90625 2.53125,-1.5625 1.53125,-2.25 0.5,-2.9375 -0.71875,-3.5625 -2.15625,-2.65625 -3.4375,-1.65625 -4.65625,-0.5625 -7.6875,0 -7.71875,0 0.375,-0.53125 0.375,-0.53125 5.75,-4.96875 z M 74.28125,149.53125 75,152.6875 75.8125,155.75 77,159.15625 l 1.625,2.96875 0.5,0.53125 0.5625,0.46875 -1.375,1.6875 -1.0625,1.9375 -1.65625,4.8125 -1.25,5.21875 -1.25,5.03125 -1.5,4.125 -0.875,1.46875 -0.875,0.96875 -0.90625,0.53125 -1.0625,0.1875 -1.34375,-0.28125 -1.0625,-0.90625 -0.75,-1.1875 L 64,185.09375 67.28125,172.5 71.09375,159.71875 72.6875,154.625 z m 84.59375,0.0313 1.59375,5.0625 1.5625,5.09375 3.78125,12.5625 3.21875,12.375 -0.78125,1.78125 -0.8125,1.34375 -1.125,1 -1.40625,0.3125 -1.0625,-0.15625 -0.84375,-0.53125 -0.84375,-0.96875 -0.8125,-1.46875 -1.375,-4.125 -1.125,-5.03125 -1.125,-5.21875 -1.53125,-4.8125 -1.03125,-1.96875 -1.375,-1.71875 0.59375,-0.5 0.53125,-0.5625 1.5625,-3.03125 1.09375,-3.4375 0.6875,-2.96875 z m -57.53125,2.625 1.8125,0 1.8125,0 0,13.1875 0,13.15625 -1.8125,0 -1.8125,0 -2.3125,-6.15625 -0.84375,-7 0.84375,-7.03125 z m 11.40625,0 1.3125,0 1.3125,0 2.5,0.40625 1.84375,1.1875 1.15625,1.90625 0.375,2.625 -0.375,2.625 -1.15625,1.96875 -1.84375,1.1875 -2.5,0.40625 -1.3125,0 -1.3125,0 0,-6.15625 z m 30.6875,10.09375 0.40625,0.5 0.4375,0.46875 -0.40625,0.40625 -0.375,0.4375 -0.0313,-0.90625 z m -59,3.09375 0.90625,0.15625 0.71875,0.5 0.78125,0.96875 0.78125,1.46875 1.28125,4.125 1.09375,5.0625 1.15625,5.25 1.65625,4.84375 1.1875,2.125 1.59375,1.78125 1.21875,0.71875 -2.9375,4.78125 -5.09375,-2.96875 -4.53125,-2.59375 -4.46875,-2.125 -2.21875,-0.75 -2.1875,-0.5 -0.21875,-0.0313 0.25,-0.40625 1.78125,-4.84375 1.28125,-5.21875 1.25,-5.0625 1.40625,-4.15625 0.8125,-1.5 0.8125,-0.96875 0.78125,-0.5 z m 64.65625,0 0.90625,0.15625 0.71875,0.5 L 151.5,167 l 0.78125,1.46875 1.28125,4.125 1.09375,5.0625 1.15625,5.25 1.65625,4.84375 0.25,0.46875 -2.1875,0.5 -2.21875,0.75 -4.46875,2.125 -4.53125,2.59375 -5.34375,3.125 -3.0625,-5 1.15625,-0.65625 1.625,-1.78125 1.25,-2.09375 1.8125,-4.84375 1.3125,-5.21875 1.25,-5.0625 1.4375,-4.125 0.8125,-1.46875 0.84375,-1 0.78125,-0.53125 z m -36.34375,1.65625 0.59375,0 0.625,0 1.5625,0.1875 1.15625,0.625 1.09375,1.34375 1.28125,2.40625 2.40625,4.75 2.40625,4.75 3,0 3,0 -0.375,0.53125 -0.375,0.53125 -5.78125,4.96875 -6.96875,1.78125 -6.96875,-1.78125 -5.75,-4.96875 -0.375,-0.53125 -0.375,-0.53125 6.875,0 6.84375,0 0,-1.28125 0,-1.28125 -1.9375,0 -1.9375,0 0,-5.75 z m 57.59375,23.875 1.375,8.71875 0.65625,8.40625 -1.6875,0 -0.46875,-6.09375 -1.5625,-6.65625 -1.21875,-2.5 0.5,-0.125 z m -107.625,0.28125 2.3125,1.5625 0.5625,0.125 -1.15625,2.40625 -1.5625,6.65625 -0.46875,6.09375 -1.6875,0 0.625,-8.25 z m 38.40625,2.25 6.59375,4.3125 3.78125,0.78125 -0.9375,1.25 -2.375,1.6875 -2.84375,0.3125 -7.625,-2.5625 -0.09375,-0.0625 z m 30.5,0.0313 3.59375,5.84375 -7.46875,2.46875 -2.8125,-0.3125 -2.375,-1.6875 -0.96875,-1.3125 3.375,-0.6875 z"
       transform="translate(0,814.9606)"
       id="path3901"
       inkscape:connector-curvature="0"
       sodipodi:nodetypes="cccccccccccccccccccccccccccccccccccccccccccccccccccccccccccccccccccccccccccccccccccccccccccccccccccccccccccccccccccccccccccccccccccccccccccccccccccccccccccccccccccccccccccccccccccccccccccccccccccccccccccccccccccccccccccccccccccccccccccccccccccccccccccccccccccccccccccccccccccccccccccccccccccccccccccccccccccccccccccccccccccccccccccccccccccccccccccccccccccccccccccccccccccccccccccccccccccccccccccccccccccccccccccccccccccccccccccccccccccccccccccccccccccccccccccccccccccccccccccccccccccccccccccccccccccccccccccccccccccccccccccccccccccccccccccccccccccccccccccccccccccccccccccccccccccccccccccccccccccccccccccc" />
  </g>
</svg>
