<?xml version="1.0" encoding="UTF-8" standalone="no"?>
<!-- Created with Inkscape (http://www.inkscape.org/) -->

<svg
   xmlns:dc="http://purl.org/dc/elements/1.1/"
   xmlns:cc="http://creativecommons.org/ns#"
   xmlns:rdf="http://www.w3.org/1999/02/22-rdf-syntax-ns#"
   xmlns:svg="http://www.w3.org/2000/svg"
   xmlns="http://www.w3.org/2000/svg"
   xmlns:sodipodi="http://sodipodi.sourceforge.net/DTD/sodipodi-0.dtd"
   xmlns:inkscape="http://www.inkscape.org/namespaces/inkscape"
   sodipodi:docname="sewing-table-pedal.svg"
   inkscape:version="0.48.5 r10040"
   version="1.1"
   id="svg2"
   height="237.40157"
   width="237.40157">
  <sodipodi:namedview
     id="base"
     pagecolor="#ffffff"
     bordercolor="#666666"
     borderopacity="1.0"
     inkscape:pageopacity="0.0"
     inkscape:pageshadow="2"
     inkscape:zoom="9.6385108"
     inkscape:cx="76.446567"
     inkscape:cy="82.720318"
     inkscape:document-units="mm"
     inkscape:current-layer="layer1"
     showgrid="false"
     inkscape:window-width="1920"
     inkscape:window-height="1025"
     inkscape:window-x="-7"
     inkscape:window-y="-12"
     inkscape:window-maximized="1"
     showguides="true"
     inkscape:guide-bbox="true"
     inkscape:snap-grids="false"
     inkscape:snap-object-midpoints="true"
     inkscape:snap-nodes="true"
     inkscape:object-paths="true"
     inkscape:snap-center="false"
     inkscape:snap-global="false"
     units="mm" />
  <defs
     id="defs4">
    <inkscape:perspective
       sodipodi:type="inkscape:persp3d"
       inkscape:vp_x="1620.9545 : 935.85852 : 0"
       inkscape:vp_y="-3.0024826e-13 : -1634.4754 : 0"
       inkscape:vp_z="-1371.1167 : 791.6146 : 0"
       inkscape:persp3d-origin="129.91573 : -167.59512 : 1"
       id="perspective7379" />
    <inkscape:path-effect
       is_visible="true"
       id="path-effect3105"
       effect="spiro" />
  </defs>
  <metadata
     id="metadata7">
    <rdf:RDF>
      <cc:Work
         rdf:about="">
        <dc:format>image/svg+xml</dc:format>
        <dc:type
           rdf:resource="http://purl.org/dc/dcmitype/StillImage" />
        <dc:title></dc:title>
      </cc:Work>
    </rdf:RDF>
  </metadata>
  <g
     id="layer1"
     inkscape:groupmode="layer"
     inkscape:label="Layer 1"
     transform="translate(0,-814.9606)">
    <path
       style="font-size:medium;font-style:normal;font-variant:normal;font-weight:normal;font-stretch:normal;text-indent:0;text-align:start;text-decoration:none;line-height:normal;letter-spacing:normal;word-spacing:normal;text-transform:none;direction:ltr;block-progression:tb;writing-mode:lr-tb;text-anchor:start;baseline-shift:baseline;color:#000000;fill:#000000;fill-opacity:0.94117647;stroke:none;stroke-width:4.25196838;marker:none;visibility:visible;display:inline;overflow:visible;enable-background:accumulate;font-family:Sans;-inkscape-font-specification:Sans"
       d="m 61.53125,121.28125 0,2.125 0,58.125 0,2.125 2.125,0 84.40625,0 2.125,0 0,-2.125 0,-58.125 0,-2.125 -2.125,0 -84.40625,0 z m 4.25,4.25 0.1875,0 0.0625,0.125 0.71875,2.75 0.90625,3.625 0.71875,1.15625 -0.71875,1.1875 -0.90625,3.5625 -0.71875,2.75 -0.25,0.4375 z m 3.9375,0 3.375,0 -0.5,2.21875 -0.71875,2.96875 -0.375,0.6875 -0.03125,0 -0.0625,0 -0.0625,0 -0.375,-0.6875 -0.75,-2.96875 z m 7.15625,0 0.5625,0 0.0625,0.125 0.75,2.75 0.90625,3.625 0.6875,1.125 -0.71875,1.21875 -0.875,3.5625 -0.75,2.75 -0.3125,0.4375 -0.03125,0 -0.34375,-0.4375 -0.75,-2.75 -0.875,-3.5625 -0.71875,-1.1875 0.71875,-1.15625 0.90625,-3.625 0.71875,-2.75 z m 4.34375,0 3.375,0 -0.5,2.21875 -0.71875,2.96875 -0.375,0.6875 -0.03125,0 -0.0625,0 -0.0625,0 -0.03125,0 -0.375,-0.6875 -0.71875,-2.96875 z m 7.15625,0 0.5625,0 0.0625,0.125 0.71875,2.75 0.90625,3.625 0.71875,1.15625 -0.71875,1.1875 -0.90625,3.5625 -0.71875,2.75 -0.34375,0.4375 -0.03125,0 -0.3125,-0.4375 -0.75,-2.75 -0.875,-3.5625 -0.71875,-1.21875 0.6875,-1.125 0.90625,-3.625 0.75,-2.75 z m 4.34375,0 3.34375,0 -0.5,2.21875 -0.71875,2.96875 -0.375,0.6875 -0.0625,0 -0.0625,0 -0.03125,0 -0.375,-0.6875 -0.71875,-2.96875 z m 7.125,0 0.5625,0 0.0625,0.125 0.75,2.75 0.875,3.625 0.71875,1.15625 -0.71875,1.1875 -0.875,3.5625 -0.71875,2.75 -0.34375,0.4375 -0.0313,0 -0.34375,-0.4375 -0.71875,-2.75 -0.90625,-3.5625 -0.71875,-1.1875 0.71875,-1.15625 0.90625,-3.625 0.71875,-2.75 z m 4.34375,0 3.34375,0 -0.5,2.21875 -0.71875,3 -0.375,0.65625 -0.0625,0 -0.0937,0 -0.375,-0.65625 -0.71875,-3 z m 7.125,0 0.5625,0 0.0625,0.125 0.71875,2.75 0.90625,3.625 0.71875,1.15625 -0.71875,1.1875 -0.875,3.5625 -0.75,2.75 -0.34375,0.4375 -0.34375,-0.4375 -0.75,-2.75 -0.875,-3.5625 -0.71875,-1.1875 0.71875,-1.15625 0.90625,-3.625 0.71875,-2.75 z m 4.34375,0 3.375,0 -0.5,2.21875 -0.75,2.96875 -0.375,0.6875 -0.0625,0 -0.0625,0 -0.0313,0 -0.375,-0.6875 -0.71875,-2.96875 z m 7.15625,0 0.53125,0 0.0625,0.125 0.75,2.75 0.90625,3.625 0.71875,1.15625 -0.71875,1.1875 -0.90625,3.5625 -0.71875,2.75 -0.34375,0.4375 -0.0313,0 -0.34375,-0.4375 -0.71875,-2.75 -0.90625,-3.5625 -0.71875,-1.1875 0.71875,-1.15625 0.90625,-3.625 0.75,-2.75 z m 4.3125,0 3.375,0 -0.5,2.21875 -0.71875,2.96875 -0.375,0.6875 -0.0313,0 -0.0625,0 -0.0625,0 -0.40625,-0.6875 L 127.625,127.75 z m 7.15625,0 0.5625,0 0.0625,0.125 0.75,2.75 0.875,3.625 0.71875,1.15625 -0.71875,1.1875 -0.875,3.5625 -0.75,2.75 -0.34375,0.4375 -0.34375,-0.4375 -0.75,-2.75 -0.875,-3.5625 -0.71875,-1.1875 0.71875,-1.15625 0.875,-3.625 0.75,-2.75 z m 4.34375,0 3.375,0 -0.5,2.21875 -0.71875,2.96875 -0.375,0.6875 -0.0313,0 -0.0625,0 -0.0625,0 -0.0313,0 -0.375,-0.6875 L 139.125,127.75 z m 7.15625,0 0.15625,0 0,15.59375 -0.25,-0.4375 -0.71875,-2.75 -0.875,-3.5625 -0.71875,-1.21875 0.6875,-1.125 0.90625,-3.625 0.75,-2.75 z m -74.4375,9.4375 0.0625,0 0.0625,0 0.03125,0 0.375,0.6875 0.71875,2.96875 1,3.5625 0.5625,0.71875 -0.5625,0.6875 -1,3.59375 -0.71875,2.96875 -0.375,0.65625 -0.09375,0 -0.0625,0 -0.375,-0.65625 -0.71875,-2.96875 -1.03125,-3.59375 -0.5625,-0.6875 0.5625,-0.71875 1.03125,-3.5625 0.71875,-2.96875 z m 11.46875,0 0.03125,0 0.0625,0 0.0625,0 0.03125,0 0.375,0.6875 0.71875,2.96875 1,3.5625 0.5625,0.71875 -0.5625,0.6875 -1,3.59375 -0.71875,2.96875 -0.375,0.65625 -0.09375,0 -0.09375,0 -0.375,-0.65625 -0.71875,-2.96875 -1,-3.59375 -0.5625,-0.6875 0.5625,-0.71875 1,-3.5625 0.71875,-2.96875 z m 11.5,0 0.03125,0 0.0625,0 0.0625,0 0.375,0.6875 0.71875,2.96875 1.03125,3.5625 0.5625,0.71875 -0.5625,0.6875 -1.03125,3.59375 -0.71875,2.96875 -0.375,0.65625 -0.0625,0 -0.09375,0 -0.375,-0.65625 -0.71875,-2.96875 -1.03125,-3.59375 -0.5625,-0.6875 0.5625,-0.71875 1.03125,-3.5625 0.71875,-2.96875 z m 11.46875,0 0.0313,0 0.0625,0 0.0625,0 0.375,0.6875 0.71875,2.96875 1,3.5625 0.5625,0.71875 -0.5625,0.6875 -1,3.59375 -0.71875,2.96875 -0.375,0.65625 -0.0625,0 -0.0937,0 -0.375,-0.65625 -0.71875,-2.96875 -1,-3.59375 -0.5625,-0.6875 0.5625,-0.71875 1,-3.5625 0.71875,-2.96875 z m 11.46875,0 0.0313,0 0.0625,0 0.0625,0 0.0313,0 0.375,0.6875 0.71875,2.96875 1,3.5625 0.5625,0.71875 -0.5625,0.6875 -1,3.59375 -0.71875,2.96875 -0.375,0.65625 -0.0313,0 -0.0625,0 -0.0937,0 -0.375,-0.65625 -0.71875,-2.96875 -1,-3.59375 -0.5625,-0.6875 0.5625,-0.71875 1,-3.5625 0.71875,-2.96875 z m 11.5,0 0.0625,0 0.0625,0 0.0313,0 0.375,0.6875 0.71875,2.96875 1,3.5625 0.5625,0.71875 -0.5625,0.6875 -1,3.59375 -0.71875,2.96875 -0.375,0.65625 -0.0937,0 -0.0625,0 -0.40625,-0.65625 -0.6875,-2.96875 -1.03125,-3.59375 -0.5625,-0.6875 0.5625,-0.71875 1.03125,-3.5625 0.6875,-2.96875 z m 11.46875,0 0.0313,0 0.0625,0 0.0625,0 0.0313,0 0.375,0.6875 0.71875,2.96875 1,3.5625 0.5625,0.71875 -0.5625,0.6875 -1,3.59375 -0.71875,2.96875 -0.375,0.65625 -0.0937,0 -0.0937,0 -0.375,-0.65625 -0.71875,-2.96875 -1,-3.59375 -0.5625,-0.6875 0.5625,-0.71875 1,-3.5625 0.71875,-2.96875 z m -74.4375,9.6875 0.25,0.46875 0.71875,2.71875 0.90625,3.59375 0.71875,1.15625 -0.71875,1.1875 -0.90625,3.5625 -0.71875,2.75 -0.25,0.4375 z m 11.28125,0 0.09375,0 0.03125,0 0.3125,0.46875 0.75,2.71875 0.875,3.59375 0.71875,1.15625 -0.71875,1.1875 -0.875,3.59375 -0.75,2.71875 -0.3125,0.4375 -0.03125,0 -0.34375,-0.4375 -0.75,-2.71875 -0.875,-3.59375 -0.71875,-1.1875 0.71875,-1.15625 0.875,-3.59375 0.75,-2.71875 z m 11.46875,0 0.09375,0 0.03125,0 L 89,145.125 l 0.71875,2.71875 0.90625,3.59375 0.71875,1.15625 -0.71875,1.1875 -0.90625,3.59375 -0.71875,2.71875 -0.34375,0.4375 -0.03125,0 -0.3125,-0.4375 -0.75,-2.71875 -0.875,-3.59375 -0.71875,-1.1875 0.71875,-1.15625 0.875,-3.59375 0.75,-2.71875 z m 11.5,0 0.0937,0 0.0313,0 0.34375,0.4375 0.71875,2.75 0.875,3.59375 0.71875,1.15625 -0.71875,1.1875 -0.875,3.59375 -0.71875,2.71875 -0.34375,0.4375 -0.0313,0 -0.34375,-0.4375 -0.71875,-2.71875 -0.90625,-3.59375 -0.71875,-1.1875 0.71875,-1.15625 0.90625,-3.59375 0.71875,-2.71875 z m 11.46875,0 0.0937,0 0.34375,0.46875 0.75,2.71875 0.875,3.59375 0.71875,1.15625 -0.71875,1.1875 -0.875,3.5625 -0.75,2.75 -0.34375,0.4375 -0.34375,-0.4375 -0.75,-2.71875 -0.875,-3.59375 -0.71875,-1.1875 0.71875,-1.15625 0.875,-3.59375 0.75,-2.71875 z m 11.46875,0 0.0937,0 0.0313,0 0.34375,0.46875 0.71875,2.71875 0.90625,3.59375 0.71875,1.15625 -0.71875,1.1875 -0.90625,3.5625 -0.71875,2.75 -0.34375,0.4375 -0.0313,0 -0.34375,-0.4375 -0.71875,-2.75 -0.90625,-3.5625 -0.71875,-1.1875 0.71875,-1.15625 0.90625,-3.59375 0.71875,-2.71875 z m 11.5,0 0.0937,0 0.34375,0.46875 0.75,2.71875 0.875,3.59375 0.71875,1.15625 -0.71875,1.1875 -0.875,3.5625 -0.75,2.75 -0.34375,0.4375 -0.34375,-0.4375 -0.75,-2.75 -0.875,-3.5625 -0.71875,-1.1875 0.71875,-1.15625 0.875,-3.59375 0.75,-2.71875 z m 11.46875,0 0,15.875 -0.25,-0.4375 -0.71875,-2.71875 -0.875,-3.59375 -0.71875,-1.1875 0.71875,-1.15625 0.875,-3.59375 0.71875,-2.71875 z m -74.59375,9.75 0.0625,0 0.0625,0 0.03125,0 0.375,0.65625 0.71875,2.96875 1,3.59375 0.5625,0.6875 -0.5625,0.6875 -1,3.59375 -0.71875,2.96875 -0.375,0.65625 -0.09375,0 -0.0625,0 -0.375,-0.65625 L 70.25,166.59375 69.21875,163 68.6875,162.3125 69.21875,161.625 70.25,158.03125 70.96875,155.0625 z m 11.46875,0 0.09375,0 0.0625,0 0.03125,0 0.375,0.65625 0.71875,2.96875 1,3.59375 0.53125,0.6875 -0.53125,0.6875 -1,3.59375 -0.71875,2.96875 -0.375,0.65625 -0.09375,0 -0.09375,0 -0.375,-0.65625 -0.71875,-2.96875 -1,-3.59375 -0.53125,-0.6875 0.53125,-0.6875 1,-3.59375 0.71875,-2.96875 z m 11.5,0 0.09375,0 0.03125,0 0.03125,0 0.375,0.65625 0.71875,2.96875 1.03125,3.59375 0.53125,0.6875 -0.53125,0.6875 -1.03125,3.59375 -0.71875,2.96875 -0.375,0.65625 -0.0625,0 -0.09375,0 -0.375,-0.65625 -0.71875,-2.96875 L 92.1875,163 l -0.53125,-0.6875 0.53125,-0.6875 1.03125,-3.59375 0.71875,-2.96875 z m 11.46875,0 0.0937,0 0.0313,0 0.0313,0 0.375,0.65625 0.71875,2.96875 1,3.59375 0.53125,0.6875 -0.53125,0.6875 -1,3.59375 -0.71875,2.96875 -0.375,0.65625 -0.0625,0 -0.0937,0 -0.375,-0.65625 -0.71875,-2.96875 -1,-3.59375 -0.53125,-0.6875 0.53125,-0.6875 1,-3.59375 0.71875,-2.96875 z m 11.46875,0 0.0937,0 0.0625,0 0.0313,0 0.375,0.65625 0.71875,2.96875 1,3.59375 0.53125,0.6875 -0.53125,0.6875 -1,3.59375 -0.71875,2.96875 -0.375,0.65625 -0.0937,0 -0.0937,0 -0.375,-0.65625 -0.71875,-2.96875 -1,-3.59375 -0.5625,-0.6875 0.5625,-0.6875 1,-3.59375 0.71875,-2.96875 z m 11.5,0 0.0625,0 0.0625,0 0.0313,0 0.375,0.65625 0.71875,2.96875 1,3.59375 0.5625,0.6875 L 131,163 l -1,3.59375 -0.71875,2.96875 -0.375,0.65625 -0.0937,0 -0.0625,0 -0.40625,-0.65625 -0.6875,-2.96875 L 126.625,163 l -0.53125,-0.6875 0.53125,-0.6875 1.03125,-3.59375 0.6875,-2.96875 z m 11.46875,0 0.0937,0 0.0625,0 0.0313,0 0.375,0.65625 0.71875,2.96875 1,3.59375 0.53125,0.6875 L 142.5,163 l -1,3.59375 -0.71875,2.96875 -0.375,0.65625 -0.0937,0 -0.0937,0 -0.375,-0.65625 -0.71875,-2.96875 -1,-3.59375 -0.53125,-0.6875 0.53125,-0.6875 1,-3.59375 0.71875,-2.96875 z m -74.4375,9.6875 0.25,0.4375 0.71875,2.75 0.90625,3.5625 L 68.375,172 l -0.59375,0.90625 -0.90625,3.3125 -0.65625,2.8125 -0.15625,0.375 -0.28125,0 z m 11.28125,0 0.09375,0 0.03125,0 0.3125,0.4375 0.75,2.75 0.875,3.5625 0.71875,1.1875 -0.59375,0.875 -0.90625,3.3125 -0.625,2.8125 -0.15625,0.375 -0.78125,0 -0.15625,-0.375 -0.65625,-2.8125 -0.90625,-3.3125 -0.59375,-0.875 0.71875,-1.1875 0.875,-3.5625 0.75,-2.75 z m 11.46875,0 0.09375,0 0.03125,0 0.34375,0.4375 0.71875,2.75 0.90625,3.5625 0.71875,1.15625 -0.59375,0.90625 -0.90625,3.3125 -0.65625,2.8125 -0.15625,0.375 -0.78125,0 -0.15625,-0.375 -0.625,-2.8125 -0.90625,-3.3125 -0.59375,-0.875 0.71875,-1.1875 0.875,-3.5625 0.75,-2.75 z m 11.5,0 0.0937,0 0.0313,0 0.34375,0.4375 0.71875,2.71875 0.875,3.59375 0.71875,1.1875 -0.59375,0.875 -0.90625,3.3125 -0.625,2.8125 -0.15625,0.375 -0.78125,0 -0.15625,-0.375 -0.65625,-2.8125 -0.90625,-3.3125 L 97.4375,172 l 0.71875,-1.15625 0.90625,-3.5625 0.71875,-2.75 z m 11.46875,0 0.0937,0 0.34375,0.4375 0.75,2.75 0.875,3.5625 0.71875,1.1875 -0.59375,0.875 -0.90625,3.3125 -0.65625,2.8125 -0.15625,0.375 -0.75,0 -0.15625,-0.375 -0.65625,-2.8125 L 109.5,172.90625 108.90625,172 l 0.71875,-1.15625 0.875,-3.5625 0.75,-2.75 z m 11.46875,0 0.0937,0 0.0313,0 0.34375,0.4375 0.71875,2.75 0.90625,3.5625 0.71875,1.15625 -0.59375,0.90625 -0.90625,3.3125 -0.65625,2.8125 -0.15625,0.375 -0.78125,0 -0.15625,-0.375 -0.65625,-2.8125 -0.90625,-3.3125 L 120.375,172 l 0.71875,-1.15625 0.90625,-3.5625 0.71875,-2.75 z m 11.5,0 0.0937,0 0.34375,0.4375 0.75,2.75 0.875,3.5625 0.71875,1.1875 -0.59375,0.875 -0.90625,3.3125 -0.625,2.8125 -0.15625,0.375 -0.78125,0 -0.15625,-0.375 -0.65625,-2.8125 -0.90625,-3.3125 -0.59375,-0.875 0.71875,-1.1875 0.875,-3.5625 0.75,-2.75 z m 11.46875,0 0,15.3125 -0.28125,0 -0.15625,-0.375 -0.65625,-2.8125 -0.875,-3.3125 -0.59375,-0.875 0.71875,-1.1875 0.875,-3.5625 0.71875,-2.75 z m -74.59375,9.71875 0.0625,0 0.09375,0 0.3125,0.5 0.6875,2.5625 0.53125,2.53125 -3.25,0 0.5625,-2.53125 0.6875,-2.5625 z m 11.46875,0 0.09375,0 0.09375,0 0.3125,0.5 0.65625,2.5625 0.5625,2.53125 -3.25,0 0.5625,-2.53125 0.65625,-2.5625 z m 11.5,0 0.09375,0 0.0625,0 0.3125,0.5 0.6875,2.5625 0.5625,2.53125 -3.25,0 L 93.3125,176.875 94,174.3125 z m 11.46875,0 0.0937,0 0.0625,0 0.3125,0.5 0.6875,2.5625 0.53125,2.53125 -3.21875,0 0.5625,-2.53125 0.65625,-2.5625 z m 11.46875,0 0.0937,0 0.0937,0 0.3125,0.5 0.65625,2.5625 0.5625,2.53125 -3.25,0 0.53125,-2.53125 0.6875,-2.5625 z m 11.5,0 0.0625,0 0.0937,0 0.3125,0.5 0.6875,2.5625 0.53125,2.53125 -3.25,0 0.5625,-2.53125 0.6875,-2.5625 z m 11.46875,0 0.0937,0 0.0937,0 0.3125,0.5 0.65625,2.5625 0.5625,2.53125 -3.25,0 0.5625,-2.53125 0.65625,-2.5625 z"
       transform="translate(0,814.9606)"
       id="rect6996"
       inkscape:connector-curvature="0"
       sodipodi:nodetypes="ccccccccccccccccccccccccccccccccccccccccccccccccccccccccccccccccccccccccccccccccccccccccccccccccccccccccccccccccccccccccccccccccccccccccccccccccccccccccccccccccccccccccccccccccccccccccccccccccccccccccccccccccccccccccccccccccccccccccccccccccccccccccccccccccccccccccccccccccccccccccccccccccccccccccccccccccccccccccccccccccccccccccccccccccccccccccccccccccccccccccccccccccccccccccccccccccccccccccccccccccccccccccccccccccccccccccccccccccccccccccccccccccccccccccccccccccccccccccccccccccccccccccccccccccccccccccccccccccccccccccccccccccccccccccccccccccccccccccccccccccccccccccccccccccccccccccccccccccccccccccccccccccccccccccccccccccccccccccccccccccccccccccccccccccccccccccccccccccccccccccccccccccccccccccccccccccccccccccccccccccccccccccccccccccccccccccccccccccccccccccccccccccccccccccccccccccccccccccccccccccccccccccccccccccccccccccccccccccccccccccccccccccccccccccccccccccccccccccccccccccccc" />
  </g>
</svg>
