<?xml version="1.0" encoding="UTF-8" standalone="no"?>
<!-- Created with Inkscape (http://www.inkscape.org/) -->

<svg
   xmlns:dc="http://purl.org/dc/elements/1.1/"
   xmlns:cc="http://creativecommons.org/ns#"
   xmlns:rdf="http://www.w3.org/1999/02/22-rdf-syntax-ns#"
   xmlns:svg="http://www.w3.org/2000/svg"
   xmlns="http://www.w3.org/2000/svg"
   xmlns:sodipodi="http://sodipodi.sourceforge.net/DTD/sodipodi-0.dtd"
   xmlns:inkscape="http://www.inkscape.org/namespaces/inkscape"
   sodipodi:docname="sewing-table-inner.dxf"
   inkscape:version="0.48.4 r9939"
   version="1.1"
   id="svg2"
   height="237.40157"
   width="237.40157">
  <sodipodi:namedview
     id="base"
     pagecolor="#ffffff"
     bordercolor="#666666"
     borderopacity="1.0"
     inkscape:pageopacity="0.0"
     inkscape:pageshadow="2"
     inkscape:zoom="4.28"
     inkscape:cx="76.05837"
     inkscape:cy="101.8933"
     inkscape:document-units="mm"
     inkscape:current-layer="layer1"
     showgrid="false"
     inkscape:window-width="1920"
     inkscape:window-height="1025"
     inkscape:window-x="-7"
     inkscape:window-y="-12"
     inkscape:window-maximized="1"
     showguides="true"
     inkscape:guide-bbox="true"
     inkscape:snap-grids="false"
     inkscape:snap-object-midpoints="true"
     inkscape:snap-nodes="true"
     inkscape:object-paths="true"
     inkscape:snap-center="false"
     inkscape:snap-global="false"
     units="mm" />
  <defs
     id="defs4" />
  <metadata
     id="metadata7">
    <rdf:RDF>
      <cc:Work
         rdf:about="">
        <dc:format>image/svg+xml</dc:format>
        <dc:type
           rdf:resource="http://purl.org/dc/dcmitype/StillImage" />
        <dc:title></dc:title>
      </cc:Work>
    </rdf:RDF>
  </metadata>
  <g
     id="layer1"
     inkscape:groupmode="layer"
     inkscape:label="Layer 1"
     transform="translate(0,-814.9606)">
    <path
       style="font-size:18.0238266px;font-style:normal;font-variant:normal;font-weight:900;font-stretch:normal;text-align:start;line-height:125%;letter-spacing:0px;word-spacing:0px;writing-mode:lr-tb;text-anchor:start;fill:#000000;fill-opacity:1;stroke:none;font-family:Roboto;-inkscape-font-specification:Roboto Heavy"
       d="m 47.28125,49.90625 0,5.71875 0,5.71875 2.40625,0 2.40625,0 0,-1.5625 0,-1.5625 0.96875,0 0.96875,0 1.449323,3.345462 2.363177,2.154538 3.8906,1.209088 3.8594,0.165912 3.603717,1.081061 4.833783,3.606439 4.062018,6.615345 1.719232,10.165905 0.03125,0 0.03125,0 0,8.984375 0,8.984375 -8.035702,11.74255 -8.151798,16.44495 -6.948169,20.18643 -3.301831,20.93857 -0.671875,0 -0.671875,0 0,-1.57812 0,-1.57813 -2.40625,0 -2.40625,0 0,5.73438 0,5.73437 2.40625,0 2.40625,0 0,-1.57812 0,-1.57813 0.625,0 0.625,0 3.948378,7.91032 14.395372,4.37093 0,-2.125 0,-2.125 L 59.972878,183.70072 57.625,179 l 1.296875,0 1.296875,0 0,-2.57812 0,-2.57813 -1.265625,0 -1.265625,0 3.211059,-19.94579 6.726441,-19.52296 8.031758,-16.09883 7.561992,-11.08867 32.82812,0 32.82813,0 3.09686,13.94582 5.30939,14.55418 3.08496,7.82023 2.66504,7.11727 1.83096,6.05725 0.66904,4.4115 0.44537,5.91283 1.49213,4.77467 -2.39418,3.17489 -1.44957,2.73136 -1.12011,2.8733 -1.22364,2.65795 -3.31975,2.64898 -4.899,1.16352 0,2.125 0,2.125 6.81581,-1.46391 5.09044,-4.47359 1.50858,-3.21698 1.05392,-2.75177 0.97865,-1.90878 1.58385,-2.21622 3.84884,2.26579 4.86991,1.01546 0,0.23438 0,0.23437 4.0625,0 4.0625,0 0,1.57813 0,1.57812 2.40625,0 2.40625,0 0,-5.73437 0,-5.73438 -2.40625,0 -2.40625,0 0,1.57813 0,1.57812 -4.0625,0 -4.0625,0 0,0.23438 0,0.23437 -3.86075,-0.92491 -2.5455,-1.82509 -1.93728,-3.95038 -0.68772,-6.51837 -0.77323,-5.45776 -1.97677,-6.41724 -2.72196,-7.2673 -3.09054,-7.82645 -5.69711,-16.05956 L 152.96875,104 l -0.0313,0 -0.0313,0 0,-3.92187 0,-3.92188 0.95145,8.4e-5 2.7048,-8.4e-5 0.2123,0.505123 0.2252,0.963627 0.23074,2.85181 0.14426,3.52319 0.33352,3.67522 0.97898,3.48103 2.33931,2.80555 3.78569,1.13195 3.71204,-1.27965 2.16296,-2.90785 0.76244,-3.51736 0.11256,-3.67014 -0.0564,-3.47189 0.0876,-2.77811 0.18972,-0.936908 0.18528,-0.469342 7.3125,0 7.3125,0 0,-1.765625 0,-1.765625 -7.3125,0 -7.3125,0 -1.728,0.473294 -1.272,1.151706 -0.61139,1.394566 -0.26361,1.480434 -0.12643,3.25904 0.0639,3.45971 -0.12749,3.29341 -0.52876,2.58159 -0.86877,1.45083 -1.75623,0.45542 -1.81508,-0.40375 -0.99742,-1.44 -0.70026,-2.57797 -0.33099,-3.29703 -0.1291,-3.46537 -0.27715,-3.25338 -0.31586,-1.471473 L 159.5625,94.25 158.32755,93.10678 156.625,92.625 l -1.85937,0 -1.85938,0 0,-3.515625 0,-3.515625 0,-0.3125 0,-0.3125 2.15509,-5.51755 3.78241,-7.10745 8.11958,-9.346481 11.84917,-5.091019 0,0.15625 0,0.15625 4.0625,0 4.0625,0 0,1.5625 0,1.5625 2.40625,0 2.40625,0 0,-5.71875 0,-5.71875 -2.40625,0 -2.40625,0 0,1.5625 0,1.5625 -4.0625,0 -4.0625,0 0,0.28125 0,0.28125 -14.18606,5.853205 -9.37644,10.615545 -4.01151,7.49632 -2.33224,5.90993 -32.48438,0 -32.48437,0 L 81.571023,73.745062 77.125,66.875 71.18124,62.307089 65.59375,60.84375 62.299582,60.667826 59.90625,60 59.005728,59.323148 58.34375,58.21875 l 0.9375,0 0.9375,0 0,-2.59375 0,-2.59375 -4.0625,0 -4.0625,0 0,-1.5625 0,-1.5625 -2.40625,0 z m 36.84375,37.8125 3.75,0 3.75,0 0,0.796875 0,0.796875 -1.46875,0 -1.46875,0 0,5.984375 0,5.984375 0.03125,0 0.03125,0 0,0.82813 0,0.82812 -2.3125,0 -2.3125,0 0,-7.609375 z m 10.4375,0 5.1875,0 5.1875,0 0,0.796875 0,0.796875 -1.76562,0 -1.76563,0 0,5.984375 0,5.984375 1.70313,0 1.70312,0 0,0.82813 0,0.82812 -2.57812,0 -2.57813,0 0,-0.82812 0,-0.82813 0.171875,0 0.171875,0 0,-0.0781 0,-0.0781 -0.34013,-0.33551 -0.22237,-0.50824 -0.118168,-0.564149 -0.03808,-0.498351 0,-0.390625 0,-0.390625 L 99.13893,97.456498 98.71875,96.65625 97.991461,96.020135 96.90625,95.59375 97.868594,95.108536 98.5625,94.5 98.985033,93.768885 99.125,92.90625 98.770385,91.416956 97.71875,90.28125 96.323985,89.634177 94.5625,89.34375 l 0,-0.8125 z m 13.3125,0 4.01563,0 4.01562,0 0,0.828125 0,0.828125 -1.19203,0.44995 -1.02672,0.7063 -1.16744,1.568263 -0.39506,1.962987 0,1.25 0,1.25 0.40126,1.969119 1.19249,1.562131 1.29289,0.82567 1.55086,0.45558 0,0.78125 0,0.78125 -4.40625,0 -4.40625,0 0,-0.82812 0,-0.82813 1.59375,0 1.59375,0 0,-1.0625 0,-1.0625 -3.17187,0 -3.17188,0 0,-1.484375 0,-1.484375 2.6875,0 2.6875,0 0,-1.078125 0,-1.078125 -2.6875,0 -2.6875,0 0,-1.28125 0,-1.28125 3.1875,0 3.1875,0 0,-1.078125 0,-1.078125 -1.54688,0 -1.54687,0 0,-0.796875 z m 11,0 4.98438,0 4.98437,0 0,0.796875 0,0.796875 -1.84375,0 -1.84375,0 0,5.984375 0,5.984375 1.84375,0 1.84375,0 0,0.82813 0,0.82812 -4.65625,0 -4.65625,0 0,-0.78125 0,-0.78125 0.8785,-0.19346 0.77775,-0.27529 1.17339,-0.58183 0.85786,-0.66817 0,-2.25 0,-2.25 -2.6875,0 -2.6875,0 0,0.921875 0,0.921875 1.07813,0 1.07812,0 0,0.9375 0,0.9375 -0.33882,0.192414 -0.44243,0.151336 -0.59331,0.09334 -0.78169,0.03166 -1.07173,-0.201498 -0.80327,-0.579752 -0.49532,-0.878703 -0.16093,-1.121297 0,-1.265625 0,-1.265625 0.15857,-1.097438 0.49768,-0.871312 0.79793,-0.583855 1.01457,-0.197395 0.95615,0.130769 0.66885,0.369231 0.4559,0.58596 0.26285,0.82029 1.5,0 1.5,0 0,-0.03125 0,-0.03125 -0.46508,-1.648384 -1.03492,-1.257866 -1.18511,-0.652819 -1.56489,-0.347181 0,-0.75 z m 12.90625,0 2.21875,0 2.21875,0 0,0.796875 0,0.796875 -0.0469,0 -0.0469,0 0,5.984375 0,5.984375 1.78125,0 1.78125,0 0,0.82813 0,0.82812 -3.95312,0 -3.95313,0 0,-0.82812 0,-0.82813 1.45313,0 1.45312,0 0,-1.0625 0,-1.0625 -3.17187,0 -3.17188,0 0,-1.484375 0,-1.484375 2.6875,0 2.6875,0 0,-1.078125 0,-1.078125 -2.6875,0 -2.6875,0 0,-1.28125 0,-1.28125 3.17188,0 3.17187,0 0,-1.078125 0,-1.078125 -1.45312,0 -1.45313,0 0,-0.796875 z m 7.375,0 4.75,0 4.75,0 0,7.609375 0,7.609375 -3.01562,0 -3.01563,0 0,-0.82812 0,-0.82813 1.29688,0 1.29687,0 0,-1.0625 0,-1.0625 -2.95312,0 -2.95313,0 0,-4.921875 0,-4.921875 -0.0781,0 -0.0781,0 0,-0.796875 z m -47.28125,3.75 1.03125,0 1.03125,0 0.842693,0.105687 0.626057,0.331813 0.397491,0.521784 0.133759,0.665716 -0.122844,0.629071 -0.377156,0.464679 -0.621347,0.282064 -0.847403,0.09294 -1.046875,0 -1.046875,0 0,-1.546875 z m 0,5.25 1.09375,0 1.09375,0 0.870092,0.105687 0.629908,0.331813 0.395136,0.555521 0.136114,0.756979 0,0.359375 0,0.359375 0.03424,0.584711 0.09076,0.634039 0.186411,0.53616 0.313589,0.33884 0,0.82813 0,0.82812 -2.515625,0 -2.515625,0 0,-0.82812 0,-0.82813 0.09375,0 0.09375,0 0,-2.28125 z"
       id="path3054"
       inkscape:connector-curvature="0"
       sodipodi:nodetypes="ccccccccccccccccccccccccccccccccccccccccccccccccccccccccccccccccccccccccccccccccccccccccccccccccccccccccccccccccccccccccccccccccccccccccccccccccccccccccccccccccccccccccccccccccccccccccccccccccccccccccccccccccccccccccccccccccccccccccccccccccccccccccccccccccccccccccccccccccccccccccccccccccccccccccccccccccccccccccccccccccccccccccccccccccccccccccccccccccccccccccccccccccccccccccccccccccccccccccccccccccccccccccccccccccccccccccccccccccccccccccccccccccccccccccccccccccccccccc"
       transform="translate(0,814.9606)" />
  </g>
</svg>
